#N canvas 0 25 1680 913 12;
#X obj 1590 -1060 cnv 15 597 222 empty empty _chimes 11 6 0 14 #212121
#76d6ff 0;
#X obj 326 -882 sel 1 2 3;
#X msg 356 -842 3;
#X obj 260 -972 random 8;
#X obj 562 -872 sel 1 2 3;
#X obj 484 -965 random 8;
#X obj 823 -851 sel 1 2 3;
#X obj 736 -969 random 8;
#X obj 1168 -908 sel 1 2 3;
#X msg 1158 -868 4;
#X obj 1050 -1012 delay 1000;
#X obj 1050 -982 random 8;
#X msg 824 -818 6;
#X msg 864 -818 4;
#X msg 914 -818 3;
#X msg 1198 -868 5;
#X msg 592 -832 6;
#X msg 632 -842 4;
#X msg 316 -842 5;
#X obj 354 -302 sel 1 2 3;
#X obj 300 -480 random 8;
#X obj 648 -310 sel 1 2 3;
#X obj 562 -500 random 8;
#X obj 898 -332 sel 1 2 3;
#X obj 812 -490 random 8;
#X obj 1158 -352 sel 1 2 3;
#X msg 1148 -312 4;
#X obj 1062 -510 random 8;
#X msg 340 -266 6;
#X msg 416 -262 3;
#X msg 638 -270 5;
#X msg 708 -270 6;
#X msg 888 -292 5;
#X obj 265 -768 s note1;
#X obj 474 -780 s note2;
#X msg 1233 -315 5;
#X obj 737 -785 s note3;
#X obj 1075 -704 s note4, f 9;
#X obj 271 -176 s note5;
#X obj 554 -170 s note6;
#X obj 803 -189 s note7;
#X obj 1095 -183 s note8;
#X msg 678 -270 3;
#X msg 386 -842 2;
#X obj 78 -1194 inlet;
#X obj 78 -1166 s toggle;
#X obj 260 -1002 delay 100;
#X obj 484 -995 delay 300;
#X obj 300 -510 delay 200;
#X obj 560 -528 delay 1200;
#X obj 812 -520 delay 10;
#X obj 1060 -544 delay 100;
#X obj 321 -1058 r randomize;
#X obj 544 -1050 r randomize;
#X obj 773 -1069 r randomize;
#X obj 1076 -1077 r randomize;
#X obj 304 -577 r randomize;
#X obj 568 -595 r randomize;
#X obj 870 -595 r randomize;
#X obj 1120 -605 r randomize;
#X obj 733 -1001 delay 6000;
#X obj 320 -1031 random 4000;
#X obj 544 -1022 random 5000;
#X obj 800 -1033 random 6000;
#X obj 1076 -1045 random 4000;
#X obj 1120 -573 random 5000;
#X obj 870 -563 random 6000;
#X obj 570 -563 random 2000;
#X obj 304 -547 random 3000;
#X obj 708 -1195 r delayLength;
#X obj 1356 -1074 outlet;
#X obj 1356 -1108 r bng;
#X text 1350 -1140 tempo bang;
#X msg 928 -292 2;
#X msg 970 -290 4;
#X msg 552 -832 2;
#X msg 384 -262 2;
#X obj 960 -1186 metro 500;
#X obj 1590 -1100 nbx 5 20 -1e+37 1e+37 0 0 empty empty loop_length
0 -8 0 10 #73fcd6 #000000 #76d6ff 3832 256 0;
#X obj 1590 -1040 chimes_instr~;
#X obj 1740 -1040 chimes_instr~;
#X obj 1890 -1040 chimes_instr~;
#X obj 2040 -1040 chimes_instr~;
#X obj 1590 -940 chimes_instr~;
#X obj 1740 -940 chimes_instr~;
#X obj 1890 -940 chimes_instr~;
#X obj 2040 -940 chimes_instr~;
#X obj 1794 -1121 r note1;
#X obj 1854 -1121 r note2;
#X obj 1914 -1121 r note3;
#X obj 1974 -1121 r note4;
#X obj 1663 -699 r note5;
#X obj 1798 -698 r note6;
#X obj 1958 -698 r note7;
#X obj 2126 -698 r note 8;
#X obj 1486 -1089 r randomize;
#X obj 1484 -1059 random 10000;
#X obj 1486 -1029 + 2000;
#X obj 1074 -1195 bng 42 250 50 0 empty empty State 17 7 0 10 #008080
#000000 #000000;
#X obj 960 -1220 r toggle;
#X obj 1540 -970 outlet;
#X obj 2278 -994 s delayLength;
#X obj 260 -942 pitch_to_scale;
#X obj 484 -935 pitch_to_scale;
#X obj 737 -940 pitch_to_scale;
#X obj 1050 -952 pitch_to_scale;
#X obj 300 -430 pitch_to_scale;
#X obj 562 -460 pitch_to_scale;
#X obj 812 -450 pitch_to_scale;
#X obj 1062 -480 pitch_to_scale;
#X obj 2384 -1204 inlet;
#X obj 2384 -1176 s scale;
#X obj 506 -1210 r scale;
#X obj 317 -797 * 12;
#X obj 554 -799 * 12;
#X obj 824 -778 * 12;
#X obj 1146 -842 * 12;
#X obj 262 -872 +;
#X obj 494 -808 +;
#X obj 741 -836 +;
#X obj 1068 -790 +;
#X obj 275 -225 +;
#X obj 582 -214 +;
#X obj 634 -230 * 12;
#X obj 822 -242 +;
#X obj 873 -257 * 12;
#X obj 1104 -252 +;
#X obj 1141 -278 * 12;
#X floatatom 1712 -1082 5 0 0 0 - chime_vol1 -, f 5;
#X floatatom 1889 -1086 5 0 0 0 - chime_vol2 -, f 5;
#X floatatom 2055 -1084 5 0 0 0 - chime_vol3 -, f 5;
#X floatatom 2202 -1084 5 0 0 0 - chime_vol4 -, f 5;
#X floatatom 1692 -675 5 0 0 0 - chime_vol5 -, f 5;
#X floatatom 1841 -672 5 0 0 0 - chime_vol6 -, f 5;
#X floatatom 2001 -669 5 0 0 0 - chime_vol7 -, f 5;
#X floatatom 2165 -668 5 0 0 0 - chime_vol8 -, f 5;
#X obj 281 -913 bng 30 250 50 0 empty empty empty 17 7 0 10 #fcfcfc
#000000 #000000;
#X obj 518 -893 bng 23 250 50 0 empty empty empty 17 7 0 10 #fcfcfc
#000000 #000000;
#X obj 823 -915 bng 26 250 50 0 empty empty empty 17 7 0 10 #fcfcfc
#000000 #000000;
#X obj 1084 -905 bng 24 250 50 0 empty empty empty 17 7 0 10 #fcfcfc
#000000 #000000;
#X obj 326 -377 bng 24 250 50 0 empty empty empty 17 7 0 10 #fcfcfc
#000000 #000000;
#X obj 608 -393 bng 24 250 50 0 empty empty empty 17 7 0 10 #fcfcfc
#000000 #000000;
#X obj 856 -399 bng 24 250 50 0 empty empty empty 17 7 0 10 #fcfcfc
#000000 #000000;
#X obj 1128 -433 bng 24 250 50 0 empty empty empty 17 7 0 10 #fcfcfc
#000000 #000000;
#N canvas 1056 522 450 301 markov.chain1 0;
#X obj 82 213 bng 15 250 50 0 empty empty empty 20 8 0 8 #fcfcfc #000000
#000000;
#X obj 82 319 bng 15 250 50 0 empty empty empty 20 8 0 8 #fcfcfc #000000
#000000;
#X obj 127 319 bng 15 250 50 0 empty empty empty 20 8 0 8 #fcfcfc #000000
#000000;
#X obj 172 319 bng 15 250 50 0 empty empty empty 20 8 0 8 #fcfcfc #000000
#000000;
#X msg 82 339 1;
#X msg 127 339 2;
#X msg 172 339 3;
#X obj 82 379 s state;
#X obj 82 104 bng 20 250 50 0 empty empty empty 20 8 0 8 #fcfcfc #000000
#000000;
#X obj 212 64 r state;
#X obj 82 166 sel 1 2 3;
#X obj 224 213 bng 15 250 50 0 empty empty empty 20 8 0 8 #fcfcfc #000000
#000000;
#X obj 224 319 bng 15 250 50 0 empty empty empty 20 8 0 8 #fcfcfc #000000
#000000;
#X obj 269 319 bng 15 250 50 0 empty empty empty 20 8 0 8 #fcfcfc #000000
#000000;
#X obj 314 319 bng 15 250 50 0 empty empty empty 20 8 0 8 #fcfcfc #000000
#000000;
#X msg 224 339 1;
#X msg 269 339 2;
#X msg 314 339 3;
#X obj 224 379 s state;
#X obj 371 213 bng 15 250 50 0 empty empty empty 20 8 0 8 #fcfcfc #000000
#000000;
#X obj 371 319 bng 15 250 50 0 empty empty empty 20 8 0 8 #fcfcfc #000000
#000000;
#X obj 416 319 bng 15 250 50 0 empty empty empty 20 8 0 8 #fcfcfc #000000
#000000;
#X obj 461 319 bng 15 250 50 0 empty empty empty 20 8 0 8 #fcfcfc #000000
#000000;
#X msg 371 339 1;
#X msg 416 339 2;
#X msg 461 339 3;
#X obj 371 379 s state;
#X obj 82 140 f 1;
#X obj 82 238 random 100;
#X obj 82 265 moses 30;
#X obj 127 292 moses 60;
#X obj 224 237 random 100;
#X obj 224 265 moses 10;
#X obj 269 292 moses 60;
#X obj 371 237 random 100;
#X obj 371 265 moses 70;
#X obj 416 292 moses 80;
#X text 112 64 STEP;
#X obj 212 94 outlet;
#X obj 72 64 inlet;
#X connect 0 0 28 0;
#X connect 1 0 4 0;
#X connect 2 0 5 0;
#X connect 3 0 6 0;
#X connect 4 0 7 0;
#X connect 5 0 7 0;
#X connect 6 0 7 0;
#X connect 8 0 27 0;
#X connect 9 0 27 1;
#X connect 9 0 38 0;
#X connect 10 0 0 0;
#X connect 10 1 11 0;
#X connect 10 2 19 0;
#X connect 11 0 31 0;
#X connect 12 0 15 0;
#X connect 13 0 16 0;
#X connect 14 0 17 0;
#X connect 15 0 18 0;
#X connect 16 0 18 0;
#X connect 17 0 18 0;
#X connect 19 0 34 0;
#X connect 20 0 23 0;
#X connect 21 0 24 0;
#X connect 22 0 25 0;
#X connect 23 0 26 0;
#X connect 24 0 26 0;
#X connect 25 0 26 0;
#X connect 27 0 10 0;
#X connect 28 0 29 0;
#X connect 29 0 1 0;
#X connect 29 1 30 0;
#X connect 30 0 2 0;
#X connect 30 1 3 0;
#X connect 31 0 32 0;
#X connect 32 0 12 0;
#X connect 32 1 33 0;
#X connect 33 0 13 0;
#X connect 33 1 14 0;
#X connect 34 0 35 0;
#X connect 35 0 20 0;
#X connect 35 1 36 0;
#X connect 36 0 21 0;
#X connect 36 1 22 0;
#X connect 39 0 8 0;
#X restore 326 -912 pd markov.chain1;
#N canvas 1056 522 450 301 markov.chain2 0;
#X obj 82 213 bng 15 250 50 0 empty empty empty 20 8 0 8 #fcfcfc #000000
#000000;
#X obj 82 319 bng 15 250 50 0 empty empty empty 20 8 0 8 #fcfcfc #000000
#000000;
#X obj 127 319 bng 15 250 50 0 empty empty empty 20 8 0 8 #fcfcfc #000000
#000000;
#X obj 172 319 bng 15 250 50 0 empty empty empty 20 8 0 8 #fcfcfc #000000
#000000;
#X msg 82 339 1;
#X msg 127 339 2;
#X msg 172 339 3;
#X obj 82 379 s state;
#X obj 82 104 bng 20 250 50 0 empty empty empty 20 8 0 8 #fcfcfc #000000
#000000;
#X obj 212 64 r state;
#X obj 82 166 sel 1 2 3;
#X obj 224 213 bng 15 250 50 0 empty empty empty 20 8 0 8 #fcfcfc #000000
#000000;
#X obj 224 319 bng 15 250 50 0 empty empty empty 20 8 0 8 #fcfcfc #000000
#000000;
#X obj 269 319 bng 15 250 50 0 empty empty empty 20 8 0 8 #fcfcfc #000000
#000000;
#X obj 314 319 bng 15 250 50 0 empty empty empty 20 8 0 8 #fcfcfc #000000
#000000;
#X msg 224 339 1;
#X msg 269 339 2;
#X msg 314 339 3;
#X obj 224 379 s state;
#X obj 371 213 bng 15 250 50 0 empty empty empty 20 8 0 8 #fcfcfc #000000
#000000;
#X obj 371 319 bng 15 250 50 0 empty empty empty 20 8 0 8 #fcfcfc #000000
#000000;
#X obj 416 319 bng 15 250 50 0 empty empty empty 20 8 0 8 #fcfcfc #000000
#000000;
#X obj 461 319 bng 15 250 50 0 empty empty empty 20 8 0 8 #fcfcfc #000000
#000000;
#X msg 371 339 1;
#X msg 416 339 2;
#X msg 461 339 3;
#X obj 371 379 s state;
#X obj 82 140 f 1;
#X obj 82 238 random 100;
#X obj 82 265 moses 30;
#X obj 127 292 moses 60;
#X obj 224 237 random 100;
#X obj 224 265 moses 10;
#X obj 269 292 moses 60;
#X obj 371 237 random 100;
#X obj 371 265 moses 70;
#X obj 416 292 moses 80;
#X text 112 64 STEP;
#X obj 212 94 outlet;
#X obj 72 64 inlet;
#X connect 0 0 28 0;
#X connect 1 0 4 0;
#X connect 2 0 5 0;
#X connect 3 0 6 0;
#X connect 4 0 7 0;
#X connect 5 0 7 0;
#X connect 6 0 7 0;
#X connect 8 0 27 0;
#X connect 9 0 27 1;
#X connect 9 0 38 0;
#X connect 10 0 0 0;
#X connect 10 1 11 0;
#X connect 10 2 19 0;
#X connect 11 0 31 0;
#X connect 12 0 15 0;
#X connect 13 0 16 0;
#X connect 14 0 17 0;
#X connect 15 0 18 0;
#X connect 16 0 18 0;
#X connect 17 0 18 0;
#X connect 19 0 34 0;
#X connect 20 0 23 0;
#X connect 21 0 24 0;
#X connect 22 0 25 0;
#X connect 23 0 26 0;
#X connect 24 0 26 0;
#X connect 25 0 26 0;
#X connect 27 0 10 0;
#X connect 28 0 29 0;
#X connect 29 0 1 0;
#X connect 29 1 30 0;
#X connect 30 0 2 0;
#X connect 30 1 3 0;
#X connect 31 0 32 0;
#X connect 32 0 12 0;
#X connect 32 1 33 0;
#X connect 33 0 13 0;
#X connect 33 1 14 0;
#X connect 34 0 35 0;
#X connect 35 0 20 0;
#X connect 35 1 36 0;
#X connect 36 0 21 0;
#X connect 36 1 22 0;
#X connect 39 0 8 0;
#X restore 556 -903 pd markov.chain2;
#N canvas 1056 522 450 301 markov.chain3 0;
#X obj 82 213 bng 15 250 50 0 empty empty empty 20 8 0 8 #fcfcfc #000000
#000000;
#X obj 82 319 bng 15 250 50 0 empty empty empty 20 8 0 8 #fcfcfc #000000
#000000;
#X obj 127 319 bng 15 250 50 0 empty empty empty 20 8 0 8 #fcfcfc #000000
#000000;
#X obj 172 319 bng 15 250 50 0 empty empty empty 20 8 0 8 #fcfcfc #000000
#000000;
#X msg 82 339 1;
#X msg 127 339 2;
#X msg 172 339 3;
#X obj 82 379 s state;
#X obj 82 104 bng 20 250 50 0 empty empty empty 20 8 0 8 #fcfcfc #000000
#000000;
#X obj 212 64 r state;
#X obj 82 166 sel 1 2 3;
#X obj 224 213 bng 15 250 50 0 empty empty empty 20 8 0 8 #fcfcfc #000000
#000000;
#X obj 224 319 bng 15 250 50 0 empty empty empty 20 8 0 8 #fcfcfc #000000
#000000;
#X obj 269 319 bng 15 250 50 0 empty empty empty 20 8 0 8 #fcfcfc #000000
#000000;
#X obj 314 319 bng 15 250 50 0 empty empty empty 20 8 0 8 #fcfcfc #000000
#000000;
#X msg 224 339 1;
#X msg 269 339 2;
#X msg 314 339 3;
#X obj 224 379 s state;
#X obj 371 213 bng 15 250 50 0 empty empty empty 20 8 0 8 #fcfcfc #000000
#000000;
#X obj 371 319 bng 15 250 50 0 empty empty empty 20 8 0 8 #fcfcfc #000000
#000000;
#X obj 416 319 bng 15 250 50 0 empty empty empty 20 8 0 8 #fcfcfc #000000
#000000;
#X obj 461 319 bng 15 250 50 0 empty empty empty 20 8 0 8 #fcfcfc #000000
#000000;
#X msg 371 339 1;
#X msg 416 339 2;
#X msg 461 339 3;
#X obj 371 379 s state;
#X obj 82 140 f 1;
#X obj 82 238 random 100;
#X obj 82 265 moses 30;
#X obj 127 292 moses 60;
#X obj 224 237 random 100;
#X obj 224 265 moses 10;
#X obj 269 292 moses 60;
#X obj 371 237 random 100;
#X obj 371 265 moses 70;
#X obj 416 292 moses 80;
#X text 112 64 STEP;
#X obj 212 94 outlet;
#X obj 72 64 inlet;
#X connect 0 0 28 0;
#X connect 1 0 4 0;
#X connect 2 0 5 0;
#X connect 3 0 6 0;
#X connect 4 0 7 0;
#X connect 5 0 7 0;
#X connect 6 0 7 0;
#X connect 8 0 27 0;
#X connect 9 0 27 1;
#X connect 9 0 38 0;
#X connect 10 0 0 0;
#X connect 10 1 11 0;
#X connect 10 2 19 0;
#X connect 11 0 31 0;
#X connect 12 0 15 0;
#X connect 13 0 16 0;
#X connect 14 0 17 0;
#X connect 15 0 18 0;
#X connect 16 0 18 0;
#X connect 17 0 18 0;
#X connect 19 0 34 0;
#X connect 20 0 23 0;
#X connect 21 0 24 0;
#X connect 22 0 25 0;
#X connect 23 0 26 0;
#X connect 24 0 26 0;
#X connect 25 0 26 0;
#X connect 27 0 10 0;
#X connect 28 0 29 0;
#X connect 29 0 1 0;
#X connect 29 1 30 0;
#X connect 30 0 2 0;
#X connect 30 1 3 0;
#X connect 31 0 32 0;
#X connect 32 0 12 0;
#X connect 32 1 33 0;
#X connect 33 0 13 0;
#X connect 33 1 14 0;
#X connect 34 0 35 0;
#X connect 35 0 20 0;
#X connect 35 1 36 0;
#X connect 36 0 21 0;
#X connect 36 1 22 0;
#X connect 39 0 8 0;
#X restore 807 -879 pd markov.chain3;
#N canvas 1056 522 450 301 markov.chain4 0;
#X obj 82 213 bng 15 250 50 0 empty empty empty 20 8 0 8 #fcfcfc #000000
#000000;
#X obj 82 319 bng 15 250 50 0 empty empty empty 20 8 0 8 #fcfcfc #000000
#000000;
#X obj 127 319 bng 15 250 50 0 empty empty empty 20 8 0 8 #fcfcfc #000000
#000000;
#X obj 172 319 bng 15 250 50 0 empty empty empty 20 8 0 8 #fcfcfc #000000
#000000;
#X msg 82 339 1;
#X msg 127 339 2;
#X msg 172 339 3;
#X obj 82 379 s state;
#X obj 82 104 bng 20 250 50 0 empty empty empty 20 8 0 8 #fcfcfc #000000
#000000;
#X obj 212 64 r state;
#X obj 82 166 sel 1 2 3;
#X obj 224 213 bng 15 250 50 0 empty empty empty 20 8 0 8 #fcfcfc #000000
#000000;
#X obj 224 319 bng 15 250 50 0 empty empty empty 20 8 0 8 #fcfcfc #000000
#000000;
#X obj 269 319 bng 15 250 50 0 empty empty empty 20 8 0 8 #fcfcfc #000000
#000000;
#X obj 314 319 bng 15 250 50 0 empty empty empty 20 8 0 8 #fcfcfc #000000
#000000;
#X msg 224 339 1;
#X msg 269 339 2;
#X msg 314 339 3;
#X obj 224 379 s state;
#X obj 371 213 bng 15 250 50 0 empty empty empty 20 8 0 8 #fcfcfc #000000
#000000;
#X obj 371 319 bng 15 250 50 0 empty empty empty 20 8 0 8 #fcfcfc #000000
#000000;
#X obj 416 319 bng 15 250 50 0 empty empty empty 20 8 0 8 #fcfcfc #000000
#000000;
#X obj 461 319 bng 15 250 50 0 empty empty empty 20 8 0 8 #fcfcfc #000000
#000000;
#X msg 371 339 1;
#X msg 416 339 2;
#X msg 461 339 3;
#X obj 371 379 s state;
#X obj 82 140 f 1;
#X obj 82 238 random 100;
#X obj 82 265 moses 30;
#X obj 127 292 moses 60;
#X obj 224 237 random 100;
#X obj 224 265 moses 10;
#X obj 269 292 moses 60;
#X obj 371 237 random 100;
#X obj 371 265 moses 70;
#X obj 416 292 moses 80;
#X text 112 64 STEP;
#X obj 212 94 outlet;
#X obj 72 64 inlet;
#X connect 0 0 28 0;
#X connect 1 0 4 0;
#X connect 2 0 5 0;
#X connect 3 0 6 0;
#X connect 4 0 7 0;
#X connect 5 0 7 0;
#X connect 6 0 7 0;
#X connect 8 0 27 0;
#X connect 9 0 27 1;
#X connect 9 0 38 0;
#X connect 10 0 0 0;
#X connect 10 1 11 0;
#X connect 10 2 19 0;
#X connect 11 0 31 0;
#X connect 12 0 15 0;
#X connect 13 0 16 0;
#X connect 14 0 17 0;
#X connect 15 0 18 0;
#X connect 16 0 18 0;
#X connect 17 0 18 0;
#X connect 19 0 34 0;
#X connect 20 0 23 0;
#X connect 21 0 24 0;
#X connect 22 0 25 0;
#X connect 23 0 26 0;
#X connect 24 0 26 0;
#X connect 25 0 26 0;
#X connect 27 0 10 0;
#X connect 28 0 29 0;
#X connect 29 0 1 0;
#X connect 29 1 30 0;
#X connect 30 0 2 0;
#X connect 30 1 3 0;
#X connect 31 0 32 0;
#X connect 32 0 12 0;
#X connect 32 1 33 0;
#X connect 33 0 13 0;
#X connect 33 1 14 0;
#X connect 34 0 35 0;
#X connect 35 0 20 0;
#X connect 35 1 36 0;
#X connect 36 0 21 0;
#X connect 36 1 22 0;
#X connect 39 0 8 0;
#X restore 1171 -938 pd markov.chain4;
#N canvas 1056 522 450 301 markov.chain5 0;
#X obj 82 213 bng 15 250 50 0 empty empty empty 20 8 0 8 #fcfcfc #000000
#000000;
#X obj 82 319 bng 15 250 50 0 empty empty empty 20 8 0 8 #fcfcfc #000000
#000000;
#X obj 127 319 bng 15 250 50 0 empty empty empty 20 8 0 8 #fcfcfc #000000
#000000;
#X obj 172 319 bng 15 250 50 0 empty empty empty 20 8 0 8 #fcfcfc #000000
#000000;
#X msg 82 339 1;
#X msg 127 339 2;
#X msg 172 339 3;
#X obj 82 379 s state;
#X obj 82 104 bng 20 250 50 0 empty empty empty 20 8 0 8 #fcfcfc #000000
#000000;
#X obj 212 64 r state;
#X obj 82 166 sel 1 2 3;
#X obj 224 213 bng 15 250 50 0 empty empty empty 20 8 0 8 #fcfcfc #000000
#000000;
#X obj 224 319 bng 15 250 50 0 empty empty empty 20 8 0 8 #fcfcfc #000000
#000000;
#X obj 269 319 bng 15 250 50 0 empty empty empty 20 8 0 8 #fcfcfc #000000
#000000;
#X obj 314 319 bng 15 250 50 0 empty empty empty 20 8 0 8 #fcfcfc #000000
#000000;
#X msg 224 339 1;
#X msg 269 339 2;
#X msg 314 339 3;
#X obj 224 379 s state;
#X obj 371 213 bng 15 250 50 0 empty empty empty 20 8 0 8 #fcfcfc #000000
#000000;
#X obj 371 319 bng 15 250 50 0 empty empty empty 20 8 0 8 #fcfcfc #000000
#000000;
#X obj 416 319 bng 15 250 50 0 empty empty empty 20 8 0 8 #fcfcfc #000000
#000000;
#X obj 461 319 bng 15 250 50 0 empty empty empty 20 8 0 8 #fcfcfc #000000
#000000;
#X msg 371 339 1;
#X msg 416 339 2;
#X msg 461 339 3;
#X obj 371 379 s state;
#X obj 82 140 f 1;
#X obj 82 238 random 100;
#X obj 82 265 moses 30;
#X obj 127 292 moses 60;
#X obj 224 237 random 100;
#X obj 224 265 moses 10;
#X obj 269 292 moses 60;
#X obj 371 237 random 100;
#X obj 371 265 moses 70;
#X obj 416 292 moses 80;
#X text 112 64 STEP;
#X obj 212 94 outlet;
#X obj 72 64 inlet;
#X connect 0 0 28 0;
#X connect 1 0 4 0;
#X connect 2 0 5 0;
#X connect 3 0 6 0;
#X connect 4 0 7 0;
#X connect 5 0 7 0;
#X connect 6 0 7 0;
#X connect 8 0 27 0;
#X connect 9 0 27 1;
#X connect 9 0 38 0;
#X connect 10 0 0 0;
#X connect 10 1 11 0;
#X connect 10 2 19 0;
#X connect 11 0 31 0;
#X connect 12 0 15 0;
#X connect 13 0 16 0;
#X connect 14 0 17 0;
#X connect 15 0 18 0;
#X connect 16 0 18 0;
#X connect 17 0 18 0;
#X connect 19 0 34 0;
#X connect 20 0 23 0;
#X connect 21 0 24 0;
#X connect 22 0 25 0;
#X connect 23 0 26 0;
#X connect 24 0 26 0;
#X connect 25 0 26 0;
#X connect 27 0 10 0;
#X connect 28 0 29 0;
#X connect 29 0 1 0;
#X connect 29 1 30 0;
#X connect 30 0 2 0;
#X connect 30 1 3 0;
#X connect 31 0 32 0;
#X connect 32 0 12 0;
#X connect 32 1 33 0;
#X connect 33 0 13 0;
#X connect 33 1 14 0;
#X connect 34 0 35 0;
#X connect 35 0 20 0;
#X connect 35 1 36 0;
#X connect 36 0 21 0;
#X connect 36 1 22 0;
#X connect 39 0 8 0;
#X restore 349 -335 pd markov.chain5;
#N canvas 1056 522 450 301 markov.chain6 0;
#X obj 82 213 bng 15 250 50 0 empty empty empty 20 8 0 8 #fcfcfc #000000
#000000;
#X obj 82 319 bng 15 250 50 0 empty empty empty 20 8 0 8 #fcfcfc #000000
#000000;
#X obj 127 319 bng 15 250 50 0 empty empty empty 20 8 0 8 #fcfcfc #000000
#000000;
#X obj 172 319 bng 15 250 50 0 empty empty empty 20 8 0 8 #fcfcfc #000000
#000000;
#X msg 82 339 1;
#X msg 127 339 2;
#X msg 172 339 3;
#X obj 82 379 s state;
#X obj 82 104 bng 20 250 50 0 empty empty empty 20 8 0 8 #fcfcfc #000000
#000000;
#X obj 212 64 r state;
#X obj 82 166 sel 1 2 3;
#X obj 224 213 bng 15 250 50 0 empty empty empty 20 8 0 8 #fcfcfc #000000
#000000;
#X obj 224 319 bng 15 250 50 0 empty empty empty 20 8 0 8 #fcfcfc #000000
#000000;
#X obj 269 319 bng 15 250 50 0 empty empty empty 20 8 0 8 #fcfcfc #000000
#000000;
#X obj 314 319 bng 15 250 50 0 empty empty empty 20 8 0 8 #fcfcfc #000000
#000000;
#X msg 224 339 1;
#X msg 269 339 2;
#X msg 314 339 3;
#X obj 224 379 s state;
#X obj 371 213 bng 15 250 50 0 empty empty empty 20 8 0 8 #fcfcfc #000000
#000000;
#X obj 371 319 bng 15 250 50 0 empty empty empty 20 8 0 8 #fcfcfc #000000
#000000;
#X obj 416 319 bng 15 250 50 0 empty empty empty 20 8 0 8 #fcfcfc #000000
#000000;
#X obj 461 319 bng 15 250 50 0 empty empty empty 20 8 0 8 #fcfcfc #000000
#000000;
#X msg 371 339 1;
#X msg 416 339 2;
#X msg 461 339 3;
#X obj 371 379 s state;
#X obj 82 140 f 1;
#X obj 82 238 random 100;
#X obj 82 265 moses 30;
#X obj 127 292 moses 60;
#X obj 224 237 random 100;
#X obj 224 265 moses 10;
#X obj 269 292 moses 60;
#X obj 371 237 random 100;
#X obj 371 265 moses 70;
#X obj 416 292 moses 80;
#X text 112 64 STEP;
#X obj 212 94 outlet;
#X obj 72 64 inlet;
#X connect 0 0 28 0;
#X connect 1 0 4 0;
#X connect 2 0 5 0;
#X connect 3 0 6 0;
#X connect 4 0 7 0;
#X connect 5 0 7 0;
#X connect 6 0 7 0;
#X connect 8 0 27 0;
#X connect 9 0 27 1;
#X connect 9 0 38 0;
#X connect 10 0 0 0;
#X connect 10 1 11 0;
#X connect 10 2 19 0;
#X connect 11 0 31 0;
#X connect 12 0 15 0;
#X connect 13 0 16 0;
#X connect 14 0 17 0;
#X connect 15 0 18 0;
#X connect 16 0 18 0;
#X connect 17 0 18 0;
#X connect 19 0 34 0;
#X connect 20 0 23 0;
#X connect 21 0 24 0;
#X connect 22 0 25 0;
#X connect 23 0 26 0;
#X connect 24 0 26 0;
#X connect 25 0 26 0;
#X connect 27 0 10 0;
#X connect 28 0 29 0;
#X connect 29 0 1 0;
#X connect 29 1 30 0;
#X connect 30 0 2 0;
#X connect 30 1 3 0;
#X connect 31 0 32 0;
#X connect 32 0 12 0;
#X connect 32 1 33 0;
#X connect 33 0 13 0;
#X connect 33 1 14 0;
#X connect 34 0 35 0;
#X connect 35 0 20 0;
#X connect 35 1 36 0;
#X connect 36 0 21 0;
#X connect 36 1 22 0;
#X connect 39 0 8 0;
#X restore 639 -349 pd markov.chain6;
#N canvas 1056 522 450 301 markov.chain8 0;
#X obj 82 213 bng 15 250 50 0 empty empty empty 20 8 0 8 #fcfcfc #000000
#000000;
#X obj 82 319 bng 15 250 50 0 empty empty empty 20 8 0 8 #fcfcfc #000000
#000000;
#X obj 127 319 bng 15 250 50 0 empty empty empty 20 8 0 8 #fcfcfc #000000
#000000;
#X obj 172 319 bng 15 250 50 0 empty empty empty 20 8 0 8 #fcfcfc #000000
#000000;
#X msg 82 339 1;
#X msg 127 339 2;
#X msg 172 339 3;
#X obj 82 379 s state;
#X obj 82 104 bng 20 250 50 0 empty empty empty 20 8 0 8 #fcfcfc #000000
#000000;
#X obj 212 64 r state;
#X obj 82 166 sel 1 2 3;
#X obj 224 213 bng 15 250 50 0 empty empty empty 20 8 0 8 #fcfcfc #000000
#000000;
#X obj 224 319 bng 15 250 50 0 empty empty empty 20 8 0 8 #fcfcfc #000000
#000000;
#X obj 269 319 bng 15 250 50 0 empty empty empty 20 8 0 8 #fcfcfc #000000
#000000;
#X obj 314 319 bng 15 250 50 0 empty empty empty 20 8 0 8 #fcfcfc #000000
#000000;
#X msg 224 339 1;
#X msg 269 339 2;
#X msg 314 339 3;
#X obj 224 379 s state;
#X obj 371 213 bng 15 250 50 0 empty empty empty 20 8 0 8 #fcfcfc #000000
#000000;
#X obj 371 319 bng 15 250 50 0 empty empty empty 20 8 0 8 #fcfcfc #000000
#000000;
#X obj 416 319 bng 15 250 50 0 empty empty empty 20 8 0 8 #fcfcfc #000000
#000000;
#X obj 461 319 bng 15 250 50 0 empty empty empty 20 8 0 8 #fcfcfc #000000
#000000;
#X msg 371 339 1;
#X msg 416 339 2;
#X msg 461 339 3;
#X obj 371 379 s state;
#X obj 82 140 f 1;
#X obj 82 238 random 100;
#X obj 82 265 moses 30;
#X obj 127 292 moses 60;
#X obj 224 237 random 100;
#X obj 224 265 moses 10;
#X obj 269 292 moses 60;
#X obj 371 237 random 100;
#X obj 371 265 moses 70;
#X obj 416 292 moses 80;
#X text 112 64 STEP;
#X obj 212 94 outlet;
#X obj 72 64 inlet;
#X connect 0 0 28 0;
#X connect 1 0 4 0;
#X connect 2 0 5 0;
#X connect 3 0 6 0;
#X connect 4 0 7 0;
#X connect 5 0 7 0;
#X connect 6 0 7 0;
#X connect 8 0 27 0;
#X connect 9 0 27 1;
#X connect 9 0 38 0;
#X connect 10 0 0 0;
#X connect 10 1 11 0;
#X connect 10 2 19 0;
#X connect 11 0 31 0;
#X connect 12 0 15 0;
#X connect 13 0 16 0;
#X connect 14 0 17 0;
#X connect 15 0 18 0;
#X connect 16 0 18 0;
#X connect 17 0 18 0;
#X connect 19 0 34 0;
#X connect 20 0 23 0;
#X connect 21 0 24 0;
#X connect 22 0 25 0;
#X connect 23 0 26 0;
#X connect 24 0 26 0;
#X connect 25 0 26 0;
#X connect 27 0 10 0;
#X connect 28 0 29 0;
#X connect 29 0 1 0;
#X connect 29 1 30 0;
#X connect 30 0 2 0;
#X connect 30 1 3 0;
#X connect 31 0 32 0;
#X connect 32 0 12 0;
#X connect 32 1 33 0;
#X connect 33 0 13 0;
#X connect 33 1 14 0;
#X connect 34 0 35 0;
#X connect 35 0 20 0;
#X connect 35 1 36 0;
#X connect 36 0 21 0;
#X connect 36 1 22 0;
#X connect 39 0 8 0;
#X restore 1139 -391 pd markov.chain8;
#N canvas 1056 522 450 301 markov.chain7 0;
#X obj 82 213 bng 15 250 50 0 empty empty empty 20 8 0 8 #fcfcfc #000000
#000000;
#X obj 82 319 bng 15 250 50 0 empty empty empty 20 8 0 8 #fcfcfc #000000
#000000;
#X obj 127 319 bng 15 250 50 0 empty empty empty 20 8 0 8 #fcfcfc #000000
#000000;
#X obj 172 319 bng 15 250 50 0 empty empty empty 20 8 0 8 #fcfcfc #000000
#000000;
#X msg 82 339 1;
#X msg 127 339 2;
#X msg 172 339 3;
#X obj 82 379 s state;
#X obj 82 104 bng 20 250 50 0 empty empty empty 20 8 0 8 #fcfcfc #000000
#000000;
#X obj 212 64 r state;
#X obj 82 166 sel 1 2 3;
#X obj 224 213 bng 15 250 50 0 empty empty empty 20 8 0 8 #fcfcfc #000000
#000000;
#X obj 224 319 bng 15 250 50 0 empty empty empty 20 8 0 8 #fcfcfc #000000
#000000;
#X obj 269 319 bng 15 250 50 0 empty empty empty 20 8 0 8 #fcfcfc #000000
#000000;
#X obj 314 319 bng 15 250 50 0 empty empty empty 20 8 0 8 #fcfcfc #000000
#000000;
#X msg 224 339 1;
#X msg 269 339 2;
#X msg 314 339 3;
#X obj 224 379 s state;
#X obj 371 213 bng 15 250 50 0 empty empty empty 20 8 0 8 #fcfcfc #000000
#000000;
#X obj 371 319 bng 15 250 50 0 empty empty empty 20 8 0 8 #fcfcfc #000000
#000000;
#X obj 416 319 bng 15 250 50 0 empty empty empty 20 8 0 8 #fcfcfc #000000
#000000;
#X obj 461 319 bng 15 250 50 0 empty empty empty 20 8 0 8 #fcfcfc #000000
#000000;
#X msg 371 339 1;
#X msg 416 339 2;
#X msg 461 339 3;
#X obj 371 379 s state;
#X obj 82 140 f 1;
#X obj 82 238 random 100;
#X obj 82 265 moses 30;
#X obj 127 292 moses 60;
#X obj 224 237 random 100;
#X obj 224 265 moses 10;
#X obj 269 292 moses 60;
#X obj 371 237 random 100;
#X obj 371 265 moses 70;
#X obj 416 292 moses 80;
#X text 112 64 STEP;
#X obj 212 94 outlet;
#X obj 72 64 inlet;
#X connect 0 0 28 0;
#X connect 1 0 4 0;
#X connect 2 0 5 0;
#X connect 3 0 6 0;
#X connect 4 0 7 0;
#X connect 5 0 7 0;
#X connect 6 0 7 0;
#X connect 8 0 27 0;
#X connect 9 0 27 1;
#X connect 9 0 38 0;
#X connect 10 0 0 0;
#X connect 10 1 11 0;
#X connect 10 2 19 0;
#X connect 11 0 31 0;
#X connect 12 0 15 0;
#X connect 13 0 16 0;
#X connect 14 0 17 0;
#X connect 15 0 18 0;
#X connect 16 0 18 0;
#X connect 17 0 18 0;
#X connect 19 0 34 0;
#X connect 20 0 23 0;
#X connect 21 0 24 0;
#X connect 22 0 25 0;
#X connect 23 0 26 0;
#X connect 24 0 26 0;
#X connect 25 0 26 0;
#X connect 27 0 10 0;
#X connect 28 0 29 0;
#X connect 29 0 1 0;
#X connect 29 1 30 0;
#X connect 30 0 2 0;
#X connect 30 1 3 0;
#X connect 31 0 32 0;
#X connect 32 0 12 0;
#X connect 32 1 33 0;
#X connect 33 0 13 0;
#X connect 33 1 14 0;
#X connect 34 0 35 0;
#X connect 35 0 20 0;
#X connect 35 1 36 0;
#X connect 36 0 21 0;
#X connect 36 1 22 0;
#X connect 39 0 8 0;
#X restore 889 -370 pd markov.chain7;
#X floatatom 1667 -1083 5 0 0 0 - chime_vel1 -, f 5;
#X floatatom 1848 -1085 5 0 0 0 - chime_vel2 -, f 5;
#X floatatom 2160 -1084 5 0 0 0 - chime_vel4 -, f 5;
#X floatatom 1649 -675 5 0 0 0 - chime_vel5 -, f 5;
#X floatatom 1798 -673 5 0 0 0 - chime_vel6 -, f 5;
#X floatatom 1957 -669 5 0 0 0 - chime_vel7 -, f 5;
#X floatatom 2121 -668 5 0 0 0 - chime_vel8 -, f 5;
#X floatatom 2013 -1084 5 0 0 0 - chime_vel3 -, f 5;
#X msg 1240 -868 2;
#X msg 1188 -312 2;
#X obj 1785 -556 outlet~;
#X obj 1768 -733 hsl 273 16 0 1 0 0 empty mix_chimes Volume -43 3 0
10 #ff605b #000000 #ffffff 0 1;
#X obj 1789 -587 *~;
#X obj 2030 -1480 r r_atmPressure;
#X obj 1910 -1480 r r_seaPressure;
#X obj 1650 -1480 r r_lightSensitivity;
#X floatatom 2030 -1451 10 0 0 0 - - -, f 10;
#X floatatom 1910 -1451 10 0 0 0 - - -, f 10;
#X floatatom 1650 -1451 10 0 0 0 - - -, f 10;
#X text 2020 -1420 1 atm 101.325 Pa;
#X text 1580 -1510 Wide range and high resolution (1 - 65535 lx);
#X floatatom 1650 -1351 7 0 0 0 - - -, f 7;
#X text 1650 -1400 map to velocity;
#X obj 1670 -1290 change;
#X floatatom 1980 -1260 9 0 0 0 - - -, f 9;
#X obj 1980 -1420 -;
#X floatatom 1980 -1391 10 0 0 0 - - -, f 10;
#X text 1950 -1510 pressure difference;
#X obj 1980 -1320 maxlib/scale -50 50 0 1;
#X obj 1980 -1290 change;
#X obj 1650 -1380 maxlib/scale 1 65535 40 127;
#X text 1980 -1350 map to volume 0 1;
#X connect 1 0 18 0;
#X connect 1 1 2 0;
#X connect 1 2 43 0;
#X connect 2 0 113 0;
#X connect 3 0 102 0;
#X connect 4 0 75 0;
#X connect 4 1 16 0;
#X connect 4 2 17 0;
#X connect 5 0 103 0;
#X connect 6 0 12 0;
#X connect 6 1 13 0;
#X connect 6 2 14 0;
#X connect 7 0 104 0;
#X connect 8 0 9 0;
#X connect 8 1 15 0;
#X connect 8 2 160 0;
#X connect 9 0 116 0;
#X connect 10 0 11 0;
#X connect 11 0 105 0;
#X connect 12 0 115 0;
#X connect 13 0 115 0;
#X connect 14 0 115 0;
#X connect 15 0 116 0;
#X connect 16 0 114 0;
#X connect 17 0 114 0;
#X connect 18 0 113 0;
#X connect 19 0 28 0;
#X connect 19 1 76 0;
#X connect 19 2 29 0;
#X connect 20 0 106 0;
#X connect 21 0 30 0;
#X connect 21 1 42 0;
#X connect 21 2 31 0;
#X connect 22 0 107 0;
#X connect 23 0 32 0;
#X connect 23 1 73 0;
#X connect 23 2 74 0;
#X connect 24 0 108 0;
#X connect 25 0 26 0;
#X connect 25 1 161 0;
#X connect 25 2 35 0;
#X connect 26 0 127 0;
#X connect 27 0 109 0;
#X connect 28 0 121 1;
#X connect 29 0 121 1;
#X connect 30 0 123 0;
#X connect 31 0 123 0;
#X connect 32 0 125 0;
#X connect 35 0 127 0;
#X connect 42 0 123 0;
#X connect 44 0 45 0;
#X connect 46 0 3 0;
#X connect 47 0 5 0;
#X connect 48 0 20 0;
#X connect 49 0 22 0;
#X connect 50 0 24 0;
#X connect 51 0 27 0;
#X connect 52 0 61 0;
#X connect 53 0 62 0;
#X connect 54 0 63 0;
#X connect 55 0 64 0;
#X connect 56 0 68 0;
#X connect 57 0 67 0;
#X connect 58 0 66 0;
#X connect 59 0 65 0;
#X connect 60 0 7 0;
#X connect 61 0 46 1;
#X connect 62 0 47 1;
#X connect 63 0 60 1;
#X connect 64 0 10 1;
#X connect 65 0 51 1;
#X connect 66 0 50 1;
#X connect 67 0 49 1;
#X connect 68 0 48 1;
#X connect 69 0 64 1;
#X connect 69 0 65 1;
#X connect 69 0 63 1;
#X connect 69 0 66 1;
#X connect 69 0 62 1;
#X connect 69 0 67 1;
#X connect 69 0 68 1;
#X connect 69 0 61 1;
#X connect 69 0 106 1;
#X connect 69 0 107 1;
#X connect 69 0 108 1;
#X connect 69 0 109 1;
#X connect 71 0 70 0;
#X connect 73 0 125 0;
#X connect 74 0 125 0;
#X connect 75 0 114 0;
#X connect 76 0 121 1;
#X connect 77 0 46 0;
#X connect 77 0 47 0;
#X connect 77 0 60 0;
#X connect 77 0 10 0;
#X connect 77 0 48 0;
#X connect 77 0 49 0;
#X connect 77 0 50 0;
#X connect 77 0 51 0;
#X connect 78 0 77 1;
#X connect 78 0 100 0;
#X connect 79 0 164 0;
#X connect 80 0 164 0;
#X connect 81 0 164 0;
#X connect 82 0 164 0;
#X connect 83 0 164 0;
#X connect 84 0 164 0;
#X connect 85 0 164 0;
#X connect 86 0 164 0;
#X connect 87 0 79 0;
#X connect 88 0 80 0;
#X connect 89 0 81 0;
#X connect 90 0 82 0;
#X connect 91 0 83 0;
#X connect 92 0 84 0;
#X connect 93 0 85 0;
#X connect 94 0 86 0;
#X connect 95 0 96 0;
#X connect 96 0 97 0;
#X connect 97 0 78 0;
#X connect 99 0 77 0;
#X connect 99 0 98 0;
#X connect 102 0 117 0;
#X connect 102 0 136 0;
#X connect 103 0 118 0;
#X connect 103 0 137 0;
#X connect 104 0 119 0;
#X connect 104 0 138 0;
#X connect 105 0 120 0;
#X connect 105 0 139 0;
#X connect 106 0 121 0;
#X connect 106 0 140 0;
#X connect 107 0 122 0;
#X connect 107 0 141 0;
#X connect 108 0 124 0;
#X connect 108 0 142 0;
#X connect 109 0 126 0;
#X connect 109 0 143 0;
#X connect 110 0 111 0;
#X connect 112 0 102 1;
#X connect 112 0 103 1;
#X connect 112 0 104 1;
#X connect 112 0 105 1;
#X connect 113 0 117 1;
#X connect 114 0 118 1;
#X connect 115 0 119 1;
#X connect 116 0 120 1;
#X connect 117 0 33 0;
#X connect 118 0 34 0;
#X connect 119 0 36 0;
#X connect 120 0 37 0;
#X connect 121 0 38 0;
#X connect 122 0 39 0;
#X connect 123 0 122 1;
#X connect 124 0 40 0;
#X connect 125 0 124 1;
#X connect 126 0 41 0;
#X connect 127 0 126 1;
#X connect 128 0 79 1;
#X connect 128 0 79 2;
#X connect 129 0 80 2;
#X connect 130 0 81 2;
#X connect 131 0 82 2;
#X connect 132 0 83 2;
#X connect 133 0 84 2;
#X connect 134 0 85 2;
#X connect 135 0 86 2;
#X connect 136 0 144 0;
#X connect 137 0 145 0;
#X connect 138 0 146 0;
#X connect 139 0 147 0;
#X connect 140 0 148 0;
#X connect 141 0 149 0;
#X connect 142 0 151 0;
#X connect 143 0 150 0;
#X connect 144 0 1 0;
#X connect 145 0 4 0;
#X connect 146 0 6 0;
#X connect 147 0 8 0;
#X connect 148 0 19 0;
#X connect 149 0 21 0;
#X connect 150 0 25 0;
#X connect 151 0 23 0;
#X connect 152 0 79 1;
#X connect 152 0 79 2;
#X connect 153 0 80 1;
#X connect 154 0 82 1;
#X connect 155 0 83 1;
#X connect 156 0 84 1;
#X connect 157 0 85 1;
#X connect 158 0 86 1;
#X connect 159 0 81 1;
#X connect 160 0 116 0;
#X connect 161 0 127 0;
#X connect 163 0 164 1;
#X connect 164 0 162 0;
#X connect 165 0 168 0;
#X connect 166 0 169 0;
#X connect 167 0 170 0;
#X connect 168 0 177 1;
#X connect 169 0 177 0;
#X connect 170 0 182 0;
#X connect 173 0 175 0;
#X connect 175 0 79 1;
#X connect 175 0 81 1;
#X connect 175 0 80 1;
#X connect 175 0 82 1;
#X connect 175 0 83 1;
#X connect 175 0 84 1;
#X connect 175 0 85 1;
#X connect 175 0 86 1;
#X connect 176 0 79 2;
#X connect 176 0 81 2;
#X connect 176 0 80 2;
#X connect 176 0 82 2;
#X connect 176 0 83 2;
#X connect 176 0 84 2;
#X connect 176 0 85 2;
#X connect 176 0 86 2;
#X connect 177 0 178 0;
#X connect 178 0 180 0;
#X connect 180 0 181 0;
#X connect 181 0 176 0;
#X connect 182 0 173 0;
#X coords 0 -1 1 1 602 227 1 1588 -1062;
