#N canvas 0 0 2546 1338 12;
#X obj 850 90 tgl 86 0 empty empty Start\ Generating -2 -13 0 12 #ff7e79
#000000 #000000 1 1;
#X obj 870 180 s toggle;
#X obj 1030 90 bng 90 250 50 0 empty empty Randomize 1 -13 0 12 #ffd479
#d2ffe9 #000000;
#X obj 700 170 s randomize;
#X obj 1110 60 r scl_change;
#X obj 360 180 catch~ reverbChn1;
#X obj 560 180 catch~ reverbChn2;
#X obj 1410 210 cnv 15 521 523 empty empty fx_section 22 29 0 30 #005493
#000000 0;
#X obj 1590 450 delay~;
#X obj 1820 570 throw~ delay_out;
#X obj 1590 570 eq_filters~;
#X obj 1780 350 catch~ out_dry;
#X obj 1597 680 throw~ filtered;
#X obj 1730 690 catch~ vangex;
#X floatatom 1810 670 5 0 0 0 - - -, f 5;
#X obj 1840 700 catch~ seq;
#N canvas 218 334 685 570 filter_ramp 0;
#X obj 234 262 line;
#X floatatom 234 283 5 0 0 0 - - -, f 5;
#X msg 259 226 stop;
#X msg 261 193 42;
#X text 312 170 ramp up over 1000 ms;
#N canvas 0 22 450 300 grain_size 0;
#X obj 83 23 loadbang;
#X msg 83 45 names 20 50 100 250;
#X obj 83 67 outlet;
#X connect 0 0 1 0;
#X connect 1 0 2 0;
#X restore 295 224 pd grain_size;
#X dropdown 295 246 6 1 0 0 - - -, f 6;
#X obj 166 202 delay 100;
#X obj 286 282 maxlib/scale 200 2000 0.7 6;
#X msg 150 173 1500 1500;
#X msg 241 174 200 1500;
#X obj 128 64 inlet;
#X obj 128 104 bng 15 250 50 0 empty empty empty 17 7 0 10 #fcfcfc
#000000 #000000;
#X text 168 92 trigger;
#X obj 228 340 outlet;
#X obj 286 342 outlet;
#X text 294 370 q;
#X text 226 368 freq;
#X connect 0 0 1 0;
#X connect 1 0 8 0;
#X connect 1 0 14 0;
#X connect 2 0 0 0;
#X connect 3 0 0 0;
#X connect 5 0 6 0;
#X connect 6 0 0 2;
#X connect 7 0 10 0;
#X connect 8 0 15 0;
#X connect 9 0 0 0;
#X connect 9 0 7 0;
#X connect 10 0 0 0;
#X connect 11 0 12 0;
#X connect 12 0 9 0;
#X restore 1810 630 pd filter_ramp;
#X obj 1810 600 r all_note_trig;
#X obj 1430 300 rain~;
#X obj 1433 454 throw~ rain1;
#X obj 1750 300 throw~ rain2;
#X obj 1790 380 catch~ sine_looper;
#N canvas 0 25 1680 913 reverb 0;
#X obj 130 310 cnv 15 154 236 empty empty reverb_unit 7 6 0 12 #212121
#73fcd6 0;
#X obj 122 200 wet_dry_output~;
#X obj 170 160 jon~;
#N canvas 67 89 387 608 receive_params 0;
#X msg 58 293 input_diffusion1 \$1;
#X msg 70 349 input_diffusion2 \$1;
#X msg 78 410 decay_diffusion1 \$1;
#X msg 87 469 decay_diffusion2 \$1;
#X msg 33 75 predelay \$1;
#X msg 33 132 bandwidth \$1;
#X msg 33 183 damping \$1;
#X msg 33 238 decay \$1;
#X msg 125 533 excursion \$1;
#X obj 33 547 outlet;
#X obj 33 48 r predelay;
#X obj 33 105 r bandwidth;
#X obj 33 159 r damping;
#X obj 33 213 r decay;
#X obj 58 268 r input_diffusion1;
#X obj 70 322 r input_diffusion2;
#X obj 78 383 r decay_diffusion1;
#X obj 87 442 r decay_diffusion2;
#X obj 125 503 r excursion;
#X connect 0 0 9 0;
#X connect 1 0 9 0;
#X connect 2 0 9 0;
#X connect 3 0 9 0;
#X connect 4 0 9 0;
#X connect 5 0 9 0;
#X connect 6 0 9 0;
#X connect 7 0 9 0;
#X connect 8 0 9 0;
#X connect 10 0 4 0;
#X connect 11 0 5 0;
#X connect 12 0 6 0;
#X connect 13 0 7 0;
#X connect 14 0 0 0;
#X connect 15 0 1 0;
#X connect 16 0 2 0;
#X connect 17 0 3 0;
#X connect 18 0 8 0;
#X restore 220 110 pd receive_params;
#X obj 60 40 catch~ delay_out;
#X obj 50 240 throw~ reverbChn1;
#X obj 240 240 throw~ reverbChn2;
#X obj 20 110 catch~ filtered;
#N canvas 0 50 462 311 dry 0;
#X obj 75 73 inlet;
#X obj 182 45 inlet;
#X obj 77 201 s dry;
#X obj 76 149 * 1;
#X obj 181 79 dbtorms;
#X obj 181 109 t b a;
#X connect 0 0 3 0;
#X connect 1 0 4 0;
#X connect 3 0 2 0;
#X connect 4 0 5 0;
#X connect 5 0 3 0;
#X connect 5 1 3 1;
#X restore 410 80 pd dry;
#X obj 410 59 tgl 15 1 empty empty empty 17 7 0 10 #c4c4fc #000000
#000000 1 1;
#X obj 410 130 tgl 15 1 empty empty empty 17 7 0 10 #c4c4fc #000000
#000000 1 1;
#N canvas 0 50 470 319 wet 0;
#X obj 75 73 inlet;
#X obj 162 43 inlet;
#X obj 76 149 * 1;
#X obj 161 80 dbtorms;
#X obj 77 201 s wet;
#X obj 162 111 t b a;
#X connect 0 0 2 0;
#X connect 1 0 3 0;
#X connect 2 0 4 0;
#X connect 3 0 5 0;
#X connect 5 0 2 0;
#X connect 5 1 2 1;
#X restore 410 150 pd wet;
#X obj 200 40 catch~ rain1;
#X obj 212 64 catch~ rain2;
#N canvas 48 25 1632 928 getSensorParam 0;
#X obj 80 68 r r_atmPressure;
#X obj 330 60 r r_seaPressure;
#X obj 450 60 r r_altitude;
#X obj 68 322 r r_temperature;
#X obj 190 324 r r_humidity;
#X obj 70 190 r r_lightSensitivity;
#X obj 70 471 r r_xAxis;
#X obj 170 471 r r_yAxis;
#X obj 280 470 r r_score;
#X obj 300 320 r r_hours;
#X obj 392 320 r r_minutes;
#X obj 494 320 r r_seconds;
#X text 80 40 bmp180;
#X text 70 300 dth11;
#X text 70 160 gy30;
#X text 80 420 picamera;
#X floatatom 80 97 10 0 0 0 - - -, f 10;
#X floatatom 330 89 10 0 0 0 - - -, f 10;
#X floatatom 450 89 10 0 0 0 - - -, f 10;
#X floatatom 68 351 5 0 0 0 - - -, f 5;
#X floatatom 190 353 5 0 0 0 - - -, f 5;
#X floatatom 70 219 10 0 0 0 - - -, f 10;
#X floatatom 70 500 10 0 0 0 - - -, f 10;
#X floatatom 170 500 10 0 0 0 - - -, f 10;
#X floatatom 280 499 10 0 0 0 - - -, f 10;
#X floatatom 300 349 5 0 0 0 - - -, f 5;
#X floatatom 392 349 5 0 0 0 - - -, f 5;
#X floatatom 494 349 5 0 0 0 - - -, f 5;
#X text 190 70 1 atm 101.325 Pa;
#X connect 0 0 16 0;
#X connect 1 0 17 0;
#X connect 2 0 18 0;
#X connect 3 0 19 0;
#X connect 4 0 20 0;
#X connect 5 0 21 0;
#X connect 6 0 22 0;
#X connect 7 0 23 0;
#X connect 8 0 24 0;
#X connect 9 0 25 0;
#X connect 10 0 26 0;
#X connect 11 0 27 0;
#X restore 410 180 pd getSensorParam;
#X obj 140 340 hsl 128 15 0 100 0 0 dry_gain empty dry\ gain -2 -8
0 10 #0096ff #000000 #73fcd6 12650 1;
#X obj 140 370 hsl 128 15 0 100 0 0 wet_gain empty wet\ gain -2 -8
0 10 #0096ff #000000 #73fcd6 12700 1;
#X obj -20 420 hsl 128 15 0 120 0 0 master_out empty master\ output
-2 -8 0 10 #ff7e79 #000000 #73fcd6 12700 1;
#X obj 240 170 r master_out;
#X obj 450 50 r dry_gain;
#X obj 450 120 r wet_gain;
#X obj 140 460 hsl 128 15 220.5 22050 1 0 param3 param3 damping -2
-8 0 10 #0096ff #000000 #73fcd6 12700 0;
#X floatatom 480 364 10 0 0 0 damping param3 damping, f 10;
#X obj 140 490 hsl 128 15 0 1 0 0 param4 param4 decay -2 -8 0 10 #0096ff
#000000 #73fcd6 6350 0;
#X floatatom 480 395 10 0 0 0 decay param4 decay, f 10;
#X obj 140 400 hsl 128 15 0 250 0 0 param1 param1 predelay -2 -8 0
10 #0096ff #000000 #73fcd6 0 0;
#X floatatom 480 300 10 0 0 0 predelay param1 predelay, f 10;
#X obj 140 430 hsl 128 15 220.5 22050 1 0 param2 param2 bandwidth -2
-8 0 10 #0096ff #000000 #73fcd6 12700 0;
#X floatatom 480 330 10 0 0 0 bandwidth param2 bandwidth, f 10;
#X obj 570 461 hsl 128 15 0 1 0 0 param6 param6 input_diffusion_2 -2
-8 0 10 #0096ff #000000 #000000 7937 0;
#X floatatom 479 463 10 0 0 0 input_diffusion1 param6 input_diffusion2
, f 10;
#X obj 570 430 hsl 128 15 0 1 0 0 param5 param5 input_diffusion_1 -2
-8 0 10 #0096ff #000000 #000000 9525 0;
#X floatatom 480 428 10 0 0 0 input_diffusion1 param5 input_diffusion1
, f 10;
#X obj 568 529 hsl 128 15 0 1 0 0 param8 param8 decay_diffusion_2 -2
-8 0 10 #0096ff #000000 #000000 6350 0;
#X floatatom 480 530 10 0 0 0 decay_diffusion1 param8 decay_diffusion2
, f 10;
#X obj 569 496 hsl 128 15 0 1 0 0 param7 param7 decay_diffusion_1 -2
-8 0 10 #0096ff #000000 #000000 8890 0;
#X floatatom 480 490 10 0 0 0 decay_diffusion1 param7 decay_diffusion1
, f 10;
#X obj 140 520 hsl 128 15 0 5 0 0 param9 param9 excursion -2 -8 0 10
#0096ff #000000 #73fcd6 1366 0;
#X floatatom 480 560 10 0 0 0 excursion param9 excursion, f 10;
#X obj 20 300 loadbang;
#X msg 30 370 120;
#X msg 30 330 100;
#X connect 1 0 5 0;
#X connect 1 1 6 0;
#X connect 2 0 1 1;
#X connect 2 1 1 2;
#X connect 3 0 2 2;
#X connect 4 0 2 1;
#X connect 4 0 2 0;
#X connect 4 0 1 0;
#X connect 7 0 1 0;
#X connect 7 0 2 0;
#X connect 7 0 2 1;
#X connect 9 0 8 0;
#X connect 10 0 11 0;
#X connect 12 0 2 0;
#X connect 13 0 2 1;
#X connect 18 0 1 3;
#X connect 19 0 8 1;
#X connect 20 0 11 1;
#X connect 39 0 40 0;
#X connect 39 0 41 0;
#X connect 40 0 17 0;
#X connect 41 0 15 0;
#X connect 41 0 16 0;
#X coords 0 -1 1 1 158 240 1 128 308;
#X restore 1430 450 pd reverb;
#X obj 700 210 cnv 15 709 525 empty empty instruments 31 27 0 30 #212121
#d4fb79 0;
#N canvas 0 25 1680 913 voiceVangex 0;
#X obj 763 532 s all_note_trig;
#X obj 280 230 cnv 15 444 181 empty empty empty 20 12 0 14 #212121
#404040 0;
#X obj 272 126 r noteLength;
#X obj 290 240 vangex_tape_looper;
#X obj 410 100 note_gen;
#X obj 790 154 r noteLength;
#X obj 440 240 vangex_tape_looper;
#X obj 610 100 note_gen;
#X obj 186 378 r noteLength;
#X obj 290 330 vangex_tape_looper;
#X obj 160 250 note_gen;
#X obj 767 312 r noteLength;
#X obj 440 330 vangex_tape_looper;
#X obj 780 250 note_gen;
#X obj 161 550 r noteLength;
#X obj 590 240 vangex_tape_looper;
#X obj 160 430 note_gen;
#X obj 921 467 r noteLength;
#X obj 590 330 vangex_tape_looper;
#X obj 780 380 note_gen;
#X obj 332 146 r lpLength;
#X obj 710 154 r lpLength;
#X obj 106 378 r lpLength;
#X obj 923 313 r lpLength;
#X obj 65 558 r lpLength;
#X obj 835 472 r lpLength;
#X obj 482 166 r \$0-scale;
#X floatatom 370 193 5 0 0 0 - vangex_mod1 -, f 5;
#X floatatom 413 193 5 0 0 0 - vangex_gain1 -, f 5;
#X floatatom 589 195 5 0 0 0 - vangex_mod2 -, f 5;
#X floatatom 632 195 5 0 0 0 - vangex_gain2 -, f 5;
#X floatatom 141 344 5 0 0 0 - vangex_mod3 -, f 5;
#X floatatom 184 344 5 0 0 0 - vangex_gain3 -, f 5;
#X floatatom 821 336 5 0 0 0 - vangex_mod4 -, f 5;
#X floatatom 864 336 5 0 0 0 - vangex_gain4 -, f 5;
#X floatatom 175 493 5 0 0 0 - vangex_mod5 -, f 5;
#X floatatom 218 493 5 0 0 0 - vangex_gain5 -, f 5;
#X floatatom 789 443 5 0 0 0 - vangex_mod6 -, f 5;
#X floatatom 832 443 5 0 0 0 - vangex_gain6 -, f 5;
#X obj 554 840 outlet~;
#X obj 598 760 hsl 209 13 0 10 0 0 empty mix_vangex Volume -41 3 0
10 #ff7e79 #000000 #000000 416 1;
#X obj 558 809 *~;
#X obj 380 587 *~ 0.16;
#X obj 382 625 *~ 0.16;
#X obj 380 667 *~ 0.16;
#X obj 382 705 *~ 0.16;
#X obj 382 737 *~ 0.16;
#X obj 384 775 *~ 0.16;
#X obj 604 696 loadbang;
#X msg 610 727 0.5;
#X obj 98 76 inlet;
#X text 98 48 toggle;
#X obj 1230 -250 r r_atmPressure;
#X obj 1110 -250 r r_seaPressure;
#X obj 1350 -110 r r_lightSensitivity;
#X floatatom 1230 -221 10 0 0 0 - - -, f 10;
#X floatatom 1110 -221 10 0 0 0 - - -, f 10;
#X floatatom 1350 -81 10 0 0 0 - - -, f 10;
#X text 1220 -190 1 atm 101.325 Pa;
#X text 1280 -140 Wide range and high resolution (1 - 65535 lx);
#X floatatom 1270 19 7 0 0 0 - - -, f 7;
#X obj 1290 50 int;
#X obj 1290 80 change;
#X text 1040 -121 map to gain 0 1;
#X floatatom 1040 -30 9 0 0 0 - - -, f 9;
#X obj 1180 -190 -;
#X floatatom 1180 -161 10 0 0 0 - - -, f 10;
#X text 1150 -280 pressure difference;
#X obj 1040 -61 change;
#X obj 1040 -91 maxlib/scale -50 50 0 10;
#X text 1270 -30 map to harmonic mod;
#X obj 1270 -10 maxlib/scale 1 65535 1 10;
#X connect 2 0 3 3;
#X connect 3 0 42 0;
#X connect 3 1 4 0;
#X connect 3 1 0 0;
#X connect 4 0 3 0;
#X connect 5 0 6 3;
#X connect 6 0 43 0;
#X connect 6 1 7 0;
#X connect 6 1 0 0;
#X connect 7 0 6 0;
#X connect 8 0 9 3;
#X connect 9 0 44 0;
#X connect 9 1 10 0;
#X connect 9 1 0 0;
#X connect 10 0 9 0;
#X connect 11 0 12 3;
#X connect 12 0 45 0;
#X connect 12 1 13 0;
#X connect 12 1 0 0;
#X connect 13 0 12 0;
#X connect 14 0 15 3;
#X connect 15 0 46 0;
#X connect 15 1 16 0;
#X connect 15 1 0 0;
#X connect 16 0 15 0;
#X connect 17 0 18 3;
#X connect 18 0 47 0;
#X connect 18 1 19 0;
#X connect 18 1 0 0;
#X connect 19 0 18 0;
#X connect 20 0 3 2;
#X connect 21 0 6 2;
#X connect 22 0 9 2;
#X connect 23 0 12 2;
#X connect 24 0 15 2;
#X connect 25 0 18 2;
#X connect 26 0 4 1;
#X connect 26 0 7 1;
#X connect 26 0 10 1;
#X connect 26 0 13 1;
#X connect 26 0 16 1;
#X connect 26 0 19 1;
#X connect 27 0 3 4;
#X connect 28 0 3 5;
#X connect 29 0 6 4;
#X connect 30 0 6 5;
#X connect 31 0 9 4;
#X connect 32 0 9 5;
#X connect 33 0 12 4;
#X connect 34 0 12 5;
#X connect 35 0 15 4;
#X connect 36 0 15 5;
#X connect 37 0 18 4;
#X connect 38 0 18 5;
#X connect 40 0 41 1;
#X connect 41 0 39 0;
#X connect 42 0 41 0;
#X connect 43 0 41 0;
#X connect 44 0 41 0;
#X connect 45 0 41 0;
#X connect 46 0 41 0;
#X connect 47 0 41 0;
#X connect 48 0 49 0;
#X connect 49 0 40 0;
#X connect 50 0 3 1;
#X connect 50 0 6 1;
#X connect 50 0 9 1;
#X connect 50 0 12 1;
#X connect 50 0 15 1;
#X connect 50 0 18 1;
#X connect 52 0 55 0;
#X connect 53 0 56 0;
#X connect 54 0 57 0;
#X connect 55 0 65 1;
#X connect 56 0 65 0;
#X connect 57 0 71 0;
#X connect 60 0 61 0;
#X connect 61 0 62 0;
#X connect 62 0 3 4;
#X connect 62 0 6 4;
#X connect 62 0 9 4;
#X connect 62 0 12 4;
#X connect 62 0 15 4;
#X connect 62 0 18 4;
#X connect 64 0 3 5;
#X connect 64 0 6 5;
#X connect 64 0 9 5;
#X connect 64 0 12 5;
#X connect 64 0 15 5;
#X connect 64 0 18 5;
#X connect 65 0 66 0;
#X connect 66 0 69 0;
#X connect 68 0 64 0;
#X connect 69 0 68 0;
#X connect 71 0 60 0;
#X coords 0 -1 1 1 448 186 1 278 228;
#X restore 701 325 pd voiceVangex;
#X obj 1160 240 sine_synths;
#X obj 1390 190 r randomize;
#X obj 1120 510 throw~ sine_looper;
#X obj 700 740 throw~ vangex;
#X obj 1430 750 throw~ out_dry;
#X obj 701 505 8voiceChimes~;
#X obj 1550 750 s bmp;
#X obj 660 750 s bng;
#X obj 1311 525 r \$0-scale;
#X obj 160 210 cnv 15 541 522 empty empty dashboard 10 22 0 30 #000000
#ff9300 0;
#N canvas 0 25 1680 913 master_out 0;
#X obj 570 140 cnv 15 325 179 empty empty empty 20 12 0 14 #424242
#404040 0;
#X obj 790 80 pddp/dsp;
#X obj 475 160 loadbang;
#X msg 440 160 0.5;
#X obj 580 200 hsl 300 18 0 1 0 0 mix_vangex set_mix_vangex vangex_mix
-2 -8 0 10 #c0c0c0 #ff7e79 #ff9300 5980 1;
#X obj 580 230 hsl 300 18 0 1 0 0 mix_noise set_mix_noise noise_mix
-2 -8 0 10 #a9a9a9 #8efa00 #8efa00 14950 1;
#X obj 580 260 hsl 300 18 0 1 0 0 mix_chimes set_mix_chimes chimes_mix
-2 -8 0 10 #929292 #73fdff #00fdff 26910 1;
#X obj 580 290 hsl 300 18 0 1 0 0 mix_sine set_mix_sine sine_mix -2
-8 0 10 #797979 #fffc79 #fffc79 0 1;
#X obj 580 160 hsl 180 24 0.5 1 0 0 empty empty MAIN\ OUTPUT -2 -8
0 10 #ff7e79 #000000 #ff2600 13900 1;
#X obj 420 20 inlet~;
#X obj 494 11 inlet~;
#N canvas 615 25 450 300 out 0;
#X obj 163 56 inlet~;
#X obj 183 213 *~;
#X obj 215 56 inlet~;
#X obj 235 212 *~;
#X obj 163 98 hip~ 3;
#X obj 215 97 hip~ 3;
#X obj 52 221 block~ 64;
#X obj 269 54 inlet;
#X obj 308 288 outlet;
#X obj 235 289 outlet~;
#X obj 183 288 outlet~;
#X obj 308 256 r \$0-slider;
#N canvas 627 117 614 293 set_GUI 0;
#X obj 66 243 s \$0-set-slider;
#X obj 98 18 inlet;
#X obj 66 209 clip 0 1;
#X obj 129 209 s \$0-dsp-toggle-set;
#X msg 160 182 0;
#X msg 129 179 1;
#X obj 223 159 s \$0-dac;
#X obj 254 137 s \$0-mode;
#X obj 318 165 s \$0-max_gain;
#X obj 318 119 moses 0;
#X obj 318 97 * -1;
#X obj 318 141 * -1;
#X obj 98 52 route float on off mute dac mode gain ramp;
#X obj 376 105 s \$0-ramp;
#X obj 376 84 max 5;
#X obj 191 182 s \$0-mute;
#X connect 1 0 12 0;
#X connect 2 0 0 0;
#X connect 4 0 3 0;
#X connect 5 0 3 0;
#X connect 9 0 11 0;
#X connect 10 0 9 0;
#X connect 11 0 8 0;
#X connect 12 0 2 0;
#X connect 12 1 5 0;
#X connect 12 2 4 0;
#X connect 12 3 15 0;
#X connect 12 4 6 0;
#X connect 12 5 7 0;
#X connect 12 6 10 0;
#X connect 12 7 14 0;
#X connect 14 0 13 0;
#X restore 269 97 pd set_GUI;
#X obj 215 166 *~;
#X obj 163 168 *~;
#N canvas 599 50 439 352 dac 0;
#X obj 94 320 dac~;
#X obj 53 22 inlet~;
#X obj 115 21 inlet~;
#X obj 153 69 r \$0-dac;
#X obj 115 275 *~;
#X obj 54 208 *~;
#X obj 153 181 line~;
#X obj 153 211 *~;
#X obj 153 242 *~;
#X msg 153 160 \$1 50;
#X obj 203 120 sel 0 1;
#X msg 222 143 1;
#X obj 307 239 switch~;
#X msg 203 215 0;
#X obj 203 186 delay 50;
#X obj 307 209 change;
#X connect 1 0 5 0;
#X connect 2 0 4 0;
#X connect 3 0 9 0;
#X connect 3 0 10 0;
#X connect 4 0 0 1;
#X connect 5 0 0 0;
#X connect 6 0 7 0;
#X connect 6 0 7 1;
#X connect 7 0 8 0;
#X connect 7 0 8 1;
#X connect 8 0 4 1;
#X connect 8 0 5 1;
#X connect 9 0 6 0;
#X connect 10 0 14 0;
#X connect 10 1 11 0;
#X connect 11 0 15 0;
#X connect 13 0 15 0;
#X connect 14 0 13 0;
#X connect 15 0 12 0;
#X restore 248 258 pd dac;
#N canvas 329 100 340 226 gain 0;
#N canvas 251 205 450 331 quartic 0;
#X obj 100 126 line~;
#X obj 100 158 *~;
#X obj 100 186 *~;
#X obj 100 92 inlet;
#X obj 100 252 outlet~;
#X obj 100 217 *~;
#X obj 221 54 r \$0-mode;
#X msg 250 104 0;
#X obj 269 157 switch~;
#X msg 221 104 1;
#X obj 197 179 line~;
#X msg 197 157 \$1 50;
#X obj 273 132 pipe 50;
#X obj 221 79 sel 0;
#X connect 0 0 1 0;
#X connect 0 0 1 1;
#X connect 1 0 2 0;
#X connect 1 0 2 1;
#X connect 2 0 5 0;
#X connect 3 0 0 0;
#X connect 5 0 4 0;
#X connect 6 0 13 0;
#X connect 7 0 11 0;
#X connect 7 0 12 0;
#X connect 9 0 8 0;
#X connect 9 0 11 0;
#X connect 10 0 5 1;
#X connect 11 0 10 0;
#X connect 12 0 8 0;
#X connect 13 0 9 0;
#X connect 13 1 7 0;
#X restore 37 85 pd quartic;
#X obj 116 172 outlet~;
#N canvas 251 205 450 300 dB 0;
#X obj 69 130 line~;
#X obj 69 26 inlet;
#X obj 99 255 outlet~;
#X obj 69 160 *~ 100;
#X obj 69 188 dbtorms~;
#X obj 166 56 r \$0-mode;
#X msg 193 106 0;
#X obj 193 175 switch~;
#X msg 164 106 1;
#X obj 166 81 sel 1;
#X obj 137 187 line~;
#X obj 99 223 *~;
#X msg 137 165 \$1 50;
#X obj 193 140 pipe 50;
#X connect 0 0 3 0;
#X connect 1 0 0 0;
#X connect 3 0 4 0;
#X connect 4 0 11 0;
#X connect 5 0 9 0;
#X connect 6 0 12 0;
#X connect 6 0 13 0;
#X connect 8 0 7 0;
#X connect 8 0 12 0;
#X connect 9 0 8 0;
#X connect 9 1 6 0;
#X connect 10 0 11 1;
#X connect 11 0 2 0;
#X connect 12 0 10 0;
#X connect 13 0 7 0;
#X restore 116 85 pd dB;
#N canvas 251 205 450 300 linear 0;
#X obj 136 65 line~;
#X obj 136 31 inlet;
#X obj 139 241 outlet~;
#X obj 260 54 r \$0-mode;
#X msg 289 104 0;
#X obj 308 157 switch~;
#X msg 260 104 1;
#X obj 236 179 line~;
#X msg 236 157 \$1 50;
#X obj 312 132 pipe 50;
#X obj 260 79 sel 2;
#X obj 131 187 *~;
#X connect 0 0 11 0;
#X connect 1 0 0 0;
#X connect 3 0 10 0;
#X connect 4 0 8 0;
#X connect 4 0 9 0;
#X connect 6 0 5 0;
#X connect 6 0 8 0;
#X connect 7 0 11 1;
#X connect 8 0 7 0;
#X connect 9 0 5 0;
#X connect 10 0 6 0;
#X connect 10 1 4 0;
#X connect 11 0 2 0;
#X restore 172 85 pd linear;
#N canvas 661 142 329 221 max_gain 0;
#X obj 46 35 inlet~;
#X obj 46 171 outlet~;
#X obj 46 100 *~;
#X obj 105 91 expr if($f1 <= 0 \, 1 \, $f1);
#X obj 105 65 r \$0-max_gain;
#X obj 105 141 line~;
#X msg 105 116 \$1 50;
#X obj 159 118 loadbang;
#X msg 159 142 1;
#X connect 0 0 2 0;
#X connect 2 0 1 0;
#X connect 3 0 6 0;
#X connect 4 0 3 0;
#X connect 5 0 2 1;
#X connect 6 0 5 0;
#X connect 7 0 8 0;
#X connect 8 0 5 0;
#X restore 116 136 pd max_gain;
#X obj 116 35 inlet;
#X connect 0 0 4 0;
#X connect 2 0 4 0;
#X connect 3 0 4 0;
#X connect 4 0 1 0;
#X connect 5 0 2 0;
#X connect 5 0 3 0;
#X connect 5 0 0 0;
#X restore 290 163 pd gain;
#N canvas 495 50 450 300 mute 0;
#X obj 121 167 line~;
#X obj 121 196 *~;
#X obj 121 221 *~;
#X obj 121 114 expr 1 - $f1;
#X msg 121 140 \$1 50;
#X msg 206 140 1;
#X obj 121 245 outlet~;
#X obj 284 88 select 0 1;
#X msg 284 37 0;
#X obj 205 8 loadbang;
#N canvas 186 185 358 434 off 0;
#X obj 154 221 +;
#X obj 139 246 +;
#X obj 77 140 * -65536;
#X obj 154 141 * -256;
#X obj 220 141 * -1;
#X obj 139 277 - 1;
#X obj 120 110 unpack f f f;
#X obj 120 47 inlet;
#X obj 139 351 outlet;
#X msg 120 80 220 220 220;
#X msg 139 309 label volume \, color \$1 -1 -1;
#X connect 0 0 1 1;
#X connect 1 0 5 0;
#X connect 2 0 1 0;
#X connect 3 0 0 0;
#X connect 4 0 0 1;
#X connect 5 0 10 0;
#X connect 6 0 2 0;
#X connect 6 1 3 0;
#X connect 6 2 4 0;
#X connect 7 0 9 0;
#X connect 9 0 6 0;
#X connect 10 0 8 0;
#X restore 284 127 pd off;
#N canvas 398 340 311 325 on 0;
#X obj 112 157 +;
#X obj 97 182 +;
#X obj 35 122 * -65536;
#X obj 112 123 * -256;
#X obj 178 123 * -1;
#X obj 97 213 - 1;
#X obj 78 92 unpack f f f;
#X obj 78 32 inlet;
#X obj 97 284 outlet;
#X msg 78 62 89 96 100;
#X msg 97 246 label muted \, color \$1 0 0;
#X connect 0 0 1 1;
#X connect 1 0 5 0;
#X connect 2 0 1 0;
#X connect 3 0 0 0;
#X connect 4 0 0 1;
#X connect 5 0 10 0;
#X connect 6 0 2 0;
#X connect 6 1 3 0;
#X connect 6 2 4 0;
#X connect 7 0 9 0;
#X connect 9 0 6 0;
#X connect 10 0 8 0;
#X restore 344 127 pd on;
#X obj 285 207 s \$0-set-slider;
#X obj 284 65 tgl 15 0 empty \$0-mute-bng empty 17 7 0 10 #fcfcfc #000000
#000000 0 1;
#X connect 0 0 1 0;
#X connect 0 0 1 1;
#X connect 1 0 2 0;
#X connect 1 0 2 1;
#X connect 2 0 6 0;
#X connect 3 0 4 0;
#X connect 4 0 0 0;
#X connect 5 0 0 0;
#X connect 7 0 10 0;
#X connect 7 1 11 0;
#X connect 8 0 13 0;
#X connect 9 0 8 0;
#X connect 9 0 5 0;
#X connect 10 0 12 0;
#X connect 11 0 12 0;
#X connect 13 0 7 0;
#X connect 13 0 3 0;
#X restore 230 130 pd mute;
#N canvas 1033 328 407 422 Gui_control 0;
#X msg 242 154 0;
#X msg 29 303 \; pd dsp 1;
#X obj 56 97 value slider_\$0;
#X obj 57 189 value slider_\$0;
#X obj 270 220 value slider_\$0;
#X obj 242 126 select 0 1;
#N canvas 824 206 392 422 DSP_state 0;
#X obj 204 156 route dsp;
#X obj 204 129 receive pd;
#X obj 184 21 inlet;
#X obj 118 395 outlet;
#X obj 184 51 sel 0 1;
#X msg 203 85 \; pd dsp 1;
#X msg 185 221 0;
#X msg 67 179 set 0;
#X msg 40 214 \; pd dsp 0;
#X obj 40 153 t b b;
#X obj 70 395 outlet;
#X obj 201 296 value dsp_state_\$0;
#X obj 70 361 b;
#X msg 118 152 1;
#X obj 118 221 change -1;
#X obj 40 128 delay 150;
#X obj 278 112 loadbang;
#X obj 278 170 pdinfo;
#X msg 278 142 dsp-status;
#X msg 131 330 set \$1;
#N canvas 555 532 340 222 set_color 0;
#X obj 47 30 inlet;
#N canvas 0 50 712 637 off 0;
#X obj 389 164 * -1;
#X obj 323 244 +;
#X obj 308 269 +;
#X obj 246 163 * -65536;
#X obj 323 164 * -256;
#X obj 308 300 - 1;
#X obj 289 133 unpack f f f;
#X obj 124 239 +;
#X obj 109 264 +;
#X obj 47 158 * -65536;
#X obj 124 159 * -256;
#X obj 190 159 * -1;
#X obj 109 295 - 1;
#X obj 90 128 unpack f f f;
#X msg 289 97 124 124 124;
#X msg 90 98 220 220 220;
#X obj 90 25 inlet;
#X obj 287 405 outlet;
#X obj 287 344 pack;
#X obj 90 65 trigger bang bang;
#X msg 287 371 color \$1 \$2 2 \, label off;
#X connect 0 0 1 1;
#X connect 1 0 2 1;
#X connect 2 0 5 0;
#X connect 3 0 2 0;
#X connect 4 0 1 0;
#X connect 5 0 18 1;
#X connect 6 0 3 0;
#X connect 6 1 4 0;
#X connect 6 2 0 0;
#X connect 7 0 8 1;
#X connect 8 0 12 0;
#X connect 9 0 8 0;
#X connect 10 0 7 0;
#X connect 11 0 7 1;
#X connect 12 0 18 0;
#X connect 13 0 9 0;
#X connect 13 1 10 0;
#X connect 13 2 11 0;
#X connect 14 0 6 0;
#X connect 15 0 13 0;
#X connect 16 0 19 0;
#X connect 18 0 20 0;
#X connect 19 0 15 0;
#X connect 19 1 14 0;
#X connect 20 0 17 0;
#X restore 47 113 pd off;
#X obj 47 83 select 0 1;
#X obj 96 160 send \$0-dsp-toggle-set;
#X msg 96 114 color -4.86997e+06 -4.86997e+06 0 \, label on;
#X connect 0 0 2 0;
#X connect 1 0 3 0;
#X connect 2 0 1 0;
#X connect 2 1 4 0;
#X connect 4 0 3 0;
#X restore 185 330 pd set_color;
#X obj 131 361 send \$0-dsp-toggle-set;
#X connect 0 0 14 0;
#X connect 1 0 0 0;
#X connect 2 0 4 0;
#X connect 4 0 6 0;
#X connect 4 0 15 0;
#X connect 4 1 5 0;
#X connect 4 1 13 0;
#X connect 6 0 19 0;
#X connect 6 0 20 0;
#X connect 6 0 11 0;
#X connect 6 0 12 0;
#X connect 7 0 14 0;
#X connect 9 0 8 0;
#X connect 9 1 7 0;
#X connect 12 0 10 0;
#X connect 13 0 14 0;
#X connect 14 0 3 0;
#X connect 14 0 11 0;
#X connect 14 0 19 0;
#X connect 14 0 20 0;
#X connect 15 0 9 0;
#X connect 16 0 18 0;
#X connect 17 0 14 0;
#X connect 18 0 17 0;
#X connect 19 0 21 0;
#X restore 173 63 pd DSP_state;
#X obj 29 133 value dsp_state_\$0;
#X obj 29 72 t b f;
#X obj 29 162 select 0 1;
#X obj 29 38 receive \$0-slider;
#X obj 173 36 receive \$0-dsp-toggle;
#X msg 270 245 0 \, \$1 100;
#X obj 173 372 outlet;
#X msg 173 119 0 150;
#X obj 57 238 pack f 20;
#X obj 108 214 r \$0-ramp;
#X connect 0 0 13 0;
#X connect 3 0 15 0;
#X connect 4 0 12 0;
#X connect 5 0 0 0;
#X connect 5 1 4 0;
#X connect 6 0 14 0;
#X connect 6 1 5 0;
#X connect 7 0 9 0;
#X connect 8 0 7 0;
#X connect 8 1 2 0;
#X connect 9 0 1 0;
#X connect 9 1 3 0;
#X connect 10 0 8 0;
#X connect 11 0 6 0;
#X connect 12 0 13 0;
#X connect 14 0 13 0;
#X connect 15 0 13 0;
#X connect 16 0 15 1;
#X restore 290 130 pd Gui_control;
#X obj 33 133 hsl 66 20 0 1 0 0 \$0-slider \$0-set-slider volume 19
7 1 13 #dcdcdc #000000 #000000 5774 1;
#X obj 102 121 tgl 16 0 \$0-dsp-toggle \$0-dsp-toggle-set on 3 6 1
9 #4a4f51 #4a4f51 #fcfcfc 1 1;
#X obj 102 137 bng 16 500 50 0 \$0-mute-bng \$0-mute empty 0 9 2 8
#dcdcdc #586064 #bcbcbc;
#N canvas 1045 306 347 352 load_args 0;
#X obj 75 88 list length;
#X obj 147 174 \$1;
#X obj 120 252 s \$0-mode;
#X obj 147 218 s \$0-dac;
#X obj 75 120 select 0;
#X obj 75 31 loadbang;
#X obj 75 61 list append \$@;
#X obj 120 174 \$2;
#X obj 120 144 t b b;
#X msg 75 174 1;
#X msg 42 175 0;
#X connect 0 0 4 0;
#X connect 1 0 3 0;
#X connect 4 0 9 0;
#X connect 4 0 10 0;
#X connect 4 1 8 0;
#X connect 5 0 6 0;
#X connect 6 0 0 0;
#X connect 7 0 2 0;
#X connect 8 0 7 0;
#X connect 8 1 1 0;
#X connect 9 0 3 0;
#X connect 10 0 2 0;
#X restore 304 210 pd load_args;
#X text 183 331 Alexandre Torres Porres (2016), f 51;
#X obj 375 92 inlet;
#X connect 0 0 4 0;
#X connect 1 0 10 0;
#X connect 1 0 15 0;
#X connect 2 0 5 0;
#X connect 3 0 9 0;
#X connect 3 0 15 1;
#X connect 4 0 14 0;
#X connect 5 0 13 0;
#X connect 7 0 12 0;
#X connect 11 0 8 0;
#X connect 13 0 3 0;
#X connect 14 0 1 0;
#X connect 16 0 3 1;
#X connect 16 0 1 1;
#X connect 17 0 13 1;
#X connect 17 0 14 1;
#X connect 18 0 16 0;
#X connect 24 0 19 0;
#X coords 0 -1 1 1 104 58 1 26 103;
#X restore 370 70 pd out;
#X connect 2 0 3 0;
#X connect 3 0 4 0;
#X connect 3 0 5 0;
#X connect 3 0 6 0;
#X connect 3 0 7 0;
#X connect 8 0 11 3;
#X connect 9 0 11 0;
#X connect 10 0 11 1;
#X coords 0 -1 1 1 329 184 1 568 138;
#X restore 360 220 pd master_out;
#X obj 310 400 sensorData~;
#X obj 610 810 r randomize;
#X obj 640 840 random 7;
#N canvas 0 25 1680 913 presets 0;
#X msg 20 400 default;
#X msg 140 490 huge;
#X msg 120 520 huge_noexcursion;
#X msg 100 460 large;
#X msg 60 430 large_noexcursion;
#X msg 180 550 tadada;
#X msg 220 620 metallic;
#X msg 130 620 bubblebath;
#N canvas 1698 583 648 527 preset_loader 0;
#X obj 40 26 inlet;
#X msg 209 204 \; param1 0 \; param2 2894.14 \; param3 22050 \; param4
0.92126 \; param5 0.897638 \; param6 0.299213 \; param7 0.984252 \;
param8 0.944882 \; param9 0.393701 \;;
#X obj 39 70 route metallic bubblebath;
#X msg 39 203 \; param1 90 \; param2 22050 \; param3 22050 \; param4
0.653543 \; param5 0.629921 \; param6 0.409449 \; param7 0.889764 \;
param8 0.866142 \; param9 1.5 \;;
#X connect 0 0 2 0;
#X connect 2 0 3 0;
#X connect 2 1 1 0;
#X restore 130 649 pd preset_loader;
#X obj 318 278 sel 0 1 2 3 4 5 6 7;
#X obj 530 110 inlet;
#N canvas 1551 259 877 919 reverb_preset_loader 0;
#X obj 40 26 inlet;
#X msg 43 122 \; param1 0 \; param2 22050 \; param3 22050 \; param4
0.5 \; param5 0.75 \; param6 0.625 \; param7 0.7 \; param8 0.5 \; param9
0.53761 \;;
#X msg 19 306 \; param1 0 \; param2 10000 \; param3 4637 \; param4
0.98 \; param5 0.685 \; param6 0.779 \; param7 0.74 \; param8 0.68
\; param9 0.53761 \;;
#X msg 329 317 \; param1 216.535 \; param2 22050 \; param3 22050 \;
param4 0.677165 \; param5 0.850394 \; param6 0.92126 \; param7 0.80315
\; param8 0.818898 \; param9 0.11811 \;;
#X obj 39 70 route default large large_noexcursion huge huge_noexcursion
tadada;
#X msg 199 123 \; param1 30 \; param2 10000 \; param3 4637 \; param4
0.98 \; param5 0.685 \; param6 0.779 \; param7 0.74 \; param8 0.68
\; param9 0.5 \;;
#X msg 359 131 \; param1 10 \; param2 10000 \; param3 4637 \; param4
0.99 \; param5 0.685 \; param6 0.779 \; param7 0.889 \; param8 0.84
\; param9 0.23 \;;
#X msg 181 303 \; param1 10 \; param2 10000 \; param3 4637 \; param4
0.99 \; param5 0.685 \; param6 0.779 \; param7 0.889 \; param8 0.84
\; param9 0.6 \;;
#X connect 0 0 4 0;
#X connect 4 0 1 0;
#X connect 4 1 2 0;
#X connect 4 2 5 0;
#X connect 4 3 7 0;
#X connect 4 4 6 0;
#X connect 4 5 3 0;
#X restore 90 580 pd reverb_preset_loader;
#X msg 404 410 dry, f 4;
#X msg 424 430 wet_summer;
#X msg 484 460 rain;
#X msg 514 480 mist;
#X msg 584 530 snow;
#X msg 636 560 moderate_gale;
#N canvas 454 195 1100 842 noise_gen_preset_loader 0;
#X obj 130 0 inlet;
#X msg 370 130 \; noise_param1 81 \; noise_param2 27.5 \; noise_param3
110 \; noise_param4 115 \; noise_param5 1.5 \; noise_param6 63.62 \;
noise_param7 17.37 \; noise_param8 15.5 \;, f 23;
#X msg 190 130 \; noise_param1 81 \; noise_param2 121.5 \; noise_param3
8 \; noise_param4 107 \; noise_param5 35.5 \; noise_param6 38.62 \;
noise_param7 6.37 \; noise_param8 61.5 \;, f 23;
#X text 500 130 rain;
#X text 270 130 wet summer;
#X msg 550 130 \; noise_param1 12 \; noise_param2 60 \; noise_param3
60 \; noise_param4 90 \; noise_param5 62.5 \; noise_param6 36 \; noise_param7
125 \; noise_param8 8.5 \;, f 23;
#X text 680 130 mist;
#X text 140 150 dry;
#X obj 130 40 route dry wet_summer rain mist storm ice snow moderate_gale
;
#X msg 10 320 \; noise_param1 80 \; noise_param2 44 \; noise_param3
95 \; noise_param4 102 \; noise_param5 75.5 \; noise_param6 62 \; noise_param7
125 \; noise_param8 19.5 \;, f 23;
#X text 130 320 storm;
#X text 320 340 ice;
#X msg 370 330 \; noise_param1 17 \; noise_param2 12 \; noise_param3
15 \; noise_param4 11 \; noise_param5 85 \; noise_param6 11 \; noise_param7
121 \; noise_param8 7.5 \;, f 23;
#X text 500 340 snow;
#X text 620 330 moderate_gale;
#X msg 10 140 \; noise_param1 4 \; noise_param2 100 \; noise_param3
3 \; noise_param4 60 \; noise_param5 26 \; noise_param6 5 \; noise_param7
53 \; noise_param8 94 \;, f 23;
#X msg 190 330 \; noise_param1 6 \; noise_param2 12 \; noise_param3
7 \; noise_param4 122 \; noise_param5 20.5 \; noise_param6 20.5 \;
noise_param7 78.5 \; noise_param8 31.5, f 23;
#X msg 550 330 \; noise_param1 59 \; noise_param2 70 \; noise_param3
60 \; noise_param4 90 \; noise_param5 40.5 \; noise_param6 53 \; noise_param7
60.5 \; noise_param8 30.5 \;, f 23;
#X connect 0 0 8 0;
#X connect 8 0 15 0;
#X connect 8 1 2 0;
#X connect 8 2 1 0;
#X connect 8 3 5 0;
#X connect 8 4 9 0;
#X connect 8 5 16 0;
#X connect 8 6 12 0;
#X connect 8 7 17 0;
#X restore 524 620 pd noise_gen_preset_loader;
#X msg 544 520 ice;
#N canvas 0 22 2562 1346 instrument_loader 0;
#X obj 104 12 inlet;
#X text 850 325 rain;
#X text 435 316 wet summer;
#X text 1216 319 mist;
#X text 42 314 dry;
#X obj 862 95 route dry wet_summer rain mist storm ice snow moderate_gale
;
#X text 16 810 storm;
#X text 438 806 ice;
#X text 816 828 snow;
#X text 1235 812 moderate_gale;
#X msg 217 349 \; chime_vol1 0.1 \; chime_vol2 0.3 \; chime_vol3 0.7
\; chime_vol4 0.1 \; chime_vol5 0.1 \; chime_vol6 0.8 \; chime_vol7
0 \; chime_vol8 0 \;, f 23;
#X msg 13 846 \; chime_vel1 86 \; chime_vel2 35 \; chime_vel3 44 \;
chime_vel4 80 \; chime_vel5 80 \; chime_vel6 12 \; chime_vel7 60 \;
chime_vel8 60 \;, f 23;
#X msg 607 852 \; chime_vol1 0.3 \; chime_vol2 0.3 \; chime_vol3 0.3
\; chime_vol4 0.3 \; chime_vol5 0.3 \; chime_vol6 0.3 \; chime_vol7
0.3 \; chime_vol8 0.3 \;, f 23;
#X msg 428 853 \; chime_vel1 80 \; chime_vel2 80 \; chime_vel3 80 \;
chime_vel4 60 \; chime_vel5 60 \; chime_vel6 60 \; chime_vel7 60 \;
chime_vel8 60 \;, f 23;
#X msg 1232 847 \; chime_vel1 80 \; chime_vel2 60 \; chime_vel3 60
\; chime_vel4 60 \; chime_vel5 30 \; chime_vel6 30 \; chime_vel7 60
\; chime_vel8 30 \;, f 23;
#X msg 432 349 \; chime_vel1 80 \; chime_vel2 80 \; chime_vel3 80 \;
chime_vel4 80 \; chime_vel5 30 \; chime_vel6 30 \; chime_vel7 60 \;
chime_vel8 60 \;, f 23;
#X msg 39 346 \; chime_vel1 4 \; chime_vel2 80 \; chime_vel3 3 \; chime_vel4
60 \; chime_vel5 26 \; chime_vel6 5 \; chime_vel7 53 \; chime_vel8
94 \;, f 23;
#X msg 611 351 \; chime_vol1 0.1 \; chime_vol2 0.1 \; chime_vol3 0.1
\; chime_vol4 0.1 \; chime_vol5 0.1 \; chime_vol6 0.1 \; chime_vol7
0.1 \; chime_vol8 0.1 \;, f 23;
#X msg 832 350 \; chime_vel1 20 \; chime_vel2 20 \; chime_vel3 20 \;
chime_vel4 20 \; chime_vel5 20 \; chime_vel6 20 \; chime_vel7 20 \;
chime_vel8 20 \;, f 23;
#X msg 1009 348 \; chime_vol1 0.3 \; chime_vol2 0 \; chime_vol3 0 \;
chime_vol4 0 \; chime_vol5 0 \; chime_vol6 0 \; chime_vol7 0.3 \; chime_vol8
0.3 \;, f 23;
#X msg 197 846 \; chime_vol1 0.2 \; chime_vol2 0.2 \; chime_vol3 0.2
\; chime_vol4 0.2 \; chime_vol5 0.1 \; chime_vol6 0.2 \; chime_vol7
0.1 \; chime_vol8 0.1 \;, f 23;
#X msg 1001 854 \; chime_vol1 0.2 \; chime_vol2 0.2 \; chime_vol3 0.2
\; chime_vol4 0.2 \; chime_vol5 0 \; chime_vol6 0 \; chime_vol7 0 \;
chime_vol8 0 \;, f 23;
#X msg 814 860 \; chime_vel1 30 \; chime_vel2 60 \; chime_vel3 20 \;
chime_vel4 30 \; chime_vel5 0 \; chime_vel6 0 \; chime_vel7 0 \; chime_vel8
0 \;, f 23;
#X msg 1429 845 \; chime_vol1 0.3 \; chime_vol2 0.3 \; chime_vol3 0.3
\; chime_vol4 0.3 \; chime_vol5 0.3 \; chime_vol6 0.3 \; chime_vol7
0.1 \; chime_vol8 0.1 \;, f 23;
#X msg 214 543 \; vangex_mod1 1 \; vangex_mod2 2 \; vangex_mod3 2 \;
vangex_mod4 2 \; vangex_mod5 2 \; vangex_mod6 1 \;, f 23;
#X msg 35 542 \; vangex_gain1 5 \; vangex_gain2 5 \; vangex_gain3 5
\; vangex_gain4 4 \; vangex_gain5 4 \; vangex_gain6 3 \;, f 23;
#X msg 608 548 \; vangex_mod1 4 \; vangex_mod2 2 \; vangex_mod3 2 \;
vangex_mod4 2 \; vangex_mod5 4 \; vangex_mod6 1 \;, f 23;
#X msg 826 549 \; vangex_gain1 5 \; vangex_gain2 5 \; vangex_gain3
6 \; vangex_gain4 6 \; vangex_gain5 5 \; vangex_gain6 3 \;, f 23;
#X msg 1005 543 \; vangex_mod1 4 \; vangex_mod2 4 \; vangex_mod3 2
\; vangex_mod4 2 \; vangex_mod5 4 \; vangex_mod6 6 \;, f 23;
#X msg 429 548 \; vangex_gain1 5 \; vangex_gain2 5 \; vangex_gain3
5 \; vangex_gain4 0 \; vangex_gain5 0 \; vangex_gain6 0 \;, f 23;
#X msg 1209 353 \; chime_vel1 60 \; chime_vel2 0 \; chime_vel3 0 \;
chime_vel4 0 \; chime_vel5 0 \; chime_vel6 0 \; chime_vel7 0 \; chime_vel8
0 \;, f 23;
#X msg 1413 352 \; chime_vol1 0.3 \; chime_vol2 0 \; chime_vol3 0 \;
chime_vol4 0 \; chime_vol5 0 \; chime_vol6 0 \; chime_vol7 0 \; chime_vol8
0, f 23;
#X msg 1217 544 \; vangex_gain1 5 \; vangex_gain2 5 \; vangex_gain3
6 \; vangex_gain4 6 \; vangex_gain5 5 \; vangex_gain6 5 \;, f 23;
#X msg 1406 548 \; vangex_mod1 2 \; vangex_mod2 2 \; vangex_mod3 2
\; vangex_mod4 2 \; vangex_mod5 1 \; vangex_mod6 3 \;, f 23;
#X msg 16 1024 \; vangex_gain1 5 \; vangex_gain2 5 \; vangex_gain3
6 \; vangex_gain4 6 \; vangex_gain5 5 \; vangex_gain6 5 \;, f 23;
#X msg 205 1028 \; vangex_mod1 4 \; vangex_mod2 2 \; vangex_mod3 4
\; vangex_mod4 2 \; vangex_mod5 6 \; vangex_mod6 6 \;, f 23;
#X msg 609 1031 \; vangex_mod1 4 \; vangex_mod2 2 \; vangex_mod3 4
\; vangex_mod4 2 \; vangex_mod5 2 \; vangex_mod6 6 \;, f 23;
#X msg 419 1027 \; vangex_gain1 5 \; vangex_gain2 0 \; vangex_gain3
6 \; vangex_gain4 6 \; vangex_gain5 0 \; vangex_gain6 0 \;, f 23;
#X msg 1015 1033 \; vangex_mod1 4 \; vangex_mod2 2 \; vangex_mod3 4
\; vangex_mod4 2 \; vangex_mod5 2 \; vangex_mod6 6 \;, f 23;
#X msg 825 1034 \; vangex_gain1 5 \; vangex_gain2 6 \; vangex_gain3
6 \; vangex_gain4 6 \; vangex_gain5 6 \; vangex_gain6 5 \;, f 23;
#X msg 1243 1025 \; vangex_gain1 5 \; vangex_gain2 6 \; vangex_gain3
6 \; vangex_gain4 6 \; vangex_gain5 6 \; vangex_gain6 5 \;, f 23;
#X msg 1433 1024 \; vangex_mod1 8 \; vangex_mod2 4 \; vangex_mod3 4
\; vangex_mod4 6 \; vangex_mod5 7 \; vangex_mod6 6 \;, f 23;
#X connect 0 0 5 0;
#X connect 5 0 16 0;
#X connect 5 0 10 0;
#X connect 5 0 25 0;
#X connect 5 0 24 0;
#X connect 5 1 15 0;
#X connect 5 1 17 0;
#X connect 5 1 29 0;
#X connect 5 1 26 0;
#X connect 5 2 18 0;
#X connect 5 2 19 0;
#X connect 5 2 27 0;
#X connect 5 2 28 0;
#X connect 5 3 30 0;
#X connect 5 3 31 0;
#X connect 5 3 32 0;
#X connect 5 3 33 0;
#X connect 5 4 11 0;
#X connect 5 4 20 0;
#X connect 5 4 34 0;
#X connect 5 4 35 0;
#X connect 5 5 13 0;
#X connect 5 5 12 0;
#X connect 5 5 37 0;
#X connect 5 5 36 0;
#X connect 5 6 22 0;
#X connect 5 6 21 0;
#X connect 5 6 39 0;
#X connect 5 6 38 0;
#X connect 5 7 14 0;
#X connect 5 7 23 0;
#X connect 5 7 40 0;
#X connect 5 7 41 0;
#X restore 360 666 pd instrument_loader;
#N canvas 1341 260 1116 825 mix_preset_loader 0;
#X obj 130 0 inlet;
#X text 500 130 rain;
#X text 270 130 wet summer;
#X text 680 130 mist;
#X obj 130 40 route dry wet_summer rain mist storm ice snow moderate_gale
;
#X text 130 320 storm;
#X text 292 316 ice;
#X text 500 340 snow;
#X text 620 330 moderate_gale;
#X text 106 120 dry;
#X msg 62 158 \; set_mix_chimes 0.9 \; set_mix_noise 0.5 \; set_mix_vangex
0.2 \; set_mix_sine 0 \;, f 23;
#X msg 262 156 \; set_mix_chimes 0.61 \; set_mix_noise 0.4 \; set_mix_vangex
0 \; set_mix_sine 0.42 \;, f 23;
#X msg 472 160 \; set_mix_chimes 0 \; set_mix_noise 0.3 \; set_mix_vangex
1.6 \; set_mix_sine 0.15 \;, f 23;
#X msg 682 162 \; set_mix_chimes 0 \; set_mix_noise 0.4 \; set_mix_vangex
1.8 \; set_mix_sine 0 \;, f 23;
#X msg 58 356 \; set_mix_chimes 0 \; set_mix_noise 0.6 \; set_mix_vangex
1.8 \; set_mix_sine 0.12 \;, f 23;
#X msg 266 354 \; set_mix_chimes 0.323 \; set_mix_noise 0.575 \; set_mix_vangex
0.454 \; set_mix_sine 0 \;, f 23;
#X msg 488 374 \; set_mix_chimes 0.11 \; set_mix_noise 0.88 \; set_mix_vangex
0.121 \; set_mix_sine 0.161 \;, f 23;
#X msg 684 376 \; set_mix_chimes 0.14 \; set_mix_noise 0.73 \; set_mix_vangex
0.39 \; set_mix_sine 0.09 \;, f 23;
#X connect 0 0 4 0;
#X connect 4 0 10 0;
#X connect 4 1 11 0;
#X connect 4 2 12 0;
#X connect 4 3 13 0;
#X connect 4 4 14 0;
#X connect 4 5 15 0;
#X connect 4 6 16 0;
#X connect 4 7 17 0;
#X restore 678 720 pd mix_preset_loader;
#X obj 670 240 cnv 15 666 126 empty empty empty 20 12 0 14 #212121
#404040 0;
#X obj 680 250 cnv 15 81 85 empty empty dry 20 3 0 20 #212121 #d4fb79
0;
#X obj 760 250 cnv 15 78 72 empty empty summer 5 3 0 20 #212121 #d4fb79
0;
#X obj 840 250 cnv 15 81 94 empty empty rain 15 4 0 20 #212121 #d4fb79
0;
#X obj 920 250 cnv 15 81 100 empty empty mist 17 4 0 20 #212121 #d4fb79
0;
#X obj 1000 250 cnv 15 81 91 empty empty rain 18 4 0 20 #212121 #d4fb79
0;
#X obj 1080 250 cnv 15 81 103 empty empty ice 22 5 0 20 #212121 #d4fb79
0;
#X obj 1160 250 cnv 15 81 101 empty empty snow 17 5 0 20 #212121 #d4fb79
0;
#X obj 1240 250 cnv 15 81 101 empty empty gale 18 5 0 20 #212121 #d4fb79
0;
#X obj 680 270 hradio 80 0 0 8 empty empty empty 0 -8 0 10 #009193
#000000 #d4fb79 0;
#X connect 0 0 11 0;
#X connect 1 0 11 0;
#X connect 2 0 11 0;
#X connect 3 0 11 0;
#X connect 4 0 11 0;
#X connect 5 0 11 0;
#X connect 6 0 8 0;
#X connect 7 0 8 0;
#X connect 9 0 0 0;
#X connect 9 0 12 0;
#X connect 9 1 4 0;
#X connect 9 1 13 0;
#X connect 9 2 3 0;
#X connect 9 2 14 0;
#X connect 9 3 1 0;
#X connect 9 3 15 0;
#X connect 9 4 2 0;
#X connect 9 4 19 0;
#X connect 9 5 5 0;
#X connect 9 6 16 0;
#X connect 9 7 7 0;
#X connect 9 7 17 0;
#X connect 9 8 6 0;
#X connect 10 0 31 0;
#X connect 12 0 18 0;
#X connect 12 0 20 0;
#X connect 12 0 21 0;
#X connect 13 0 18 0;
#X connect 13 0 20 0;
#X connect 13 0 21 0;
#X connect 14 0 18 0;
#X connect 14 0 20 0;
#X connect 14 0 21 0;
#X connect 15 0 18 0;
#X connect 15 0 20 0;
#X connect 15 0 21 0;
#X connect 16 0 18 0;
#X connect 16 0 20 0;
#X connect 16 0 21 0;
#X connect 17 0 18 0;
#X connect 17 0 20 0;
#X connect 17 0 21 0;
#X connect 19 0 18 0;
#X connect 19 0 20 0;
#X connect 19 0 21 0;
#X connect 31 0 9 0;
#X coords 0 -1 1 1 673 134 1 668 237;
#X restore 720 740 pd presets;
#X obj 170 310 scales;
#X connect 0 0 1 0;
#X connect 0 0 2 0;
#X connect 0 0 24 0;
#X connect 0 0 30 0;
#X connect 0 0 25 0;
#X connect 2 0 3 0;
#X connect 4 0 2 0;
#X connect 5 0 35 0;
#X connect 6 0 35 1;
#X connect 8 0 9 0;
#X connect 10 0 12 0;
#X connect 11 0 8 0;
#X connect 13 0 10 0;
#X connect 14 0 10 1;
#X connect 15 0 10 0;
#X connect 16 0 14 0;
#X connect 16 1 10 2;
#X connect 17 0 16 0;
#X connect 18 0 19 0;
#X connect 18 1 20 0;
#X connect 21 0 8 0;
#X connect 24 0 28 0;
#X connect 25 0 27 0;
#X connect 26 0 25 1;
#X connect 30 0 32 0;
#X connect 30 1 31 0;
#X connect 30 2 29 0;
#X connect 33 0 30 1;
#X connect 37 0 38 0;
#X connect 38 0 39 0;
