#N canvas 648 195 658 516 12;
#X obj 70 50 notoname;
#X symbolatom 376 125 10 0 0 0 - - -, f 10;
#X obj 160 242 mtof;
#X obj 160 221 unpack f f;
#X obj 160 263 chimes_;
#X obj 160 193 pack 0 0;
#X obj 180 80 metro 10000;
#X obj 180 120 bng 32 250 50 0 empty empty empty 17 7 0 10 #fcfcfc
#000000 #000000;
#X obj 160 160 int;
#X obj 70 120 counter 0 7;
#X floatatom 70 150 5 0 0 0 - - -, f 5;
#N canvas 273 287 854 589 convert 0;
#X obj 109 83 r \$0-scale_length;
#X text 127 122 <-- [mod ] handles negative numbers differently than
[% ];
#X obj 78 153 tabread \$0-scale;
#X floatatom 102 303 5 0 0 0 - - -, f 5;
#X floatatom 31 171 5 0 0 0 - - -, f 5;
#X obj 290 232 * 12;
#X obj 102 225 +;
#X text 158 266 <-- offset;
#X obj 97 350 outlet;
#X obj 102 267 + 12;
#X obj 76 122 mod 8;
#X floatatom 303 206 5 0 0 0 - - -, f 5;
#X obj 44 64 inlet;
#X obj 303 178 inlet;
#X text 301 156 Octave;
#X text 42 35 Note Number;
#X connect 0 0 10 1;
#X connect 2 0 6 0;
#X connect 3 0 8 0;
#X connect 5 0 6 1;
#X connect 6 0 9 0;
#X connect 9 0 3 0;
#X connect 10 0 2 0;
#X connect 10 0 4 0;
#X connect 11 0 5 0;
#X connect 12 0 10 0;
#X connect 13 0 11 0;
#X restore 140 20 pd convert;
#X floatatom 140 49 5 0 0 0 - - -, f 5;
#X floatatom 256 55 5 0 0 0 - - -, f 5;
#X obj 238 -23 r randomize;
#X obj 236 5 random 3000;
#X obj 240 30 + 1000;
#X text 186 -65 Chimes;
#X obj 176 -15 inlet;
#X obj 130 -20 inlet;
#X obj 156 295 outlet~;
#X obj 66 175 outlet;
#X obj 386 175 outlet;
#X obj 40 0 r toggle;
#X msg 216 165 1;
#X obj 340 -40 r lpLength;
#X text 340 -60 Loop Length;
#X text 126 -47 note;
#X text 180 -40 oct;
#X connect 0 0 1 0;
#X connect 1 0 22 0;
#X connect 2 0 4 0;
#X connect 3 0 2 0;
#X connect 3 1 4 1;
#X connect 4 0 20 0;
#X connect 5 0 3 0;
#X connect 6 0 7 0;
#X connect 6 0 9 0;
#X connect 7 0 8 1;
#X connect 7 0 24 0;
#X connect 8 0 5 0;
#X connect 9 0 10 0;
#X connect 10 0 21 0;
#X connect 11 0 12 0;
#X connect 12 0 8 0;
#X connect 12 0 0 0;
#X connect 13 0 6 1;
#X connect 14 0 15 0;
#X connect 15 0 16 0;
#X connect 16 0 13 0;
#X connect 18 0 11 1;
#X connect 19 0 11 0;
#X connect 23 0 6 0;
#X connect 24 0 5 1;
#X connect 25 0 15 1;
