#N canvas 72 39 1565 920 12;
#X obj 990 360 cnv 15 800 452 empty empty empty 20 12 0 14 #424242
#404040 0;
#X obj 1140 450 chimes_instr~;
#X obj 1990 520 throw~ out;
#N canvas 273 287 854 589 convert 0;
#X obj 109 83 r \$0-scale_length;
#X text 127 122 <-- [mod ] handles negative numbers differently than
[% ];
#X obj 78 153 tabread \$0-scale;
#X floatatom 102 303 5 0 0 0 - - -, f 5;
#X floatatom 31 171 5 0 0 0 - - -, f 5;
#X obj 290 232 * 12;
#X obj 102 225 +;
#X text 158 266 <-- offset;
#X obj 97 350 outlet;
#X obj 102 267 + 12;
#X obj 76 122 mod 8;
#X floatatom 303 206 5 0 0 0 - - -, f 5;
#X obj 44 64 inlet;
#X obj 303 178 inlet;
#X text 301 156 Octave;
#X text 42 35 Note Number;
#X connect 0 0 10 1;
#X connect 2 0 6 0;
#X connect 3 0 8 0;
#X connect 5 0 6 1;
#X connect 6 0 9 0;
#X connect 9 0 3 0;
#X connect 10 0 2 0;
#X connect 10 0 4 0;
#X connect 11 0 5 0;
#X connect 12 0 10 0;
#X connect 13 0 11 0;
#X restore 460 180 pd convert;
#X obj 1200 420 nbx 5 25 -1e+37 1e+37 0 0 empty empty Octave 0 -8 0
10 #8efa00 #000000 #000000 6 256 0;
#X obj 590 40 markov.chain;
#X obj 590 70 sel 1 2 3;
#X msg 620 110 3;
#X obj 460 120 delay 1000;
#N canvas 615 25 450 300 delay_seed 0;
#X text 184 97 Loop Length;
#X obj 90 120 r randomize;
#X obj 90 180 + 1000;
#X obj 91 149 random 3000;
#X obj 180 120 r noteLength;
#X obj 90 210 outlet;
#X connect 1 0 3 0;
#X connect 2 0 5 0;
#X connect 3 0 2 0;
#X connect 4 0 3 1;
#X restore 470 60 pd delay_seed;
#X floatatom 500 90 5 0 0 0 - - -, f 5;
#X obj 460 150 random 8;
#X obj 460 10 r bng;
#X obj 1300 450 chimes_instr~;
#X obj 1970 760 throw~ out;
#N canvas 273 287 854 589 convert 0;
#X obj 109 83 r \$0-scale_length;
#X text 127 122 <-- [mod ] handles negative numbers differently than
[% ];
#X obj 78 153 tabread \$0-scale;
#X floatatom 102 303 5 0 0 0 - - -, f 5;
#X floatatom 31 171 5 0 0 0 - - -, f 5;
#X obj 290 232 * 12;
#X obj 102 225 +;
#X text 158 266 <-- offset;
#X obj 97 350 outlet;
#X obj 102 267 + 12;
#X obj 76 122 mod 8;
#X floatatom 303 206 5 0 0 0 - - -, f 5;
#X obj 44 64 inlet;
#X obj 303 178 inlet;
#X text 301 156 Octave;
#X text 42 35 Note Number;
#X connect 0 0 10 1;
#X connect 2 0 6 0;
#X connect 3 0 8 0;
#X connect 5 0 6 1;
#X connect 6 0 9 0;
#X connect 9 0 3 0;
#X connect 10 0 2 0;
#X connect 10 0 4 0;
#X connect 11 0 5 0;
#X connect 12 0 10 0;
#X connect 13 0 11 0;
#X restore 720 190 pd convert;
#X obj 1360 420 nbx 5 25 -1e+37 1e+37 0 0 empty empty Octave 0 -8 0
10 #ff8ad8 #000000 #000000 4 256 0;
#X obj 850 50 markov.chain;
#X obj 850 80 sel 1 2 3;
#X obj 720 130 delay 1000;
#N canvas 615 25 450 300 delay_seed 0;
#X text 184 97 Loop Length;
#X obj 90 120 r randomize;
#X obj 90 180 + 1000;
#X obj 91 149 random 3000;
#X obj 180 120 r noteLength;
#X obj 90 210 outlet;
#X connect 1 0 3 0;
#X connect 2 0 5 0;
#X connect 3 0 2 0;
#X connect 4 0 3 1;
#X restore 730 70 pd delay_seed;
#X floatatom 760 100 5 0 0 0 - - -, f 5;
#X obj 720 160 random 8;
#X obj 720 20 r bng;
#X obj 1460 450 chimes_instr~;
#X obj 1800 740 throw~ out;
#N canvas 273 287 854 589 convert 0;
#X obj 109 83 r \$0-scale_length;
#X text 127 122 <-- [mod ] handles negative numbers differently than
[% ];
#X obj 78 153 tabread \$0-scale;
#X floatatom 102 303 5 0 0 0 - - -, f 5;
#X floatatom 31 171 5 0 0 0 - - -, f 5;
#X obj 290 232 * 12;
#X obj 102 225 +;
#X text 158 266 <-- offset;
#X obj 97 350 outlet;
#X obj 102 267 + 12;
#X obj 76 122 mod 8;
#X floatatom 303 206 5 0 0 0 - - -, f 5;
#X obj 44 64 inlet;
#X obj 303 178 inlet;
#X text 301 156 Octave;
#X text 42 35 Note Number;
#X connect 0 0 10 1;
#X connect 2 0 6 0;
#X connect 3 0 8 0;
#X connect 5 0 6 1;
#X connect 6 0 9 0;
#X connect 9 0 3 0;
#X connect 10 0 2 0;
#X connect 10 0 4 0;
#X connect 11 0 5 0;
#X connect 12 0 10 0;
#X connect 13 0 11 0;
#X restore 970 200 pd convert;
#X obj 1520 420 nbx 5 25 -1e+37 1e+37 0 0 empty empty Octave 0 -8 0
10 #cb6871 #000000 #000000 3 256 0;
#X obj 1100 60 markov.chain;
#X obj 1100 90 sel 1 2 3;
#X obj 970 140 delay 1000;
#N canvas 615 25 450 300 delay_seed 0;
#X text 184 97 Loop Length;
#X obj 90 120 r randomize;
#X obj 90 180 + 1000;
#X obj 91 149 random 3000;
#X obj 180 120 r noteLength;
#X obj 90 210 outlet;
#X connect 1 0 3 0;
#X connect 2 0 5 0;
#X connect 3 0 2 0;
#X connect 4 0 3 1;
#X restore 980 80 pd delay_seed;
#X floatatom 1010 110 5 0 0 0 - - -, f 5;
#X obj 970 170 random 8;
#X obj 970 30 r bng;
#X obj 1630 450 chimes_instr~;
#X obj 1800 490 throw~ out;
#N canvas 273 287 854 589 convert 0;
#X obj 109 83 r \$0-scale_length;
#X text 127 122 <-- [mod ] handles negative numbers differently than
[% ];
#X obj 78 153 tabread \$0-scale;
#X floatatom 102 303 5 0 0 0 - - -, f 5;
#X floatatom 31 171 5 0 0 0 - - -, f 5;
#X obj 290 232 * 12;
#X obj 102 225 +;
#X text 158 266 <-- offset;
#X obj 97 350 outlet;
#X obj 102 267 + 12;
#X obj 76 122 mod 8;
#X floatatom 303 206 5 0 0 0 - - -, f 5;
#X obj 44 64 inlet;
#X obj 303 178 inlet;
#X text 301 156 Octave;
#X text 42 35 Note Number;
#X connect 0 0 10 1;
#X connect 2 0 6 0;
#X connect 3 0 8 0;
#X connect 5 0 6 1;
#X connect 6 0 9 0;
#X connect 9 0 3 0;
#X connect 10 0 2 0;
#X connect 10 0 4 0;
#X connect 11 0 5 0;
#X connect 12 0 10 0;
#X connect 13 0 11 0;
#X restore 1220 240 pd convert;
#X obj 1680 420 nbx 5 25 -1e+37 1e+37 0 0 empty empty Octave 0 -8 0
10 #ff625e #000000 #000000 6 256 0;
#X obj 1350 100 markov.chain;
#X obj 1350 130 sel 1 2 3;
#X msg 1340 170 4;
#X obj 1220 180 delay 1000;
#N canvas 615 25 450 300 delay_seed 0;
#X text 184 97 Loop Length;
#X obj 90 120 r randomize;
#X obj 90 180 + 1000;
#X obj 91 149 random 3000;
#X obj 180 120 r noteLength;
#X obj 90 210 outlet;
#X connect 1 0 3 0;
#X connect 2 0 5 0;
#X connect 3 0 2 0;
#X connect 4 0 3 1;
#X restore 1230 120 pd delay_seed;
#X floatatom 1260 150 5 0 0 0 - - -, f 5;
#X obj 1220 210 random 8;
#X obj 1220 70 r bng;
#X msg 1090 130 6;
#X msg 1130 130 4;
#X msg 1180 140 3;
#X msg 1380 170 5;
#X msg 1420 180 6;
#X msg 840 120 3;
#X msg 880 120 6;
#X msg 920 120 4;
#X msg 580 110 5;
#X msg 660 110 6;
#X obj 1140 650 chimes_instr~;
#X obj 1130 850 throw~ out;
#N canvas 273 287 854 589 convert 0;
#X obj 109 83 r \$0-scale_length;
#X text 127 122 <-- [mod ] handles negative numbers differently than
[% ];
#X obj 78 153 tabread \$0-scale;
#X floatatom 102 303 5 0 0 0 - - -, f 5;
#X floatatom 31 171 5 0 0 0 - - -, f 5;
#X obj 290 232 * 12;
#X obj 102 225 +;
#X text 158 266 <-- offset;
#X obj 97 350 outlet;
#X obj 102 267 + 12;
#X obj 76 122 mod 8;
#X floatatom 303 206 5 0 0 0 - - -, f 5;
#X obj 44 64 inlet;
#X obj 303 178 inlet;
#X text 301 156 Octave;
#X text 42 35 Note Number;
#X connect 0 0 10 1;
#X connect 2 0 6 0;
#X connect 3 0 8 0;
#X connect 5 0 6 1;
#X connect 6 0 9 0;
#X connect 9 0 3 0;
#X connect 10 0 2 0;
#X connect 10 0 4 0;
#X connect 11 0 5 0;
#X connect 12 0 10 0;
#X connect 13 0 11 0;
#X restore 1510 210 pd convert;
#X obj 1210 620 nbx 5 25 -1e+37 1e+37 0 0 empty empty Octave 0 -8 0
10 #ffb547 #000000 #000000 3 256 0;
#X obj 1640 70 markov.chain;
#X obj 1640 100 sel 1 2 3;
#X obj 1510 150 delay 1000;
#N canvas 615 25 450 300 delay_seed 0;
#X text 184 97 Loop Length;
#X obj 90 120 r randomize;
#X obj 90 180 + 1000;
#X obj 91 149 random 3000;
#X obj 180 120 r noteLength;
#X obj 90 210 outlet;
#X connect 1 0 3 0;
#X connect 2 0 5 0;
#X connect 3 0 2 0;
#X connect 4 0 3 1;
#X restore 1520 90 pd delay_seed;
#X floatatom 1550 120 5 0 0 0 - - -, f 5;
#X obj 1510 180 random 8;
#X obj 1510 40 r bng;
#X obj 1310 650 chimes_instr~;
#X obj 1290 850 throw~ out;
#N canvas 273 287 854 589 convert 0;
#X obj 109 83 r \$0-scale_length;
#X text 127 122 <-- [mod ] handles negative numbers differently than
[% ];
#X obj 78 153 tabread \$0-scale;
#X floatatom 102 303 5 0 0 0 - - -, f 5;
#X floatatom 31 171 5 0 0 0 - - -, f 5;
#X obj 290 232 * 12;
#X obj 102 225 +;
#X text 158 266 <-- offset;
#X obj 97 350 outlet;
#X obj 102 267 + 12;
#X obj 76 122 mod 8;
#X floatatom 303 206 5 0 0 0 - - -, f 5;
#X obj 44 64 inlet;
#X obj 303 178 inlet;
#X text 301 156 Octave;
#X text 42 35 Note Number;
#X connect 0 0 10 1;
#X connect 2 0 6 0;
#X connect 3 0 8 0;
#X connect 5 0 6 1;
#X connect 6 0 9 0;
#X connect 9 0 3 0;
#X connect 10 0 2 0;
#X connect 10 0 4 0;
#X connect 11 0 5 0;
#X connect 12 0 10 0;
#X connect 13 0 11 0;
#X restore 1760 210 pd convert;
#X obj 1370 620 nbx 5 25 -1e+37 1e+37 0 0 empty empty Octave 0 -8 0
10 #bdffc7 #000000 #000000 6 256 0;
#X obj 1890 70 markov.chain;
#X obj 1890 100 sel 1 2 3;
#X obj 1760 150 delay 1000;
#N canvas 615 25 450 300 delay_seed 0;
#X text 184 97 Loop Length;
#X obj 90 120 r randomize;
#X obj 90 180 + 1000;
#X obj 91 149 random 3000;
#X obj 180 120 r noteLength;
#X obj 90 210 outlet;
#X connect 1 0 3 0;
#X connect 2 0 5 0;
#X connect 3 0 2 0;
#X connect 4 0 3 1;
#X restore 1770 90 pd delay_seed;
#X floatatom 1800 120 5 0 0 0 - - -, f 5;
#X obj 1760 180 random 8;
#X obj 1760 40 r bng;
#X obj 1470 650 chimes_instr~;
#X obj 1450 850 throw~ out;
#N canvas 273 287 854 589 convert 0;
#X obj 109 83 r \$0-scale_length;
#X text 127 122 <-- [mod ] handles negative numbers differently than
[% ];
#X obj 78 153 tabread \$0-scale;
#X floatatom 102 303 5 0 0 0 - - -, f 5;
#X floatatom 31 171 5 0 0 0 - - -, f 5;
#X obj 290 232 * 12;
#X obj 102 225 +;
#X text 158 266 <-- offset;
#X obj 97 350 outlet;
#X obj 102 267 + 12;
#X obj 76 122 mod 8;
#X floatatom 303 206 5 0 0 0 - - -, f 5;
#X obj 44 64 inlet;
#X obj 303 178 inlet;
#X text 301 156 Octave;
#X text 42 35 Note Number;
#X connect 0 0 10 1;
#X connect 2 0 6 0;
#X connect 3 0 8 0;
#X connect 5 0 6 1;
#X connect 6 0 9 0;
#X connect 9 0 3 0;
#X connect 10 0 2 0;
#X connect 10 0 4 0;
#X connect 11 0 5 0;
#X connect 12 0 10 0;
#X connect 13 0 11 0;
#X restore 1990 230 pd convert;
#X obj 1530 620 nbx 5 25 -1e+37 1e+37 0 0 empty empty Octave 0 -8 0
10 #bbb08a #000000 #000000 2 256 0;
#X obj 2130 70 markov.chain;
#X obj 2130 100 sel 1 2 3;
#X obj 2000 150 delay 1000;
#N canvas 615 25 450 300 delay_seed 0;
#X text 184 97 Loop Length;
#X obj 90 120 r randomize;
#X obj 90 180 + 1000;
#X obj 91 149 random 3000;
#X obj 180 120 r noteLength;
#X obj 90 210 outlet;
#X connect 1 0 3 0;
#X connect 2 0 5 0;
#X connect 3 0 2 0;
#X connect 4 0 3 1;
#X restore 2010 90 pd delay_seed;
#X floatatom 2040 120 5 0 0 0 - - -, f 5;
#X obj 2000 180 random 8;
#X obj 2000 40 r bng;
#X obj 1630 650 chimes_instr~;
#X obj 1610 840 throw~ out;
#N canvas 273 287 854 589 convert 0;
#X obj 109 83 r \$0-scale_length;
#X text 127 122 <-- [mod ] handles negative numbers differently than
[% ];
#X obj 78 153 tabread \$0-scale;
#X floatatom 102 303 5 0 0 0 - - -, f 5;
#X floatatom 31 171 5 0 0 0 - - -, f 5;
#X obj 290 232 * 12;
#X obj 102 225 +;
#X text 158 266 <-- offset;
#X obj 97 350 outlet;
#X obj 102 267 + 12;
#X obj 76 122 mod 8;
#X floatatom 303 206 5 0 0 0 - - -, f 5;
#X obj 44 64 inlet;
#X obj 303 178 inlet;
#X text 301 156 Octave;
#X text 42 35 Note Number;
#X connect 0 0 10 1;
#X connect 2 0 6 0;
#X connect 3 0 8 0;
#X connect 5 0 6 1;
#X connect 6 0 9 0;
#X connect 9 0 3 0;
#X connect 10 0 2 0;
#X connect 10 0 4 0;
#X connect 11 0 5 0;
#X connect 12 0 10 0;
#X connect 13 0 11 0;
#X restore 2250 210 pd convert;
#X obj 1690 620 nbx 5 25 -1e+37 1e+37 0 0 empty empty Octave 0 -8 0
10 #e4ff00 #000000 #000000 6 256 0;
#X obj 2380 70 markov.chain;
#X obj 2380 100 sel 1 2 3;
#X msg 2370 140 4;
#X obj 2250 150 delay 1000;
#N canvas 615 25 450 300 delay_seed 0;
#X text 184 97 Loop Length;
#X obj 90 120 r randomize;
#X obj 90 180 + 1000;
#X obj 91 149 random 3000;
#X obj 180 120 r noteLength;
#X obj 90 210 outlet;
#X connect 1 0 3 0;
#X connect 2 0 5 0;
#X connect 3 0 2 0;
#X connect 4 0 3 1;
#X restore 2260 90 pd delay_seed;
#X floatatom 2290 120 5 0 0 0 - - -, f 5;
#X obj 2250 180 random 8;
#X obj 2250 40 r bng;
#X msg 2160 140 4;
#X msg 1521 37 6;
#X msg 1630 140 6;
#X msg 1670 140 5;
#X msg 1710 140 3;
#X msg 1880 140 5;
#X msg 1920 140 5;
#X msg 1960 140 6;
#X msg 2120 140 5;
#X msg 2210 150 2;
#X msg 2410 140 6;
#X msg 2440 140 3;
#X obj 1000 460 vradio 20 0 0 16 empty empty empty 0 -8 0 10 #fcfcc4
#000000 #000000 0;
#X text 1030 460 Major (Ionian);
#X text 1030 520 Lydian;
#X text 1030 500 Phrygian;
#X text 1030 480 Minor;
#X text 1030 540 Melodic Minor;
#X text 1030 580 Natural Minor;
#X text 1030 600 Harmonic Minor;
#X obj 910 420 loadbang;
#X msg 910 440 0;
#X text 1030 560 Anatolia;
#X text 1030 620 Diatonic;
#X text 1030 640 Melodic Minor;
#X text 1030 660 Neapolitan;
#X text 1030 680 Melodic Minor;
#X text 1030 700 Harmonic Major;
#X text 1030 720 Harmonic Minor;
#X text 1030 740 Triad Dim7;
#X text 1030 760 Diatonic Y;
#N canvas 355 25 1325 892 scales 0;
#X obj 240 340 t l l;
#X obj 229 428 list length;
#X obj 113 530 s \$0-scale;
#X msg 151 495 resize \$1;
#X text 205 532 <-- this tells the array \$0-scale to fill the array
elements starting at element 0;
#X text 236 492 <-- set the array size to the number of tones in the
scale octave.;
#X obj 247 461 s \$0-scale_length;
#N canvas 0 22 450 278 (subpatch) 0;
#X array \$0-scale 7 float 3 black black;
#A 0 0 2 4 5 7 9 11;
#X coords 0 12 7 0 200 140 1;
#X restore 890 530 graph;
#X text 872 658 0;
#X text 857 515 12;
#X obj 106 462 list trim;
#X obj 104 429 list prepend 0;
#X msg 380 280 0 0 1 3 5 7 8 10;
#X obj 202 61 inlet;
#X floatatom 19 636 5 0 0 0 - - -, f 5;
#X floatatom 177 636 5 0 0 0 - - -, f 5;
#X floatatom 352 634 5 0 0 0 - - -, f 5;
#X floatatom 545 621 5 0 0 0 - - -, f 5;
#X floatatom 29 746 5 0 0 0 - - -, f 5;
#X floatatom 194 743 5 0 0 0 - - -, f 5;
#X floatatom 370 740 5 0 0 0 - - -, f 5;
#X floatatom 548 744 5 0 0 0 - - -, f 5;
#N canvas 273 287 854 589 convert 0;
#X obj 109 83 r \$0-scale_length;
#X text 127 122 <-- [mod ] handles negative numbers differently than
[% ];
#X obj 78 153 tabread \$0-scale;
#X floatatom 102 303 5 0 0 0 - - -, f 5;
#X floatatom 31 171 5 0 0 0 - - -, f 5;
#X obj 290 232 * 12;
#X obj 102 225 +;
#X text 158 266 <-- offset;
#X obj 97 350 outlet;
#X obj 102 267 + 12;
#X obj 76 122 mod 8;
#X floatatom 303 206 5 0 0 0 - - -, f 5;
#X obj 44 64 inlet;
#X obj 303 178 inlet;
#X text 301 156 Octave;
#X text 42 35 Note Number;
#X connect 0 0 10 1;
#X connect 2 0 6 0;
#X connect 3 0 8 0;
#X connect 5 0 6 1;
#X connect 6 0 9 0;
#X connect 9 0 3 0;
#X connect 10 0 2 0;
#X connect 10 0 4 0;
#X connect 11 0 5 0;
#X connect 12 0 10 0;
#X connect 13 0 11 0;
#X restore 18 662 pd convert;
#N canvas 273 287 854 589 convert 0;
#X obj 109 83 r \$0-scale_length;
#X text 127 122 <-- [mod ] handles negative numbers differently than
[% ];
#X obj 78 153 tabread \$0-scale;
#X floatatom 102 303 5 0 0 0 - - -, f 5;
#X floatatom 31 171 5 0 0 0 - - -, f 5;
#X obj 290 232 * 12;
#X obj 102 225 +;
#X text 158 266 <-- offset;
#X obj 97 350 outlet;
#X obj 102 267 + 12;
#X obj 76 122 mod 8;
#X floatatom 303 206 5 0 0 0 - - -, f 5;
#X obj 44 64 inlet;
#X obj 303 178 inlet;
#X text 301 156 Octave;
#X text 42 35 Note Number;
#X connect 0 0 10 1;
#X connect 2 0 6 0;
#X connect 3 0 8 0;
#X connect 5 0 6 1;
#X connect 6 0 9 0;
#X connect 9 0 3 0;
#X connect 10 0 2 0;
#X connect 10 0 4 0;
#X connect 11 0 5 0;
#X connect 12 0 10 0;
#X connect 13 0 11 0;
#X restore 180 665 pd convert;
#N canvas 273 287 854 589 convert 0;
#X obj 109 83 r \$0-scale_length;
#X text 127 122 <-- [mod ] handles negative numbers differently than
[% ];
#X obj 78 153 tabread \$0-scale;
#X floatatom 102 303 5 0 0 0 - - -, f 5;
#X floatatom 31 171 5 0 0 0 - - -, f 5;
#X obj 290 232 * 12;
#X obj 102 225 +;
#X text 158 266 <-- offset;
#X obj 97 350 outlet;
#X obj 102 267 + 12;
#X obj 76 122 mod 8;
#X floatatom 303 206 5 0 0 0 - - -, f 5;
#X obj 44 64 inlet;
#X obj 303 178 inlet;
#X text 301 156 Octave;
#X text 42 35 Note Number;
#X connect 0 0 10 1;
#X connect 2 0 6 0;
#X connect 3 0 8 0;
#X connect 5 0 6 1;
#X connect 6 0 9 0;
#X connect 9 0 3 0;
#X connect 10 0 2 0;
#X connect 10 0 4 0;
#X connect 11 0 5 0;
#X connect 12 0 10 0;
#X connect 13 0 11 0;
#X restore 353 664 pd convert;
#N canvas 273 287 854 589 convert 0;
#X obj 109 83 r \$0-scale_length;
#X text 127 122 <-- [mod ] handles negative numbers differently than
[% ];
#X obj 78 153 tabread \$0-scale;
#X floatatom 102 303 5 0 0 0 - - -, f 5;
#X floatatom 31 171 5 0 0 0 - - -, f 5;
#X obj 290 232 * 12;
#X obj 102 225 +;
#X text 158 266 <-- offset;
#X obj 97 350 outlet;
#X obj 102 267 + 12;
#X obj 76 122 mod 8;
#X floatatom 303 206 5 0 0 0 - - -, f 5;
#X obj 44 64 inlet;
#X obj 303 178 inlet;
#X text 301 156 Octave;
#X text 42 35 Note Number;
#X connect 0 0 10 1;
#X connect 2 0 6 0;
#X connect 3 0 8 0;
#X connect 5 0 6 1;
#X connect 6 0 9 0;
#X connect 9 0 3 0;
#X connect 10 0 2 0;
#X connect 10 0 4 0;
#X connect 11 0 5 0;
#X connect 12 0 10 0;
#X connect 13 0 11 0;
#X restore 544 649 pd convert;
#N canvas 273 287 854 589 convert 0;
#X obj 109 83 r \$0-scale_length;
#X text 127 122 <-- [mod ] handles negative numbers differently than
[% ];
#X obj 78 153 tabread \$0-scale;
#X floatatom 102 303 5 0 0 0 - - -, f 5;
#X floatatom 31 171 5 0 0 0 - - -, f 5;
#X obj 290 232 * 12;
#X obj 102 225 +;
#X text 158 266 <-- offset;
#X obj 97 350 outlet;
#X obj 102 267 + 12;
#X obj 76 122 mod 8;
#X floatatom 303 206 5 0 0 0 - - -, f 5;
#X obj 44 64 inlet;
#X obj 303 178 inlet;
#X text 301 156 Octave;
#X text 42 35 Note Number;
#X connect 0 0 10 1;
#X connect 2 0 6 0;
#X connect 3 0 8 0;
#X connect 5 0 6 1;
#X connect 6 0 9 0;
#X connect 9 0 3 0;
#X connect 10 0 2 0;
#X connect 10 0 4 0;
#X connect 11 0 5 0;
#X connect 12 0 10 0;
#X connect 13 0 11 0;
#X restore 28 772 pd convert;
#N canvas 273 287 854 589 convert 0;
#X obj 109 83 r \$0-scale_length;
#X text 127 122 <-- [mod ] handles negative numbers differently than
[% ];
#X obj 78 153 tabread \$0-scale;
#X floatatom 102 303 5 0 0 0 - - -, f 5;
#X floatatom 31 171 5 0 0 0 - - -, f 5;
#X obj 290 232 * 12;
#X obj 102 225 +;
#X text 158 266 <-- offset;
#X obj 97 350 outlet;
#X obj 102 267 + 12;
#X obj 76 122 mod 8;
#X floatatom 303 206 5 0 0 0 - - -, f 5;
#X obj 44 64 inlet;
#X obj 303 178 inlet;
#X text 301 156 Octave;
#X text 42 35 Note Number;
#X connect 0 0 10 1;
#X connect 2 0 6 0;
#X connect 3 0 8 0;
#X connect 5 0 6 1;
#X connect 6 0 9 0;
#X connect 9 0 3 0;
#X connect 10 0 2 0;
#X connect 10 0 4 0;
#X connect 11 0 5 0;
#X connect 12 0 10 0;
#X connect 13 0 11 0;
#X restore 195 774 pd convert;
#N canvas 273 287 854 589 convert 0;
#X obj 109 83 r \$0-scale_length;
#X text 127 122 <-- [mod ] handles negative numbers differently than
[% ];
#X obj 78 153 tabread \$0-scale;
#X floatatom 102 303 5 0 0 0 - - -, f 5;
#X floatatom 31 171 5 0 0 0 - - -, f 5;
#X obj 290 232 * 12;
#X obj 102 225 +;
#X text 158 266 <-- offset;
#X obj 97 350 outlet;
#X obj 102 267 + 12;
#X obj 76 122 mod 8;
#X floatatom 303 206 5 0 0 0 - - -, f 5;
#X obj 44 64 inlet;
#X obj 303 178 inlet;
#X text 301 156 Octave;
#X text 42 35 Note Number;
#X connect 0 0 10 1;
#X connect 2 0 6 0;
#X connect 3 0 8 0;
#X connect 5 0 6 1;
#X connect 6 0 9 0;
#X connect 9 0 3 0;
#X connect 10 0 2 0;
#X connect 10 0 4 0;
#X connect 11 0 5 0;
#X connect 12 0 10 0;
#X connect 13 0 11 0;
#X restore 373 774 pd convert;
#N canvas 273 287 854 589 convert 0;
#X obj 109 83 r \$0-scale_length;
#X text 127 122 <-- [mod ] handles negative numbers differently than
[% ];
#X obj 78 153 tabread \$0-scale;
#X floatatom 102 303 5 0 0 0 - - -, f 5;
#X floatatom 31 171 5 0 0 0 - - -, f 5;
#X obj 290 232 * 12;
#X obj 102 225 +;
#X text 158 266 <-- offset;
#X obj 97 350 outlet;
#X obj 102 267 + 12;
#X obj 76 122 mod 8;
#X floatatom 303 206 5 0 0 0 - - -, f 5;
#X obj 44 64 inlet;
#X obj 303 178 inlet;
#X text 301 156 Octave;
#X text 42 35 Note Number;
#X connect 0 0 10 1;
#X connect 2 0 6 0;
#X connect 3 0 8 0;
#X connect 5 0 6 1;
#X connect 6 0 9 0;
#X connect 9 0 3 0;
#X connect 10 0 2 0;
#X connect 10 0 4 0;
#X connect 11 0 5 0;
#X connect 12 0 10 0;
#X connect 13 0 11 0;
#X restore 547 775 pd convert;
#X obj 85 638 r octave1;
#X obj 19 689 s note1;
#X obj 180 701 s note2;
#X obj 354 699 s note3;
#X obj 544 685 s note4;
#X obj 28 808 s note5;
#X obj 195 810 s note6;
#X obj 373 810 s note7;
#X obj 548 811 s note8;
#X obj 247 636 r octave2;
#X obj 421 631 r octave3;
#X obj 611 618 r octave4;
#X obj 94 736 r octave5;
#X obj 261 738 r octave6;
#X obj 440 735 r octave7;
#X obj 614 742 r octave8;
#X text 890 690 1 1.22122e+06 0 \, 1 \, 3 \, 5 \, 6 \, 8 \, 10 Diatonic
7-35 Y Y 2 1.21222e+06 0 \, 1 \, 3 \, 4 \, 6 \, 8 \, 10 Melodic Minor
7-34 Y Y 3 1.12222e+06 0 \, 1 \, 2 \, 4 \, 6 \, 8 \, 10 Neapolitan
7-33 N Y 4 3.34343e+06 0 \, 1 \, 3 \, 5 \, 6 \, 8 \, 10 Diatonic 7-35
Y Y 5 3.34334e+06 0 \, 1 \, 3 \, 4 \, 6 \, 8 \, 10 Melodic Minor 7-34
Y Y 6 3.33443e+06 0 \, 1 \, 4 \, 5 \, 7 \, 9 \, 10 Harmonic Major 7-32
Y Implicit 7 3.33434e+06 0 \, 2 \, 3 \, 5 \, 7 \, 8 \, 11 Harmonic
Minor 7-32 Y Y 8 3.33344e+06 0 \, 1 \, 3 \, 5 \, 6 \, 9 Aug. Triad
& Dim.7 6-Z28 N N 9 5.55556e+06 0 \, 1 \, 3 \, 5 \, 6 \, 8 \, 10 Diatonic
7-35 Y Y;
#X msg 870 90 0 1 3 5 6 8 10;
#X text 990 90 Diatonic;
#X msg 870 140 0 1 3 4 6 8 10;
#X msg 870 190 0 1 2 4 6 8 10;
#X text 1000 140 Melodic Minor;
#X msg 870 240 0 1 3 4 6 8 10;
#X text 1000 190 Neapolitan;
#X text 998 240 Melodic Minor;
#X msg 870 290 0 1 4 5 7 9 10;
#X text 1000 290 Harmonic Major;
#X msg 870 350 0 2 3 5 7 8 11;
#X text 1010 350 Harmonic Minor;
#X msg 870 400 0 1 3 5 6 9;
#X text 1007 396 Triad Dim7;
#X msg 870 450 0 1 3 5 6 8 10;
#X text 1010 450 Diatonic Y;
#X obj 170 390 t l l;
#X obj 200 100 sel 0 1 2 3 4 5 6 7 8 9 10 11 12 13 14 15 16;
#X obj 100 580 unpack 0 0 0 0 0 0 0 0 0 0 0;
#X obj 10 530 s scale_list;
#X msg 40 160 0 2 3 5 7 8 10;
#X msg 130 190 0 2 4 6 7 9 11;
#X msg 200 220 0 2 4 5 7 9 11;
#X msg 310 250 0 2 3 5 7 9 11;
#X msg 470 310 0 1 3 5 7 10 11;
#X msg 560 340 0 2 3 5 7 9 10;
#X msg 650 370 0 2 3 5 7 8 11 \;;
#X connect 0 0 63 0;
#X connect 1 0 3 0;
#X connect 1 0 6 0;
#X connect 3 0 2 0;
#X connect 10 0 2 0;
#X connect 10 0 65 0;
#X connect 10 0 66 0;
#X connect 11 0 10 0;
#X connect 12 0 0 0;
#X connect 13 0 64 0;
#X connect 14 0 22 0;
#X connect 15 0 23 0;
#X connect 16 0 24 0;
#X connect 17 0 25 0;
#X connect 18 0 26 0;
#X connect 19 0 27 0;
#X connect 20 0 28 0;
#X connect 21 0 29 0;
#X connect 22 0 31 0;
#X connect 23 0 32 0;
#X connect 24 0 33 0;
#X connect 25 0 34 0;
#X connect 26 0 35 0;
#X connect 27 0 36 0;
#X connect 28 0 37 0;
#X connect 29 0 38 0;
#X connect 30 0 22 1;
#X connect 39 0 23 1;
#X connect 40 0 24 1;
#X connect 41 0 25 1;
#X connect 42 0 26 1;
#X connect 43 0 27 1;
#X connect 44 0 28 1;
#X connect 45 0 29 1;
#X connect 47 0 0 0;
#X connect 49 0 0 0;
#X connect 50 0 0 0;
#X connect 55 0 0 0;
#X connect 57 0 0 0;
#X connect 59 0 0 0;
#X connect 61 0 0 0;
#X connect 63 0 11 0;
#X connect 63 1 1 0;
#X connect 64 0 69 0;
#X connect 64 1 67 0;
#X connect 64 2 12 0;
#X connect 64 3 68 0;
#X connect 64 4 70 0;
#X connect 64 5 71 0;
#X connect 64 6 72 0;
#X connect 64 7 73 0;
#X connect 64 8 47 0;
#X connect 64 9 49 0;
#X connect 64 10 50 0;
#X connect 64 11 52 0;
#X connect 64 12 55 0;
#X connect 64 13 57 0;
#X connect 64 14 59 0;
#X connect 64 15 61 0;
#X connect 65 1 14 0;
#X connect 65 2 15 0;
#X connect 65 3 16 0;
#X connect 65 4 17 0;
#X connect 65 5 18 0;
#X connect 65 6 19 0;
#X connect 65 7 20 0;
#X connect 65 8 21 0;
#X connect 67 0 0 0;
#X connect 68 0 0 0;
#X connect 69 0 0 0;
#X connect 70 0 0 0;
#X connect 71 0 0 0;
#X connect 72 0 0 0;
#X connect 73 0 0 0;
#X restore 990 850 pd scales;
#X obj 890 850 s scl_change;
#X obj 1510 400 s noteLength;
#X obj 1520 380 nbx 10 30 -1e+37 1e+37 0 0 empty empty DelaySeedLength
0 -8 0 10 #ff2f92 #000000 #000000 100 256 0;
#X obj 1270 380 nbx 10 30 -1e+37 1e+37 0 0 empty empty LoopLength 0
-8 0 10 #00fa92 #000000 #000000 3005 256 0;
#X obj 1290 400 s lpLength;
#X obj 990 310 loadbang;
#X obj 1040 370 bng 80 250 50 0 empty empty Randomize 17 7 0 10 #ff688a
#000000 #000000;
#X obj 880 550 s randomize;
#X obj 1060 310 r scl_change;
#X connect 1 0 2 0;
#X connect 3 0 1 0;
#X connect 4 0 3 1;
#X connect 5 0 6 0;
#X connect 6 0 55 0;
#X connect 6 1 7 0;
#X connect 6 2 56 0;
#X connect 7 0 4 0;
#X connect 8 0 11 0;
#X connect 9 0 10 0;
#X connect 10 0 8 1;
#X connect 11 0 3 0;
#X connect 12 0 8 0;
#X connect 12 0 5 0;
#X connect 13 0 14 0;
#X connect 15 0 13 0;
#X connect 16 0 15 1;
#X connect 17 0 18 0;
#X connect 18 0 52 0;
#X connect 18 1 53 0;
#X connect 18 2 54 0;
#X connect 19 0 22 0;
#X connect 20 0 21 0;
#X connect 21 0 19 1;
#X connect 22 0 15 0;
#X connect 23 0 19 0;
#X connect 23 0 17 0;
#X connect 24 0 25 0;
#X connect 26 0 24 0;
#X connect 27 0 26 1;
#X connect 28 0 29 0;
#X connect 29 0 47 0;
#X connect 29 1 48 0;
#X connect 29 2 49 0;
#X connect 30 0 33 0;
#X connect 31 0 32 0;
#X connect 32 0 30 1;
#X connect 33 0 26 0;
#X connect 34 0 30 0;
#X connect 34 0 28 0;
#X connect 35 0 36 0;
#X connect 37 0 35 0;
#X connect 38 0 37 1;
#X connect 39 0 40 0;
#X connect 40 0 41 0;
#X connect 40 1 50 0;
#X connect 40 2 51 0;
#X connect 41 0 38 0;
#X connect 42 0 45 0;
#X connect 43 0 44 0;
#X connect 44 0 42 1;
#X connect 45 0 37 0;
#X connect 46 0 42 0;
#X connect 46 0 39 0;
#X connect 47 0 27 0;
#X connect 48 0 27 0;
#X connect 49 0 27 0;
#X connect 50 0 38 0;
#X connect 51 0 38 0;
#X connect 52 0 16 0;
#X connect 53 0 16 0;
#X connect 54 0 16 0;
#X connect 55 0 4 0;
#X connect 56 0 4 0;
#X connect 57 0 58 0;
#X connect 59 0 57 0;
#X connect 60 0 59 1;
#X connect 61 0 62 0;
#X connect 62 0 104 0;
#X connect 62 1 105 0;
#X connect 62 2 106 0;
#X connect 63 0 66 0;
#X connect 64 0 65 0;
#X connect 65 0 63 1;
#X connect 66 0 59 0;
#X connect 67 0 63 0;
#X connect 67 0 61 0;
#X connect 68 0 69 0;
#X connect 70 0 68 0;
#X connect 71 0 70 1;
#X connect 72 0 73 0;
#X connect 73 0 107 0;
#X connect 73 1 108 0;
#X connect 73 2 109 0;
#X connect 74 0 77 0;
#X connect 75 0 76 0;
#X connect 76 0 74 1;
#X connect 77 0 70 0;
#X connect 78 0 74 0;
#X connect 78 0 72 0;
#X connect 79 0 80 0;
#X connect 81 0 79 0;
#X connect 82 0 81 1;
#X connect 83 0 84 0;
#X connect 84 0 110 0;
#X connect 84 1 102 0;
#X connect 84 2 111 0;
#X connect 85 0 88 0;
#X connect 86 0 87 0;
#X connect 87 0 85 1;
#X connect 88 0 81 0;
#X connect 89 0 85 0;
#X connect 89 0 83 0;
#X connect 90 0 91 0;
#X connect 92 0 90 0;
#X connect 93 0 92 1;
#X connect 94 0 95 0;
#X connect 95 0 96 0;
#X connect 95 1 112 0;
#X connect 95 2 103 0;
#X connect 95 3 113 0;
#X connect 96 0 93 0;
#X connect 97 0 100 0;
#X connect 98 0 99 0;
#X connect 99 0 97 1;
#X connect 100 0 92 0;
#X connect 101 0 97 0;
#X connect 101 0 94 0;
#X connect 102 0 82 0;
#X connect 103 0 93 0;
#X connect 104 0 60 0;
#X connect 105 0 60 0;
#X connect 106 0 60 0;
#X connect 107 0 71 0;
#X connect 108 0 71 0;
#X connect 109 0 71 0;
#X connect 110 0 82 0;
#X connect 111 0 82 0;
#X connect 112 0 93 0;
#X connect 113 0 93 0;
#X connect 114 0 133 0;
#X connect 114 0 134 0;
#X connect 122 0 123 0;
#X connect 123 0 114 0;
#X connect 136 0 135 0;
#X connect 137 0 138 0;
#X connect 139 0 140 0;
#X connect 140 0 141 0;
#X connect 142 0 140 0;
#X coords 0 -1 1 1 802 454 1 989 359;
