#N canvas 273 287 854 589 12;
#X obj 109 83 r \$0-scale_length;
#X text 127 122 <-- [mod ] handles negative numbers differently than
[% ];
#X obj 78 153 tabread \$0-scale;
#X floatatom 102 303 5 0 0 0 - - -, f 5;
#X floatatom 31 171 5 0 0 0 - - -, f 5;
#X obj 290 232 * 12;
#X obj 102 225 +;
#X text 158 266 <-- offset;
#X obj 97 350 outlet;
#X obj 102 267 + 12;
#X obj 76 122 mod 8;
#X floatatom 303 206 5 0 0 0 - - -, f 5;
#X obj 44 64 inlet;
#X obj 303 178 inlet;
#X text 301 156 Octave;
#X text 42 35 Note Number;
#X connect 0 0 10 1;
#X connect 2 0 6 0;
#X connect 3 0 8 0;
#X connect 5 0 6 1;
#X connect 6 0 9 0;
#X connect 9 0 3 0;
#X connect 10 0 2 0;
#X connect 10 0 4 0;
#X connect 11 0 5 0;
#X connect 12 0 10 0;
#X connect 13 0 11 0;
