#N canvas 437 169 1138 724 12;
#X obj 90 100 cnv 15 500 348 empty empty empty 20 12 0 14 #74e4dc #404040
0;
#X obj 123 224 hsl 128 15 220.5 22050 1 0 param3 param3 damping -2
-8 0 10 #f8fc00 #000000 #000000 0 0;
#X floatatom 255 223 10 0 0 0 - param3 damping, f 10;
#X obj 123 255 hsl 128 15 0 1 0 0 param4 param4 decay -2 -8 0 10 #f8fc00
#000000 #000000 0 0;
#X floatatom 255 254 10 0 0 0 - param4 decay, f 10;
#X obj 123 159 hsl 128 15 0 250 0 0 param1 param1 predelay -2 -8 0
10 #f8fc00 #000000 #000000 0 0;
#X floatatom 255 159 10 0 0 0 - param1 predelay, f 10;
#X obj 123 192 hsl 128 15 220.5 22050 1 0 param2 param2 bandwidth -2
-8 0 10 #f8fc00 #000000 #000000 0 0;
#X floatatom 255 191 10 0 0 0 - param2 bandwidth, f 10;
#X obj 123 323 hsl 128 15 0 1 0 0 param6 param6 input_diffusion_2 -2
-8 0 10 #fce0c4 #000000 #000000 0 0;
#X floatatom 254 322 10 0 0 0 - param6 input_diffusion2, f 10;
#X obj 123 288 hsl 128 15 0 1 0 0 param5 param5 input_diffusion_1 -2
-8 0 10 #fce0c4 #000000 #000000 0 0;
#X floatatom 255 287 10 0 0 0 - param5 input_diffusion1, f 10;
#X obj 121 387 hsl 128 15 0 1 0 0 param8 param8 decay_diffusion_2 -2
-8 0 10 #fce0c4 #000000 #000000 0 0;
#X floatatom 253 386 10 0 0 0 - param8 decay_diffusion2, f 10;
#X obj 122 354 hsl 128 15 0 1 0 0 param7 param7 decay_diffusion_1 -2
-8 0 10 #fce0c4 #000000 #000000 0 0;
#X floatatom 254 353 10 0 0 0 - param7 decay_diffusion1, f 10;
#X obj 121 419 hsl 128 15 0 5 0 0 param9 param9 excursion -2 -8 0 10
#c4fcc4 #000000 #000000 0 0;
#X floatatom 253 418 10 0 0 0 - param9 excursion, f 10;
#X msg 620 150 default;
#X msg 870 150 huge;
#X msg 910 150 huge_noexcursion;
#X msg 820 150 large;
#X msg 690 150 large_noexcursion;
#X msg 1030 150 tadada;
#X msg 1020 230 metallic;
#X msg 930 230 bubblebath;
#N canvas 15 98 678 492 preset_loader 0;
#X obj 40 26 inlet;
#X msg 43 122 \; param1 0 \; param2 22050 \; param3 22050 \; param4
0.5 \; param5 0.75 \; param6 0.625 \; param7 0.7 \; param8 0.5 \; param9
0.53761 \;;
#X msg 19 306 \; param1 0 \; param2 10000 \; param3 4637 \; param4
0.98 \; param5 0.685 \; param6 0.779 \; param7 0.74 \; param8 0.68
\; param9 0.53761 \;;
#X msg 199 123 \; param1 0 \; param2 10000 \; param3 4637 \; param4
0.98 \; param5 0.685 \; param6 0.779 \; param7 0.74 \; param8 0.68
\; param9 0 \;;
#X msg 181 303 \; param1 10 \; param2 10000 \; param3 4637 \; param4
0.99 \; param5 0.685 \; param6 0.779 \; param7 0.889 \; param8 0.84
\; param9 0.53761 \;;
#X msg 359 131 \; param1 10 \; param2 10000 \; param3 4637 \; param4
0.99 \; param5 0.685 \; param6 0.779 \; param7 0.889 \; param8 0.84
\; param9 0 \;;
#X msg 346 302 \; param1 216.535 \; param2 22050 \; param3 22050 \;
param4 0.677165 \; param5 0.850394 \; param6 0.92126 \; param7 0.80315
\; param8 0.818898 \; param9 0.11811 \;;
#X obj 39 70 route default large large_noexcursion huge huge_noexcursion
tadada;
#X connect 0 0 7 0;
#X connect 7 0 1 0;
#X connect 7 1 2 0;
#X connect 7 2 3 0;
#X connect 7 3 4 0;
#X connect 7 4 5 0;
#X connect 7 5 6 0;
#X restore 780 250 pd preset_loader;
#N canvas 15 98 678 492 preset_loader 0;
#X obj 40 26 inlet;
#X msg 39 203 \; param1 0 \; param2 22050 \; param3 22050 \; param4
0.653543 \; param5 0.629921 \; param6 0.409449 \; param7 0.889764 \;
param8 0.866142 \; param9 0 \;;
#X msg 209 204 \; param1 0 \; param2 2894.14 \; param3 22050 \; param4
0.92126 \; param5 0.897638 \; param6 0.299213 \; param7 0.984252 \;
param8 0.944882 \; param9 0.393701 \;;
#X obj 39 70 route metallic bubblebath;
#X connect 0 0 3 0;
#X connect 3 0 1 0;
#X connect 3 1 2 0;
#X restore 930 259 pd preset_loader;
#N canvas 0 50 462 311 dry 0;
#X obj 75 73 inlet;
#X obj 182 45 inlet;
#X obj 77 201 s dry;
#X obj 76 149 * 1;
#X obj 181 79 dbtorms;
#X obj 181 109 t b a;
#X connect 0 0 3 0;
#X connect 1 0 4 0;
#X connect 3 0 2 0;
#X connect 4 0 5 0;
#X connect 5 0 3 0;
#X connect 5 1 3 1;
#X restore 370 180 pd dry;
#X obj 370 159 tgl 15 1 empty empty empty 17 7 0 10 #c4c4fc #000000
#000000 1 1;
#X obj 460 160 tgl 15 1 empty empty empty 17 7 0 10 #c4c4fc #000000
#000000 1 1;
#N canvas 0 50 470 319 wet 0;
#X obj 75 73 inlet;
#X obj 162 43 inlet;
#X obj 76 149 * 1;
#X obj 161 80 dbtorms;
#X obj 77 201 s wet;
#X obj 162 111 t b a;
#X connect 0 0 2 0;
#X connect 1 0 3 0;
#X connect 2 0 4 0;
#X connect 3 0 5 0;
#X connect 5 0 2 0;
#X connect 5 1 2 1;
#X restore 460 180 pd wet;
#X obj 410 160 nbx 3 14 -1e+37 1e+37 0 1 empty empty empty 0 -8 0 10
#fcfcfc #000000 #000000 96 256 0;
#X obj 503 160 nbx 3 14 -1e+37 1e+37 0 1 empty empty empty 0 -8 0 10
#fcfcfc #000000 #000000 95 256 0;
#X text 400 130 DRY/WET OUTPUT;
#X obj 390 240 vradio 20 0 0 8 empty empty Room 0 -8 0 10 #8efa00 #000000
#000000 0;
#X text 420 240 Dry Room;
#X text 420 260 Large No Exruction;
#X text 420 280 Large;
#X text 420 300 Huge;
#X text 420 320 Huge No Exruction;
#X text 420 340 Air;
#X obj 780 90 sel 0 1 2 3 4 5 6 7;
#X text 420 360 BubbleBath;
#X text 420 380 Metallic;
#X obj 780 380 jon~;
#N canvas 67 89 387 608 receive_params 0;
#X msg 58 293 input_diffusion1 \$1;
#X msg 70 349 input_diffusion2 \$1;
#X msg 78 410 decay_diffusion1 \$1;
#X msg 87 469 decay_diffusion2 \$1;
#X msg 33 75 predelay \$1;
#X msg 33 132 bandwidth \$1;
#X msg 33 183 damping \$1;
#X msg 33 238 decay \$1;
#X msg 125 533 excursion \$1;
#X obj 33 547 outlet;
#X obj 33 48 r predelay;
#X obj 33 105 r bandwidth;
#X obj 33 159 r damping;
#X obj 33 213 r decay;
#X obj 58 268 r input_diffusion1;
#X obj 70 322 r input_diffusion2;
#X obj 78 383 r decay_diffusion1;
#X obj 87 442 r decay_diffusion2;
#X obj 125 503 r excursion;
#X connect 0 0 9 0;
#X connect 1 0 9 0;
#X connect 2 0 9 0;
#X connect 3 0 9 0;
#X connect 4 0 9 0;
#X connect 5 0 9 0;
#X connect 6 0 9 0;
#X connect 7 0 9 0;
#X connect 8 0 9 0;
#X connect 10 0 4 0;
#X connect 11 0 5 0;
#X connect 12 0 6 0;
#X connect 13 0 7 0;
#X connect 14 0 0 0;
#X connect 15 0 1 0;
#X connect 16 0 2 0;
#X connect 17 0 3 0;
#X connect 18 0 8 0;
#X restore 828 347 pd receive_params;
#X obj 758 337 inlet~;
#X obj 738 427 outlet~;
#X obj 818 417 outlet~;
#X connect 19 0 27 0;
#X connect 20 0 27 0;
#X connect 21 0 27 0;
#X connect 22 0 27 0;
#X connect 23 0 27 0;
#X connect 24 0 27 0;
#X connect 25 0 28 0;
#X connect 26 0 28 0;
#X connect 30 0 29 0;
#X connect 31 0 32 0;
#X connect 33 0 29 1;
#X connect 34 0 32 1;
#X connect 36 0 43 0;
#X connect 43 0 19 0;
#X connect 43 1 23 0;
#X connect 43 2 22 0;
#X connect 43 3 20 0;
#X connect 43 4 21 0;
#X connect 43 5 24 0;
#X connect 43 7 26 0;
#X connect 43 8 25 0;
#X connect 46 0 49 0;
#X connect 46 1 50 0;
#X connect 47 0 46 2;
#X connect 48 0 46 0;
#X connect 48 0 46 1;
#X coords 0 -1 1 1 505 352 1 88 98;
