#N canvas 418 256 1196 523 12;
#X obj 370 276 +~;
#X obj 280 380 vcf~;
#X obj 370 300 tabread4~ mtof;
#X text 960 110 <-- Q (selectivity);
#X text 310 110 <-- sweep speed;
#X text 330 170 LFO for sweep;
#X text 520 110 <-- sweep depth;
#X text 703 110 <-- base center frequency;
#X text 420 270 add base to sweep;
#X text 464 300 convert to Hz.;
#X obj 270 170 phasor~;
#X obj 360 220 *~;
#X obj 70 110 inlet~;
#X obj 280 460 outlet~;
#X obj 260 110 inlet;
#X obj 480 110 inlet;
#X text 120 110 <-- input signal;
#X obj 660 110 inlet;
#X obj 910 110 inlet;
#X connect 0 0 2 0;
#X connect 1 0 13 0;
#X connect 2 0 1 1;
#X connect 10 0 11 0;
#X connect 11 0 0 0;
#X connect 12 0 1 0;
#X connect 14 0 10 0;
#X connect 15 0 11 1;
#X connect 17 0 0 1;
#X connect 18 0 1 2;
