#N canvas 395 66 809 850 10;
#X obj 30 159 bng 15 250 50 0 empty empty empty 20 8 0 8 #fcfcfc #000000
#000000;
#X obj 30 265 bng 15 250 50 0 empty empty empty 20 8 0 8 #fcfcfc #000000
#000000;
#X obj 75 265 bng 15 250 50 0 empty empty empty 20 8 0 8 #fcfcfc #000000
#000000;
#X obj 120 265 bng 15 250 50 0 empty empty empty 20 8 0 8 #fcfcfc #000000
#000000;
#X msg 30 285 1;
#X msg 75 285 2;
#X msg 120 285 3;
#X obj 30 325 s state;
#X obj 30 50 bng 20 250 50 0 empty empty empty 20 8 0 8 #fcfcfc #000000
#000000;
#X obj 160 10 r state;
#X obj 30 112 sel 1 2 3;
#X obj 172 159 bng 15 250 50 0 empty empty empty 20 8 0 8 #fcfcfc #000000
#000000;
#X obj 172 265 bng 15 250 50 0 empty empty empty 20 8 0 8 #fcfcfc #000000
#000000;
#X obj 217 265 bng 15 250 50 0 empty empty empty 20 8 0 8 #fcfcfc #000000
#000000;
#X obj 262 265 bng 15 250 50 0 empty empty empty 20 8 0 8 #fcfcfc #000000
#000000;
#X msg 172 285 1;
#X msg 217 285 2;
#X msg 262 285 3;
#X obj 172 325 s state;
#X obj 319 159 bng 15 250 50 0 empty empty empty 20 8 0 8 #fcfcfc #000000
#000000;
#X obj 319 265 bng 15 250 50 0 empty empty empty 20 8 0 8 #fcfcfc #000000
#000000;
#X obj 364 265 bng 15 250 50 0 empty empty empty 20 8 0 8 #fcfcfc #000000
#000000;
#X obj 409 265 bng 15 250 50 0 empty empty empty 20 8 0 8 #fcfcfc #000000
#000000;
#X msg 319 285 1;
#X msg 364 285 2;
#X msg 409 285 3;
#X obj 319 325 s state;
#X obj 30 86 f 1;
#X obj 30 184 random 100;
#X obj 30 211 moses 30;
#X obj 75 238 moses 60;
#X obj 172 183 random 100;
#X obj 172 211 moses 10;
#X obj 217 238 moses 60;
#X obj 319 183 random 100;
#X obj 319 211 moses 70;
#X obj 364 238 moses 80;
#X text 60 10 STEP;
#X obj 160 40 outlet;
#X obj 20 10 inlet;
#X connect 0 0 28 0;
#X connect 1 0 4 0;
#X connect 2 0 5 0;
#X connect 3 0 6 0;
#X connect 4 0 7 0;
#X connect 5 0 7 0;
#X connect 6 0 7 0;
#X connect 8 0 27 0;
#X connect 9 0 27 1;
#X connect 9 0 38 0;
#X connect 10 0 0 0;
#X connect 10 1 11 0;
#X connect 10 2 19 0;
#X connect 11 0 31 0;
#X connect 12 0 15 0;
#X connect 13 0 16 0;
#X connect 14 0 17 0;
#X connect 15 0 18 0;
#X connect 16 0 18 0;
#X connect 17 0 18 0;
#X connect 19 0 34 0;
#X connect 20 0 23 0;
#X connect 21 0 24 0;
#X connect 22 0 25 0;
#X connect 23 0 26 0;
#X connect 24 0 26 0;
#X connect 25 0 26 0;
#X connect 27 0 10 0;
#X connect 28 0 29 0;
#X connect 29 0 1 0;
#X connect 29 1 30 0;
#X connect 30 0 2 0;
#X connect 30 1 3 0;
#X connect 31 0 32 0;
#X connect 32 0 12 0;
#X connect 32 1 33 0;
#X connect 33 0 13 0;
#X connect 33 1 14 0;
#X connect 34 0 35 0;
#X connect 35 0 20 0;
#X connect 35 1 36 0;
#X connect 36 0 21 0;
#X connect 36 1 22 0;
#X connect 39 0 8 0;
