#N canvas 0 0 2562 1346 12;
#X obj 260 270 nbx 3 12 -1e+37 1e+37 0 0 empty empty Octave -1 -5 0
7 #c0c0c0 #000000 #000000 3 256 0;
#X obj 73 246 random 8;
#X obj 47 163 inlet;
#X obj 220 270 nbx 3 12 -1e+37 1e+37 0 0 empty empty Note 0 -6 0 7
#c0c0c0 #000000 #000000 14 256 0;
#X obj 75 193 bng 32 250 50 0 empty empty empty 17 7 0 10 #fcfcfc #000000
#000000;
#X obj 250 125 random 3;
#X obj 250 161 sel 0 1 2 3;
#X msg 288 208 2;
#X msg 332 210 3;
#X msg 240 207 4;
#X msg 380 213 4;
#X obj 215 524 outlet;
#X obj 132 376 pitch_to_scale;
#X obj 570 122 inlet;
#X text 572 92 scale;
#X obj 288 410 * 12;
#X obj 218 482 +;
#X connect 0 0 15 0;
#X connect 1 0 12 0;
#X connect 2 0 4 0;
#X connect 4 0 1 0;
#X connect 4 0 5 0;
#X connect 5 0 6 0;
#X connect 6 0 9 0;
#X connect 6 1 7 0;
#X connect 6 2 8 0;
#X connect 6 3 10 0;
#X connect 7 0 0 0;
#X connect 8 0 0 0;
#X connect 9 0 0 0;
#X connect 10 0 0 0;
#X connect 12 0 3 0;
#X connect 12 0 16 0;
#X connect 13 0 12 1;
#X connect 15 0 16 1;
#X connect 16 0 11 0;
#X coords 0 -1 1 1 82 43 1 214 243;
