#N canvas 700 278 1224 938 10;
#X obj 689 231 r toggle;
#X obj 849 225 r noteLength;
#X obj 330 400 throw~ vangex;
#X obj 385 278 vangex_tape_looper;
#X obj 545 104 note_gen;
#X obj 578 72 r scaleList;
#X obj 668 74 r scaleLength;
#X obj 730 360 s all_note_trig;
#X obj 765 226 r lpLength;
#X obj 550 406 throw~ vangex;
#X obj 330 366 *~ 0.1;
#X obj 550 370 *~ 0.1;
#X obj 543 30 r clock;
#X obj 854 146 metro;
#X obj 846 108 tgl 15 0 empty empty empty 17 7 0 10 #fcfcfc #000000
#000000 0 1;
#X floatatom 886 108 5 0 0 0 - - -, f 5;
#X obj 856 182 s clock;
#X obj 159 50 r r_xAxis;
#X obj 84 48 r r_yAxis;
#X floatatom 118 78 5 0 0 0 - - -, f 5;
#X floatatom 160 78 5 0 0 0 - - -, f 5;
#X obj 118 102 atan2;
#X obj 117 130 abs;
#X floatatom 119 160 5 0 0 0 - - -, f 5;
#X obj 91 256 maxlib/scale -1.5 1.5 0 1;
#X obj 289 59 r r_lightSensitivity;
#X floatatom 289 88 5 0 0 0 - - -, f 5;
#X obj 103 212 maxlib/scale -1.5 1.5 -6 6;
#X obj 287 128 maxlib/scale 0 500 -6 6;
#X connect 3 0 10 0;
#X connect 3 1 11 0;
#X connect 4 0 3 0;
#X connect 5 0 4 1;
#X connect 10 0 2 0;
#X connect 11 0 9 0;
#X connect 12 0 4 0;
#X connect 13 0 16 0;
#X connect 14 0 13 0;
#X connect 15 0 13 1;
#X connect 17 0 20 0;
#X connect 18 0 19 0;
#X connect 19 0 21 0;
#X connect 20 0 21 1;
#X connect 21 0 22 0;
#X connect 22 0 23 0;
#X connect 23 0 24 0;
#X connect 23 0 27 0;
#X connect 24 0 3 1;
#X connect 24 0 3 2;
#X connect 25 0 26 0;
#X connect 26 0 28 0;
#X connect 27 0 3 3;
#X connect 27 0 3 4;
