#N canvas 518 267 1253 591 12;
#X obj 194 167 r \$0-scale_length;
#X text 143 196 <-- [mod ] handles negative numbers differently than
[% ];
#X obj 89 225 tabread \$0-scale;
#X floatatom 99 387 5 0 0 0 - - -, f 5;
#X floatatom 50 232 5 0 0 0 - - -, f 5;
#X obj 153 294 * 12;
#X obj 99 309 +;
#X text 218 250 <-- division that discards the remainder. This tells
you what octave to use.;
#X text 155 350 <-- offset;
#X obj 99 416 outlet;
#X obj 99 351 + 12;
#X obj 90 196 mod 8;
#X obj 174 250 div 8;
#X obj 96 118 inlet;
#N canvas 0 22 450 278 (subpatch) 0;
#X array \$0-scale 7 float 3 black black;
#A 0 0 2 4 5 7 9 11;
#X coords 0 12 7 0 200 140 1;
#X restore 712 134 graph;
#X obj 410 41 inlet;
#X obj 410 78 s \$0-scale;
#X obj 96 151 t f f;
#X connect 0 0 11 1;
#X connect 0 0 12 1;
#X connect 2 0 6 0;
#X connect 3 0 9 0;
#X connect 5 0 6 1;
#X connect 6 0 10 0;
#X connect 10 0 3 0;
#X connect 11 0 2 0;
#X connect 11 0 4 0;
#X connect 12 0 5 0;
#X connect 13 0 17 0;
#X connect 15 0 16 0;
#X connect 17 0 11 0;
#X connect 17 1 12 0;
