#N canvas 0 25 1680 913 10;
#X obj 550 30 noise~;
#X obj 565 94 bp~ 4000 10;
#X obj 550 121 *~;
#X obj 565 148 lop~ 500;
#X obj 550 175 *~;
#X obj 570 229 delwrite~ \$0-noise1 500;
#X obj 530 254 delread~ \$0-noise1 500;
#X obj 515 281 *~;
#X obj 515 84 *~;
#X obj 515 111 +~;
#X obj 550 202 lop~ 500;
#X obj 550 281 *~ 0.5;
#X obj 600 298 +~;
#X obj 515 325 +~;
#X obj 654 293 hip~;
#X obj 639 320 +~;
#X obj 639 374 *~;
#X obj 515 347 *~;
#X obj 515 369 clip~ -1 1;
#X obj 515 391 +~;
#X obj 547 330 r~ \$0-drp-gan;
#X obj 675 271 r \$0-hip;
#X obj 610 126 r \$0-drp-amt;
#X obj 595 180 r \$0-drp-sze;
#X obj 654 347 r~ \$0-wnd;
#X obj 530 57 r~ \$0-crk;
#X obj 596 67 r \$0-sze;
#X obj 658 77 r \$0-int;
#X obj 770 30 noise~;
#X obj 785 94 bp~ 4000 10;
#X obj 770 121 *~;
#X obj 785 148 lop~ 500;
#X obj 770 175 *~;
#X obj 735 281 *~;
#X obj 735 84 *~;
#X obj 735 111 +~;
#X obj 770 202 lop~ 500;
#X obj 770 281 *~ 0.5;
#X obj 735 325 +~;
#X obj 874 293 hip~;
#X obj 859 320 +~;
#X obj 859 374 *~;
#X obj 735 347 *~;
#X obj 735 369 clip~ -1 1;
#X obj 735 391 +~;
#X obj 767 330 r~ \$0-drp-gan;
#X obj 895 271 r \$0-hip;
#X obj 830 126 r \$0-drp-amt;
#X obj 815 180 r \$0-drp-sze;
#X obj 874 347 r~ \$0-wnd;
#X obj 750 57 r~ \$0-crk;
#X obj 816 67 r \$0-sze;
#X obj 878 77 r \$0-int;
#X obj 790 229 delwrite~ \$0-noise2 500;
#X obj 750 254 delread~ \$0-noise2 500;
#X obj 515 457 clip~ -1 1;
#X obj 735 457 clip~ -1 1;
#X obj 515 413 hip~ 3;
#X obj 735 413 hip~ 3;
#X obj 515 435 *~ 0.7;
#X obj 735 435 *~ 0.7;
#X obj 1110 100 cnv 15 300 144 empty empty noise_gen\  5 5 0 14 #212121
#0096ff 0;
#X obj 1120 190 hsl 128 17 0 127 0 1 empty noise_param5 WINDINESS -2
-8 0 10 #009193 #000000 #0096ff 400 1;
#X obj 1240 390 / 127;
#X msg 1240 456 \$1 20;
#X obj 1240 478 line~;
#X floatatom 1240 434 0 0 1 0 - - -;
#X obj 1240 500 s~ \$0-wnd;
#X obj 1270 190 hsl 128 17 0 127 0 1 empty noise_param6 DROP-GAIN -2
-8 0 10 #009193 #000000 #0096ff 1100 1;
#X obj 1310 410 / 127;
#X msg 1310 454 \$1 20;
#X obj 1310 476 line~;
#X floatatom 1310 432 0 0 1 0 - - -;
#X obj 1310 498 s~ \$0-drp-gan;
#X obj 1120 220 hsl 128 17 0 127 0 1 empty noise_param7 DROP-SIZE -2
-8 0 10 #009193 #000000 #0096ff 12100 1;
#X obj 1400 370 / 127;
#X msg 1400 414 2 \$1;
#X obj 1400 436 pow;
#X obj 1270 220 hsl 128 17 0 127 0 1 empty noise_param8 SIZE -2 -8
0 10 #009193 #000000 #0096ff 750 1;
#X obj 1480 370 / 127;
#X msg 1480 414 2 \$1;
#X obj 1480 436 pow;
#X obj 1400 458 * 250;
#X obj 1480 458 * 250;
#X floatatom 1400 480 0 0 0 1 - - -;
#X obj 1400 392 * 6;
#X obj 1400 502 s \$0-drp-sze;
#X obj 1480 392 * 6;
#X floatatom 1480 480 0 0 0 1 - - -;
#X obj 1480 502 s \$0-sze;
#X obj 1240 412 pow 4;
#X obj 1120 160 hsl 128 17 0 127 0 1 empty noise_param3 DROP-AMOUNT
-2 -8 0 10 #009193 #0096ff #0096ff 1500 1;
#X obj 1110 390 / 127;
#X obj 1270 160 hsl 128 17 0 127 0 1 empty noise_param4 INTENSITY -2
-8 0 10 #009193 #000000 #0096ff 1100 1;
#X obj 1190 390 / 127;
#X msg 1190 478 2 \$1;
#X obj 1190 500 pow;
#X obj 1190 522 * 0.7;
#X floatatom 1190 544 0 0 0 0 - - -;
#X obj 1190 566 s \$0-int;
#X obj 1190 456 * 5;
#X msg 1190 412 1 \$1;
#X obj 1190 434 -;
#X msg 1110 434 2 \$1;
#X obj 1110 456 pow;
#X obj 1110 478 * 250;
#X obj 1110 412 * 6;
#X floatatom 1110 500 0 0 0 1 - - -;
#X obj 1110 522 s \$0-drp-amt;
#X obj 1120 130 hsl 128 17 0 127 0 1 empty noise_param1 CRACKLES -2
-8 0 10 #009193 #000000 #0096ff 1700 1;
#X obj 980 400 / 127;
#X msg 980 444 \$1 20;
#X obj 980 466 line~;
#X obj 980 488 s~ \$0-crk;
#X obj 1270 130 hsl 128 17 0 127 0 1 empty noise_param2 HIPASS -2 -8
0 10 #009193 #000000 #0096ff 1200 1;
#X obj 1050 390 / 127;
#X floatatom 980 422 0 0 1 0 - - -;
#X msg 1050 434 2 \$1;
#X obj 1050 456 pow;
#X obj 1050 412 * 14;
#X floatatom 1050 478 0 0 0 1 Hz - -;
#X obj 1050 500 s \$0-hip;
#X obj 522 642 outlet~;
#X obj 716 664 outlet~;
#X floatatom 1460 260 5 0 0 0 - - -, f 5;
#X obj 520 490 *~ 0.8;
#X obj 740 490 *~ 0.8;
#X obj 740 611 *~;
#X obj 1217 318 hsl 156 11 0 1 0 0 empty mix_noise Volume -41 3 0 10
#ff7e79 #000000 #ffffff 13640 1;
#X obj 520 613 *~;
#X obj 1470 295 loadbang;
#X msg 1470 317 0.4;
#X obj 1650 -219 r r_atmPressure;
#X obj 1530 -219 r r_seaPressure;
#X obj 1680 -20 r r_temperature;
#X obj 1520 90 r r_humidity;
#X obj 1080 -190 r r_lightSensitivity;
#X floatatom 1650 -190 10 0 0 0 - - -, f 10;
#X floatatom 1530 -190 10 0 0 0 - - -, f 10;
#X floatatom 1520 119 5 0 0 0 - - -, f 5;
#X floatatom 1080 -161 10 0 0 0 - - -, f 10;
#X text 1640 -159 1 atm 101.325 Pa;
#X text 1010 -220 Wide range and high resolution (1 - 65535 lx);
#X floatatom 1080 -101 7 0 0 0 - - -, f 7;
#X obj 1100 -70 int;
#X obj 1100 -40 change;
#X floatatom 1680 59 9 0 0 0 - - -, f 9;
#X obj 1680 90 change;
#X floatatom 1520 169 7 0 0 0 - - -, f 7;
#X obj 1520 190 int;
#X obj 1520 210 change;
#X floatatom 1460 0 9 0 0 0 - - -, f 9;
#X obj 1600 -159 -;
#X floatatom 1600 -130 10 0 0 0 - - -, f 10;
#X obj 1460 -30 change;
#X floatatom 1100 -15 5 0 0 0 - - -, f 5;
#X obj 1520 140 maxlib/scale 0 100 0 127;
#X obj 1460 -60 maxlib/scale -50 50 0 127;
#X obj 1680 30 maxlib/scale -10 45 0 127;
#X obj 1080 -130 maxlib/scale 1 65535 2 127;
#X connect 0 0 1 0;
#X connect 0 0 2 0;
#X connect 0 0 8 0;
#X connect 1 0 2 1;
#X connect 1 0 9 1;
#X connect 1 0 14 0;
#X connect 2 0 3 0;
#X connect 2 0 4 0;
#X connect 3 0 4 1;
#X connect 4 0 10 0;
#X connect 6 0 7 1;
#X connect 7 0 13 0;
#X connect 8 0 9 0;
#X connect 9 0 7 0;
#X connect 10 0 5 0;
#X connect 10 0 11 0;
#X connect 10 0 15 0;
#X connect 11 0 12 0;
#X connect 12 0 13 1;
#X connect 12 0 38 1;
#X connect 13 0 17 0;
#X connect 14 0 15 1;
#X connect 15 0 16 0;
#X connect 16 0 19 1;
#X connect 17 0 18 0;
#X connect 18 0 19 0;
#X connect 19 0 57 0;
#X connect 20 0 17 1;
#X connect 21 0 14 1;
#X connect 22 0 3 1;
#X connect 23 0 10 1;
#X connect 24 0 16 1;
#X connect 25 0 8 1;
#X connect 26 0 1 1;
#X connect 27 0 1 2;
#X connect 28 0 29 0;
#X connect 28 0 30 0;
#X connect 28 0 34 0;
#X connect 29 0 30 1;
#X connect 29 0 35 1;
#X connect 29 0 39 0;
#X connect 30 0 31 0;
#X connect 30 0 32 0;
#X connect 31 0 32 1;
#X connect 32 0 36 0;
#X connect 33 0 38 0;
#X connect 34 0 35 0;
#X connect 35 0 33 0;
#X connect 36 0 37 0;
#X connect 36 0 40 0;
#X connect 36 0 53 0;
#X connect 37 0 12 1;
#X connect 38 0 42 0;
#X connect 39 0 40 1;
#X connect 40 0 41 0;
#X connect 41 0 44 1;
#X connect 42 0 43 0;
#X connect 43 0 44 0;
#X connect 44 0 58 0;
#X connect 45 0 42 1;
#X connect 46 0 39 1;
#X connect 47 0 31 1;
#X connect 48 0 36 1;
#X connect 49 0 41 1;
#X connect 50 0 34 1;
#X connect 51 0 29 1;
#X connect 52 0 29 2;
#X connect 54 0 33 1;
#X connect 55 0 125 0;
#X connect 56 0 126 0;
#X connect 57 0 59 0;
#X connect 58 0 60 0;
#X connect 59 0 55 0;
#X connect 60 0 56 0;
#X connect 62 0 63 0;
#X connect 63 0 90 0;
#X connect 64 0 65 0;
#X connect 65 0 67 0;
#X connect 66 0 64 0;
#X connect 68 0 69 0;
#X connect 69 0 72 0;
#X connect 70 0 71 0;
#X connect 71 0 73 0;
#X connect 72 0 70 0;
#X connect 74 0 75 0;
#X connect 75 0 85 0;
#X connect 76 0 77 0;
#X connect 77 0 82 0;
#X connect 78 0 79 0;
#X connect 78 0 124 0;
#X connect 79 0 87 0;
#X connect 80 0 81 0;
#X connect 81 0 83 0;
#X connect 82 0 84 0;
#X connect 83 0 88 0;
#X connect 84 0 86 0;
#X connect 85 0 76 0;
#X connect 87 0 80 0;
#X connect 88 0 89 0;
#X connect 90 0 66 0;
#X connect 91 0 92 0;
#X connect 92 0 106 0;
#X connect 93 0 94 0;
#X connect 94 0 101 0;
#X connect 95 0 96 0;
#X connect 96 0 97 0;
#X connect 97 0 98 0;
#X connect 98 0 99 0;
#X connect 100 0 95 0;
#X connect 101 0 102 0;
#X connect 102 0 100 0;
#X connect 103 0 104 0;
#X connect 104 0 105 0;
#X connect 105 0 107 0;
#X connect 106 0 103 0;
#X connect 107 0 108 0;
#X connect 109 0 110 0;
#X connect 110 0 116 0;
#X connect 111 0 112 0;
#X connect 112 0 113 0;
#X connect 114 0 115 0;
#X connect 115 0 119 0;
#X connect 116 0 111 0;
#X connect 117 0 118 0;
#X connect 118 0 120 0;
#X connect 119 0 117 0;
#X connect 120 0 121 0;
#X connect 125 0 129 0;
#X connect 126 0 127 0;
#X connect 127 0 123 0;
#X connect 128 0 127 1;
#X connect 128 0 129 1;
#X connect 129 0 122 0;
#X connect 130 0 131 0;
#X connect 131 0 128 0;
#X connect 132 0 137 0;
#X connect 133 0 138 0;
#X connect 134 0 158 0;
#X connect 135 0 139 0;
#X connect 136 0 140 0;
#X connect 137 0 152 1;
#X connect 138 0 152 0;
#X connect 139 0 156 0;
#X connect 140 0 159 0;
#X connect 143 0 144 0;
#X connect 144 0 145 0;
#X connect 145 0 155 0;
#X connect 146 0 147 0;
#X connect 147 0 109 0;
#X connect 147 0 68 0;
#X connect 148 0 149 0;
#X connect 149 0 150 0;
#X connect 150 0 93 0;
#X connect 150 0 74 0;
#X connect 151 0 114 0;
#X connect 151 0 62 0;
#X connect 152 0 153 0;
#X connect 153 0 157 0;
#X connect 154 0 151 0;
#X connect 155 0 91 0;
#X connect 155 0 124 0;
#X connect 156 0 148 0;
#X connect 157 0 154 0;
#X connect 158 0 146 0;
#X connect 159 0 143 0;
#X coords 0 -1 1 1 303 147 1 1108 98;
