#N canvas 0 0 2546 1338 12;
#X obj 378 784 t l l;
#X obj 583 906 list length;
#X obj 322 996 s \$0-scale;
#X msg 360 961 resize \$1;
#X text 559 1010 <-- this tells the array \$0-scale to fill the array
elements starting at element 0;
#X text 590 970 <-- set the array size to the number of tones in the
scale octave.;
#X obj 601 939 s \$0-scale_length;
#X obj 315 928 list trim;
#X obj 313 895 list prepend 0;
#X msg 647 674 0 0 1 3 5 7 8 10;
#X msg 925 544 0 1 3 5 6 8 10;
#X text 1045 544 Diatonic;
#X msg 925 644 0 1 2 4 6 8 10;
#X text 1055 644 Neapolitan;
#X msg 925 744 0 1 4 5 7 9 10;
#X text 1055 744 Harmonic Major;
#X msg 925 854 0 1 3 5 6 9;
#X text 1062 850 Triad Dim7;
#X msg 925 904 0 1 3 5 6 8 10;
#X text 1065 904 Diatonic Y;
#X obj 379 856 t l l;
#X obj 301 622 sel 0 1 2 3 4 5 6 7 8 9 10 11 12 13 14 15 16;
#X msg 288 676 0 2 3 5 7 8 10;
#X msg 311 700 0 2 4 6 7 9 11;
#X msg 289 650 0 2 4 5 7 9 11;
#X msg 366 730 0 2 3 5 7 9 11;
#X msg 658 708 0 1 3 5 7 10 11;
#X msg 700 742 0 2 3 5 7 9 10;
#X msg 717 772 0 2 3 5 7 8 11 \;, f 19;
#X text 1058 594 harmonic major scale;
#X text 1079 806 gipsy minor scale;
#X text 1088 696 gipsy major scale;
#X msg 925 594 0 2 4 5 7 8 11 12;
#X msg 925 694 0 1 4 5 7 8 11 12 13;
#X msg 925 804 0 0 2 3 6 7 8 11 12;
#N canvas 0 22 450 278 (subpatch) 0;
#X array \$0-scale 7 float 3 black black;
#A 0 0 1 3 5 6 8 10;
#X coords 0 12 7 0 200 140 1;
#X restore 1303 710 graph;
#X text 1277 848 0;
#X text 1262 705 12;
#X text 1303 870 1 1.22122e+06 0 \, 1 \, 3 \, 5 \, 6 \, 8 \, 10 Diatonic
7-35 Y Y 2 1.21222e+06 0 \, 1 \, 3 \, 4 \, 6 \, 8 \, 10 Melodic Minor
7-34 Y Y 3 1.12222e+06 0 \, 1 \, 2 \, 4 \, 6 \, 8 \, 10 Neapolitan
7-33 N Y 4 3.34343e+06 0 \, 1 \, 3 \, 5 \, 6 \, 8 \, 10 Diatonic 7-35
Y Y 5 3.34334e+06 0 \, 1 \, 3 \, 4 \, 6 \, 8 \, 10 Melodic Minor 7-34
Y Y 6 3.33443e+06 0 \, 1 \, 4 \, 5 \, 7 \, 9 \, 10 Harmonic Major 7-32
Y Implicit 7 3.33434e+06 0 \, 2 \, 3 \, 5 \, 7 \, 8 \, 11 Harmonic
Minor 7-32 Y Y 8 3.33344e+06 0 \, 1 \, 3 \, 5 \, 6 \, 9 Aug. Triad
& Dim.7 6-Z28 N N 9 5.55556e+06 0 \, 1 \, 3 \, 5 \, 6 \, 8 \, 10 Diatonic
7-35 Y Y;
#X obj 102 154 cnv 15 134 356 empty empty music\ scales 9 13 0 12 #000028
#8affff 0;
#X obj 110 180 vradio 20 0 0 16 empty scales_radio empty 0 -8 0 10
#99deff #ff5e5e #000000 0;
#X obj 43 85 r randomize;
#X obj 43 112 random 16;
#X obj 130 180 cnv 15 56 15 empty empty Major\ Ionian 2 9 0 10 #00001e
#cfff9f 0;
#X obj 130 210 cnv 15 56 15 empty empty Minor 2 -1 0 10 #00001e #cfff9f
0;
#X obj 130 228 cnv 15 56 15 empty empty Phrygian 1 1 0 10 #00001e #cfff9f
0;
#X obj 130 250 cnv 15 56 15 empty empty Melodic\ Minor 2 19 0 10 #00001e
#cfff9f 0;
#X obj 130 280 cnv 15 56 15 empty empty Anatolia 2 8 0 10 #00001e #cfff9f
0;
#X obj 130 300 cnv 15 56 15 empty empty Natural\ Minor 2 10 0 10 #00001e
#cfff9f 0;
#X obj 130 324 cnv 15 56 15 empty empty Harmonic\ Minor 2 5 0 10 #00001e
#cfff9f 0;
#X obj 130 348 cnv 15 56 15 empty empty Diatonic 2 1 0 10 #00001e #cfff9f
0;
#X obj 130 372 cnv 15 56 15 empty empty Harmonic\ Major 1 -3 0 10 #00001e
#cfff9f 0;
#X obj 130 396 cnv 15 56 15 empty empty Neapolitan 1 -7 0 10 #00001e
#cfff9f 0;
#X obj 130 420 cnv 15 56 15 empty empty Major 3 9 0 10 #00001e #cfff9f
0;
#X obj 130 440 cnv 15 56 15 empty empty Anatolia\ Minor 3 8 0 10 #00001e
#cfff9f 0;
#X obj 130 460 cnv 15 56 15 empty empty Triad\ Dim7 3 8 0 10 #00001e
#cfff9f 0;
#X obj 130 240 cnv 15 56 15 empty empty Lydian 2 8 0 10 #00001e #cfff9f
0;
#X obj 130 480 cnv 15 56 15 empty empty Diatonic 6 6 0 10 #00001e #cfff9f
0;
#X obj 130 400 cnv 15 56 15 empty empty Anatolia\ Major 2 8 0 10 #00001e
#cfff9f 0;
#X connect 0 0 20 0;
#X connect 1 0 3 0;
#X connect 1 0 6 0;
#X connect 3 0 2 0;
#X connect 7 0 2 0;
#X connect 8 0 7 0;
#X connect 9 0 0 0;
#X connect 10 0 0 0;
#X connect 12 0 0 0;
#X connect 14 0 0 0;
#X connect 16 0 0 0;
#X connect 18 0 0 0;
#X connect 20 0 8 0;
#X connect 20 1 1 0;
#X connect 21 0 24 0;
#X connect 21 1 22 0;
#X connect 21 2 9 0;
#X connect 21 3 23 0;
#X connect 21 4 25 0;
#X connect 21 5 26 0;
#X connect 21 6 27 0;
#X connect 21 7 28 0;
#X connect 21 8 10 0;
#X connect 21 9 32 0;
#X connect 21 10 12 0;
#X connect 21 11 33 0;
#X connect 21 12 14 0;
#X connect 21 13 34 0;
#X connect 21 14 16 0;
#X connect 21 15 18 0;
#X connect 22 0 0 0;
#X connect 23 0 0 0;
#X connect 24 0 0 0;
#X connect 25 0 0 0;
#X connect 26 0 0 0;
#X connect 27 0 0 0;
#X connect 28 0 0 0;
#X connect 32 0 0 0;
#X connect 34 0 0 0;
#X connect 40 0 21 0;
#X connect 41 0 42 0;
#X connect 42 0 40 0;
#X coords 0 -1 1 1 137 358 1 101 153;
