#N canvas 0 25 1680 913 12;
#X obj 190 380 sine_looper;
#X obj 310 290 sine_looper;
#X obj 190 470 sine_looper;
#X obj 190 290 sine_looper;
#X obj 310 380 sine_looper;
#X obj 310 470 sine_looper;
#X obj 1156 605 delay 1000;
#X obj 1117 337 delay 100;
#X obj 1341 344 delay 300;
#X obj 1344 573 delay 200;
#X obj 1589 590 delay 1200;
#X obj 1178 281 r randomize;
#X obj 1401 289 r randomize;
#X obj 1630 270 r randomize;
#X obj 1182 540 r randomize;
#X obj 1348 506 r randomize;
#X obj 1597 523 r randomize;
#X obj 1590 338 delay 6000;
#X obj 1177 308 random 4000;
#X obj 1401 317 random 5000;
#X obj 1657 306 random 6000;
#X obj 1182 572 random 4000;
#X obj 1599 555 random 2000;
#X obj 1348 536 random 3000;
#X obj 1550 230 metro 500;
#X obj 1117 397 pitch_to_scale;
#X obj 1341 404 pitch_to_scale;
#X obj 1594 399 pitch_to_scale;
#X obj 1156 665 pitch_to_scale;
#X obj 1344 653 pitch_to_scale;
#X obj 1591 658 pitch_to_scale;
#X obj 1261 201 r \$0-scale;
#X obj 1785 203 random 10000;
#X obj 1787 233 + 2000;
#X floatatom 1786 264 5 0 0 0 - - -, f 5;
#X obj 538 827 outlet~;
#X obj 443 257 r sine_note1;
#X obj 545 254 r sine_note2;
#X obj 639 249 r sine_note3;
#X obj 611 288 r sine_note4;
#X obj 706 288 r sine_note5;
#X obj 801 287 r sine_note6;
#X obj 1134 456 s sine_note1;
#X obj 1338 462 s sine_note2;
#X obj 1597 459 s sine_note3;
#X obj 1150 730 s sine_note4;
#X obj 1338 737 s sine_note5;
#X obj 1592 724 s sine_note6;
#X obj 1546 192 inlet;
#X obj 1787 173 inlet;
#X obj 1156 694 + 36;
#X obj 1118 428 + 36;
#X obj 1340 432 + 36;
#X obj 1596 432 + 36;
#X obj 1336 698 + 36;
#X obj 1592 694 + 36;
#X obj 1381 219 random 10000;
#X obj 640 756 hsl 181 12 0 1 0 0 empty mix_sine Volume -41 4 0 10
#ff7e79 #000000 #000000 0 1;
#X obj 542 796 *~;
#X obj 290 610 *~ 0.16;
#X obj 366 612 *~ 0.16;
#X obj 364 654 *~ 0.16;
#X obj 366 692 *~ 0.16;
#X obj 366 724 *~ 0.16;
#X obj 368 762 *~ 0.16;
#X obj 1100 -79 r r_atmPressure;
#X obj 980 -79 r r_seaPressure;
#X obj 670 30 r r_temperature;
#X obj 420 20 r r_humidity;
#X obj 80 -20 r r_lightSensitivity;
#X floatatom 1100 -50 10 0 0 0 - - -, f 10;
#X floatatom 980 -50 10 0 0 0 - - -, f 10;
#X floatatom 420 49 5 0 0 0 - - -, f 5;
#X floatatom 80 9 10 0 0 0 - - -, f 10;
#X text 1090 -19 1 atm 101.325 Pa;
#X text 10 -50 Wide range and high resolution (1 - 65535 lx);
#X floatatom 0 109 7 0 0 0 - - -, f 7;
#X text 0 60 map to velocity;
#X floatatom 200 109 7 0 0 0 - - -, f 7;
#X text 200 60 map to attack;
#X obj 200 80 maxlib/scale 1 65535 110 180;
#X obj 20 140 int;
#X obj 20 170 change;
#X obj 200 140 int;
#X obj 200 170 change;
#X floatatom 670 109 9 0 0 0 - - -, f 9;
#X obj 670 140 change;
#X text 670 60 map to detune;
#X obj 670 80 maxlib/scale -10 45 0 0.5;
#X floatatom 420 119 7 0 0 0 - - -, f 7;
#X obj 420 150 int;
#X obj 420 180 change;
#X text 420 70 map to decay;
#X text 910 50 map to gain 0 1;
#X floatatom 910 140 9 0 0 0 - - -, f 9;
#X obj 1050 -19 -;
#X floatatom 1050 10 10 0 0 0 - - -, f 10;
#X obj 420 90 maxlib/scale 0 100 130 180;
#X text 1020 -109 pressure difference;
#X obj 910 80 maxlib/scale -50 50 0 1;
#X floatatom 1090 140 9 0 0 0 - - -, f 9;
#X floatatom 1300 140 9 0 0 0 - - -, f 9;
#X text 1090 50 map to distortion;
#X obj 1090 80 maxlib/scale -50 50 0.5 5;
#X obj 1300 80 maxlib/scale -50 50 0.1 0.8 1;
#X text 1300 50 map to character;
#X obj 910 110 change;
#X obj 1090 110 change;
#X obj 1300 110 change;
#X obj 0 80 maxlib/scale 1 65535 40 127;
#X obj 1117 367 random 8;
#X obj 1340 370 random 8;
#X obj 1593 370 random 8;
#X obj 1130 510 random 8;
#X obj 1344 603 random 8;
#X obj 1590 620 random 8;
#X connect 0 0 62 0;
#X connect 1 0 60 0;
#X connect 2 0 61 0;
#X connect 3 0 59 0;
#X connect 4 0 63 0;
#X connect 5 0 64 0;
#X connect 6 0 113 0;
#X connect 7 0 110 0;
#X connect 8 0 111 0;
#X connect 9 0 114 0;
#X connect 10 0 115 0;
#X connect 11 0 18 0;
#X connect 12 0 19 0;
#X connect 13 0 20 0;
#X connect 14 0 21 0;
#X connect 15 0 23 0;
#X connect 16 0 22 0;
#X connect 17 0 112 0;
#X connect 18 0 7 1;
#X connect 19 0 8 1;
#X connect 20 0 17 1;
#X connect 21 0 6 1;
#X connect 22 0 10 1;
#X connect 23 0 9 1;
#X connect 24 0 7 0;
#X connect 24 0 8 0;
#X connect 24 0 17 0;
#X connect 24 0 6 0;
#X connect 24 0 9 0;
#X connect 24 0 10 0;
#X connect 24 0 56 0;
#X connect 25 0 51 0;
#X connect 26 0 52 0;
#X connect 27 0 53 0;
#X connect 28 0 50 0;
#X connect 29 0 54 0;
#X connect 30 0 55 0;
#X connect 31 0 25 1;
#X connect 31 0 26 1;
#X connect 31 0 27 1;
#X connect 31 0 28 1;
#X connect 32 0 33 0;
#X connect 33 0 34 0;
#X connect 34 0 24 1;
#X connect 36 0 3 0;
#X connect 37 0 1 0;
#X connect 38 0 2 0;
#X connect 39 0 0 0;
#X connect 40 0 4 0;
#X connect 41 0 5 0;
#X connect 48 0 24 0;
#X connect 49 0 32 0;
#X connect 50 0 45 0;
#X connect 51 0 42 0;
#X connect 52 0 43 0;
#X connect 53 0 44 0;
#X connect 54 0 46 0;
#X connect 55 0 47 0;
#X connect 56 0 21 1;
#X connect 56 0 20 1;
#X connect 56 0 19 1;
#X connect 56 0 22 1;
#X connect 56 0 23 1;
#X connect 56 0 18 1;
#X connect 56 0 29 1;
#X connect 56 0 30 1;
#X connect 57 0 58 1;
#X connect 58 0 35 0;
#X connect 59 0 58 0;
#X connect 60 0 58 0;
#X connect 61 0 58 0;
#X connect 62 0 58 0;
#X connect 63 0 58 0;
#X connect 64 0 58 0;
#X connect 65 0 70 0;
#X connect 66 0 71 0;
#X connect 67 0 88 0;
#X connect 68 0 72 0;
#X connect 69 0 73 0;
#X connect 70 0 95 1;
#X connect 71 0 95 0;
#X connect 72 0 97 0;
#X connect 73 0 80 0;
#X connect 73 0 109 0;
#X connect 76 0 81 0;
#X connect 78 0 83 0;
#X connect 80 0 78 0;
#X connect 81 0 82 0;
#X connect 82 0 3 2;
#X connect 82 0 1 2;
#X connect 82 0 0 2;
#X connect 82 0 2 2;
#X connect 82 0 4 2;
#X connect 82 0 5 2;
#X connect 83 0 84 0;
#X connect 84 0 3 6;
#X connect 84 0 1 6;
#X connect 84 0 0 6;
#X connect 84 0 2 6;
#X connect 84 0 4 6;
#X connect 84 0 5 6;
#X connect 85 0 86 0;
#X connect 86 0 3 3;
#X connect 86 0 1 3;
#X connect 86 0 0 3;
#X connect 86 0 2 3;
#X connect 86 0 4 3;
#X connect 86 0 5 3;
#X connect 88 0 85 0;
#X connect 89 0 90 0;
#X connect 90 0 91 0;
#X connect 91 0 3 7;
#X connect 91 0 1 7;
#X connect 91 0 0 7;
#X connect 91 0 2 7;
#X connect 91 0 4 7;
#X connect 91 0 5 7;
#X connect 94 0 3 1;
#X connect 94 0 1 1;
#X connect 94 0 0 1;
#X connect 94 0 2 1;
#X connect 94 0 4 1;
#X connect 94 0 5 1;
#X connect 95 0 96 0;
#X connect 96 0 99 0;
#X connect 96 0 103 0;
#X connect 96 0 104 0;
#X connect 97 0 89 0;
#X connect 99 0 106 0;
#X connect 100 0 3 4;
#X connect 100 0 1 4;
#X connect 100 0 0 4;
#X connect 100 0 2 4;
#X connect 100 0 4 4;
#X connect 100 0 5 4;
#X connect 101 0 3 5;
#X connect 101 0 1 5;
#X connect 101 0 0 5;
#X connect 101 0 2 5;
#X connect 101 0 4 5;
#X connect 101 0 5 5;
#X connect 103 0 107 0;
#X connect 104 0 108 0;
#X connect 106 0 94 0;
#X connect 107 0 100 0;
#X connect 108 0 101 0;
#X connect 109 0 76 0;
#X connect 110 0 25 0;
#X connect 111 0 26 0;
#X connect 112 0 27 0;
#X connect 113 0 28 0;
#X connect 114 0 29 0;
#X connect 115 0 30 0;
#X coords 0 -1 1 1 235 271 1 190 289;
