#N canvas 696 25 984 913 10;
#X obj 95 93 inlet;
#X obj 88 308 osc~;
#X obj 88 272 mtof;
#X obj 401 740 *~;
#X obj 400 768 outlet~;
#X obj 357 82 inlet;
#X msg 661 539 0;
#X obj 691 417 pack f f;
#X msg 480 509 0 89.1251;
#X msg 690 445 set \$1 \$2;
#X msg 691 377 bang;
#X obj 631 588 line 0 5;
#X obj 762 647 >=;
#X obj 603 369 float;
#X msg 550 740 0 7943.28;
#X obj 721 681 moses 0.001;
#X obj 525 307 clip 0 1;
#X obj 550 212 hsl 129 11 110 180 0 1 empty empty attack 5 5 0 8 #fcfcfc
#000000 #000000 2011 1;
#X obj 727 325 dbtorms;
#X obj 550 227 hsl 129 10 110 180 0 1 empty empty decay 5 5 0 8 #fcfcfc
#000000 #000000 12434 1;
#X obj 786 323 dbtorms;
#X obj 631 689 lop~ 50;
#X obj 526 339 moses 0.01;
#X obj 720 745 delay 1;
#X obj 544 433 delay 0;
#X msg 753 501 set 0 \$1;
#X obj 632 661 *;
#X obj 553 180 hsl 127 11 0.5 5 0 1 empty empty distortion 5 5 0 8
#fcfcfc #000000 #000000 7000 1;
#X obj 551 196 hsl 128 12 0.1 0.8 0 1 empty empty character 5 5 0 8
#fcfcfc #000000 #000000 6713 1;
#X obj 210 494 /~;
#X obj 231 431 abs~;
#X obj 246 463 +~;
#X obj 210 384 *~;
#X text 269 438 needs zexy;
#X obj 128 309 osc~;
#X obj 128 273 mtof;
#X obj 234 563 +~;
#X obj 533 171 vradio 12 1 1 5 empty empty empty 0 -6 0 8 #fcfcfc #000000
#000000 2;
#X obj 419 231 * 12;
#X obj 102 213 +;
#X obj 127 246 +;
#X obj 552 162 hsl 128 12 0 0.5 0 1 empty empty detune 5 5 0 8 #fcfcfc
#000000 #000000 3556 1;
#X obj 422 208 - 2;
#X obj 90 243 +;
#X obj 180 198 * -1;
#X obj 238 101 t b f;
#X obj 112 176 float;
#X obj 98 484 /~;
#X obj 126 425 abs~;
#X obj 141 457 +~;
#X obj 105 378 *~;
#X obj 370 110 / 128;
#X obj 670 80 r randomize;
#X obj 530 110 random 4;
#X obj 670 110 random 5;
#X obj 800 130 + 110;
#X obj 870 130 + 110;
#X obj 590 130 / 100;
#X obj 730 110 random 100;
#X obj 730 130 / 100;
#X obj 870 110 random 70;
#X obj 800 110 random 30;
#X obj 592 110 random 20;
#X obj 1682 233 r r_yAxis;
#X obj 1792 232 r r_score;
#X obj 1848 72 r r_hours;
#X obj 1940 72 r r_minutes;
#X obj 2042 72 r r_seconds;
#X floatatom 1682 262 10 0 0 0 - - -, f 10;
#X floatatom 1792 261 10 0 0 0 - - -, f 10;
#X floatatom 1848 101 5 0 0 0 - - -, f 5;
#X floatatom 1940 101 5 0 0 0 - - -, f 5;
#X floatatom 2042 101 5 0 0 0 - - -, f 5;
#X obj 420 -10 inlet;
#X obj 510 -10 inlet;
#X obj 600 -10 inlet;
#X obj 680 -10 inlet;
#X obj 740 -10 inlet;
#X text 489 -31 distortion;
#X text 430 -30 detune;
#X text 590 -30 character;
#X text 680 -30 attack;
#X text 740 -30 decay;
#X obj 910 320 outlet;
#X obj 920 330 outlet;
#X obj 930 340 outlet;
#X obj 940 350 outlet;
#X obj 950 360 outlet;
#X connect 0 0 46 0;
#X connect 1 0 50 0;
#X connect 2 0 1 0;
#X connect 3 0 4 0;
#X connect 5 0 51 0;
#X connect 6 0 11 0;
#X connect 7 0 9 0;
#X connect 8 0 11 0;
#X connect 9 0 8 0;
#X connect 10 0 7 0;
#X connect 11 0 12 0;
#X connect 11 0 26 0;
#X connect 11 0 26 1;
#X connect 12 0 15 0;
#X connect 13 0 6 0;
#X connect 13 0 7 0;
#X connect 13 0 12 1;
#X connect 13 0 24 0;
#X connect 14 0 11 0;
#X connect 15 1 23 0;
#X connect 16 0 22 0;
#X connect 17 0 18 0;
#X connect 18 0 10 0;
#X connect 18 0 7 1;
#X connect 19 0 20 0;
#X connect 20 0 25 0;
#X connect 21 0 3 1;
#X connect 22 1 13 0;
#X connect 23 0 14 0;
#X connect 24 0 8 0;
#X connect 25 0 14 0;
#X connect 26 0 21 0;
#X connect 27 0 32 1;
#X connect 27 0 50 1;
#X connect 28 0 31 1;
#X connect 28 0 49 1;
#X connect 29 0 36 1;
#X connect 30 0 31 0;
#X connect 31 0 29 1;
#X connect 32 0 29 0;
#X connect 32 0 30 0;
#X connect 34 0 32 0;
#X connect 35 0 34 0;
#X connect 36 0 3 0;
#X connect 37 0 42 0;
#X connect 38 0 39 1;
#X connect 39 0 40 0;
#X connect 39 0 43 0;
#X connect 40 0 35 0;
#X connect 41 0 40 1;
#X connect 41 0 45 0;
#X connect 42 0 38 0;
#X connect 43 0 2 0;
#X connect 44 0 43 1;
#X connect 45 0 46 0;
#X connect 45 1 44 0;
#X connect 46 0 39 0;
#X connect 47 0 36 0;
#X connect 48 0 49 0;
#X connect 49 0 47 1;
#X connect 50 0 47 0;
#X connect 50 0 48 0;
#X connect 51 0 16 0;
#X connect 52 0 53 0;
#X connect 52 0 54 0;
#X connect 52 0 58 0;
#X connect 52 0 60 0;
#X connect 52 0 61 0;
#X connect 52 0 62 0;
#X connect 53 0 37 0;
#X connect 54 0 27 0;
#X connect 54 0 84 0;
#X connect 55 0 17 0;
#X connect 55 0 86 0;
#X connect 56 0 19 0;
#X connect 56 0 87 0;
#X connect 57 0 41 0;
#X connect 57 0 83 0;
#X connect 58 0 59 0;
#X connect 59 0 28 0;
#X connect 59 0 85 0;
#X connect 60 0 56 0;
#X connect 61 0 55 0;
#X connect 62 0 57 0;
#X connect 63 0 68 0;
#X connect 64 0 69 0;
#X connect 65 0 70 0;
#X connect 66 0 71 0;
#X connect 67 0 72 0;
#X connect 73 0 41 0;
#X connect 74 0 27 0;
#X connect 75 0 28 0;
#X connect 76 0 17 0;
#X connect 77 0 19 0;
#X coords 0 -1 1 1 161 86 1 528 156;
