#N canvas 605 249 857 586 12;
#X obj 386 232 metro 10000;
#X obj 432 294 bng 40 250 50 0 empty empty empty 17 7 0 10 -261682
-1 -1;
#X obj 145 367 lop~ 6000;
#X floatatom 66 303 5 0 0 0 - - -;
#X obj 480 407 line 0 3;
#X floatatom 480 431 5 0 0 0 - - -;
#X obj 480 357 delay 2000;
#X obj 145 397 *~;
#X floatatom 478 213 5 0 0 0 - - -;
#X text 564 97 Loop Length;
#X text 697 208 Note Length;
#X floatatom 589 320 5 0 0 0 - - -;
#X obj 33 247 r LFO;
#X obj 64 278 +;
#X floatatom 84 252 5 0 0 0 - - -;
#X obj 386 177 r toggle;
#X obj 478 183 + 10000;
#X obj 479 156 random 30000;
#X obj 478 127 r randomize;
#X obj 589 242 r randomize;
#X obj 590 271 random 3000;
#X obj 591 295 + 1000;
#X obj 63 192 inlet;
#X obj 145 428 outlet~;
#X obj 697 231 inlet;
#X obj 574 120 inlet;
#X obj 599 468 outlet;
#X msg 481 381 0 50;
#X msg 412 372 0.1 50;
#X obj 142 331 vangex;
#X floatatom 165 299 5 0.1 10 0 - - -;
#X floatatom 216 302 5 0.1 500 0 - - -;
#X obj 167 233 inlet;
#X obj 253 239 inlet;
#X connect 0 0 1 0;
#X connect 1 0 28 0;
#X connect 1 0 6 0;
#X connect 1 0 26 0;
#X connect 2 0 7 0;
#X connect 3 0 29 0;
#X connect 4 0 5 0;
#X connect 5 0 7 1;
#X connect 6 0 27 0;
#X connect 7 0 23 0;
#X connect 8 0 0 1;
#X connect 11 0 6 1;
#X connect 12 0 13 0;
#X connect 13 0 3 0;
#X connect 14 0 13 1;
#X connect 15 0 0 0;
#X connect 16 0 8 0;
#X connect 17 0 16 0;
#X connect 18 0 17 0;
#X connect 19 0 20 0;
#X connect 20 0 21 0;
#X connect 21 0 11 0;
#X connect 22 0 14 0;
#X connect 24 0 20 1;
#X connect 25 0 17 1;
#X connect 27 0 4 0;
#X connect 28 0 4 0;
#X connect 29 0 2 0;
#X connect 30 0 29 1;
#X connect 31 0 29 2;
#X connect 32 0 30 0;
#X connect 33 0 31 0;
