#N canvas -8 -8 2578 1362 12;
#X obj 252 465 metro 10000;
#X obj 298 527 bng 40 250 50 0 empty empty empty 17 7 0 10 #fce0c4
#000000 #000000;
#X obj 346 640 line 0 3;
#X floatatom 346 664 5 0 0 0 - - -, f 5;
#X obj 346 590 delay 2000;
#X obj 171 731 *~;
#X floatatom 344 446 5 0 0 0 - - -, f 5;
#X text 430 330 Loop Length;
#X text 563 441 Note Length;
#X floatatom 455 553 5 0 0 0 - - -, f 5;
#X obj 252 410 r toggle;
#X obj 344 416 + 10000;
#X obj 345 389 random 30000;
#X obj 344 360 r randomize;
#X obj 455 475 r randomize;
#X obj 456 504 random 3000;
#X obj 457 528 + 1000;
#X obj -25 304 inlet;
#X obj 172 768 outlet~;
#X obj 563 464 inlet;
#X obj 440 353 inlet;
#X obj 226 603 outlet;
#X obj 111 22 inlet;
#X obj 222 22 inlet;
#X obj 118 75 tabwrite \$0-waveform;
#X msg 278 605 0.1 300;
#X msg 346 614 0 700;
#N canvas 0 22 450 278 (subpatch) 0;
#X array \$0-waveform 10 float 5 black #fcec5f;
#A 0 -1.77778 1.49 0.32 -2.23517e-08 1.51 -0.41 -0.59 0.03 1.07 -1.84444
;
#X coords 0 1 9 -1 201 120 1;
#X restore 100 160 graph;
#X obj 22 561 tabread \$0-waveform;
#X obj 69 681 vline~;
#X obj 67 624 pack;
#X msg 64 652 \$1 \$2;
#X floatatom 24 591 5 0 0 0 - - -, f 5;
#X obj 63 503 + 1;
#X obj 24 500 f;
#X obj 24 469 metro;
#X floatatom -25 399 5 0 0 0 - - -, f 5;
#X floatatom 23 534 5 0 0 0 - - -, f 5;
#X obj -27 371 expr (1/$f1)*1000;
#X obj 67 532 mod 10;
#X text 83 410 Toggle Oscillator;
#X obj 75 433 loadbang;
#X obj -25 339 mtof;
#X connect 0 0 1 0;
#X connect 1 0 25 0;
#X connect 1 0 4 0;
#X connect 1 0 21 0;
#X connect 2 0 3 0;
#X connect 3 0 5 1;
#X connect 4 0 26 0;
#X connect 5 0 18 0;
#X connect 6 0 0 1;
#X connect 9 0 4 1;
#X connect 10 0 0 0;
#X connect 11 0 6 0;
#X connect 12 0 11 0;
#X connect 13 0 12 0;
#X connect 14 0 15 0;
#X connect 15 0 16 0;
#X connect 16 0 9 0;
#X connect 17 0 42 0;
#X connect 19 0 15 1;
#X connect 20 0 12 1;
#X connect 22 0 24 1;
#X connect 23 0 24 0;
#X connect 25 0 2 0;
#X connect 26 0 2 0;
#X connect 28 0 32 0;
#X connect 29 0 5 0;
#X connect 30 0 31 0;
#X connect 31 0 29 0;
#X connect 32 0 30 0;
#X connect 33 0 39 0;
#X connect 34 0 37 0;
#X connect 34 0 33 0;
#X connect 35 0 34 0;
#X connect 36 0 35 1;
#X connect 36 0 30 1;
#X connect 37 0 28 0;
#X connect 38 0 36 0;
#X connect 39 0 34 1;
#X connect 41 0 35 0;
#X connect 42 0 38 0;
#X coords 0 -1 1 1 204 160 1 99 120;
