#N canvas 93 47 1491 901 12;
#X obj 101 101 cnv 15 198 153 empty empty empty 20 12 0 14 -241195
-36477 0;
#N canvas 0 22 450 278 (subpatch) 0;
#X array \$0-waveform 10 float 3;
#A 0 -0.322835 0.19685 -0.181102 0.928572 -0.307087 0.11811 -0.742857
0.149606 -0.543307 0.259843;
#X coords 0 1 10 -1 200 140 1 0 0;
#X restore 100 114 graph;
#X obj 444 202 tabread \$0-waveform;
#X obj 473 336 vline~;
#X obj 475 280 pack;
#X msg 472 308 \$1 \$2;
#X floatatom 449 239 5 0 0 0 - - -;
#X obj 491 123 + 1;
#X obj 435 121 f;
#X obj 442 84 metro;
#X floatatom 621 177 5 0 0 0 - - -;
#X floatatom 436 163 5 0 0 0 - - -;
#X obj 619 86 mtof;
#X obj 622 145 expr (1/$f1)*1000;
#X floatatom 621 116 5 0 0 0 - - -;
#X obj 499 158 mod 10;
#X obj 619 53 inlet;
#X text 409 30 Toggle Oscillator;
#X text 618 29 Insert MIDI note;
#X obj 459 401 outlet~;
#X obj 441 55 loadbang;
#X connect 2 0 6 0;
#X connect 3 0 19 0;
#X connect 4 0 5 0;
#X connect 5 0 3 0;
#X connect 6 0 4 0;
#X connect 7 0 15 0;
#X connect 8 0 11 0;
#X connect 8 0 7 0;
#X connect 9 0 8 0;
#X connect 10 0 9 1;
#X connect 10 0 4 1;
#X connect 11 0 2 0;
#X connect 12 0 14 0;
#X connect 13 0 10 0;
#X connect 14 0 13 0;
#X connect 15 0 8 1;
#X connect 16 0 12 0;
#X connect 20 0 9 0;
#X coords 0 -1 1 1 200 155 1 100 100;
