#N canvas 456 286 826 476 12;
#X obj 349 170 pack 0 100;
#X obj 349 193 line~;
#X obj 164 210 *~;
#X obj 349 148 dbtorms;
#X obj 58 65 inlet~;
#X obj 394 93 inlet;
#X obj 394 125 clip 0 120;
#X msg 474 184 \; pd dsp 1;
#X obj 164 23 inlet~;
#X obj 204 213 *~;
#X obj 215 48 inlet~;
#X obj 55 129 *~ 1;
#X obj 160 114 *~ 1;
#X obj 211 112 *~ 1;
#X obj 80 95 r dry;
#X obj 248 85 r wet;
#X obj 164 247 outlet~;
#X obj 228 247 outlet~;
#X connect 0 0 1 0;
#X connect 1 0 2 1;
#X connect 1 0 9 1;
#X connect 2 0 16 0;
#X connect 3 0 0 0;
#X connect 4 0 11 0;
#X connect 5 0 6 0;
#X connect 5 0 7 0;
#X connect 6 0 3 0;
#X connect 8 0 12 0;
#X connect 9 0 17 0;
#X connect 10 0 13 0;
#X connect 11 0 2 0;
#X connect 11 0 9 0;
#X connect 12 0 2 0;
#X connect 13 0 9 0;
#X connect 14 0 11 1;
#X connect 15 0 13 1;
#X connect 15 0 12 1;
