#N canvas -8 -8 2562 1354 12;
#X obj 293 260 inlet;
#X obj 492 219 inlet;
#X text 289 235 trigger;
#X obj 293 288 sel 0;
#X obj 432 304 t b;
#X obj 440 405 f \$1;
#X obj 440 430 pack 0 \$2;
#X obj 549 219 inlet;
#X obj 495 349 del \$2;
#X obj 515 497 line~;
#X obj 519 372 f \$4;
#X obj 558 447 pack 0 \$3;
#X obj 611 219 inlet;
#X obj 673 219 inlet;
#X obj 746 218 inlet;
#X msg 293 319 stop;
#X obj 669 374 pack 0 \$5;
#X text 492 197 level;
#X obj 558 423 * \$1;
#X obj 515 522 outlet~;
#X text 662 400 on release ramp;
#X text 663 417 back to zero;
#X obj 519 397 * 0.01;
#X text 545 197 attack;
#X text 612 196 decay;
#X text 666 197 sustain;
#X text 743 197 release;
#X text 390 220 attack;
#X obj 392 241 moses;
#X obj 382 271 t b b;
#X msg 402 431 0;
#X text 496 181 peak;
#X connect 0 0 3 0;
#X connect 1 0 5 1;
#X connect 1 0 18 1;
#X connect 3 0 15 0;
#X connect 3 0 16 0;
#X connect 3 1 28 0;
#X connect 4 0 5 0;
#X connect 4 0 8 0;
#X connect 5 0 6 0;
#X connect 6 0 9 0;
#X connect 7 0 6 1;
#X connect 7 0 8 1;
#X connect 8 0 10 0;
#X connect 9 0 19 0;
#X connect 10 0 22 0;
#X connect 11 0 9 0;
#X connect 12 0 11 1;
#X connect 13 0 10 1;
#X connect 14 0 16 1;
#X connect 15 0 8 0;
#X connect 16 0 9 0;
#X connect 18 0 11 0;
#X connect 22 0 18 0;
#X connect 28 0 29 0;
#X connect 28 1 4 0;
#X connect 29 0 4 0;
#X connect 29 1 30 0;
#X connect 30 0 9 0;
